G04 Layer: BottomSilkLayer*
G04 EasyEDA v6.3.22, 2020-04-19T15:25:33+02:00*
G04 9585e20cbaa244c19a7501b8b38ea314,91c4fea8558b4139a52e513319813ad2,10*
G04 Gerber Generator version 0.2*
G04 Scale: 100 percent, Rotated: No, Reflected: No *
G04 Dimensions in millimeters *
G04 leading zeros omitted , absolute positions ,3 integer and 3 decimal *
%FSLAX33Y33*%
%MOMM*%
G90*
G71D02*

%ADD10C,0.254000*%
%ADD30C,0.202997*%
%ADD33C,0.203200*%
%ADD34C,0.152400*%
%ADD35C,0.200000*%

%LPD*%
G54D10*
G01X55214Y18155D02*
G01X56585Y18155D01*
G01X55138Y18231D02*
G01X55138Y17368D01*
G01X56662Y18231D02*
G01X56662Y17368D01*
G01X55138Y17368D02*
G01X56662Y17368D01*
G01X61665Y17444D02*
G01X60294Y17444D01*
G01X61742Y17368D02*
G01X61742Y18231D01*
G01X60218Y17368D02*
G01X60218Y18231D01*
G01X61742Y18231D02*
G01X60218Y18231D01*
G01X66745Y17444D02*
G01X65374Y17444D01*
G01X66822Y17368D02*
G01X66822Y18231D01*
G01X65298Y17368D02*
G01X65298Y18231D01*
G01X66822Y18231D02*
G01X65298Y18231D01*
G01X70454Y18155D02*
G01X71825Y18155D01*
G01X70378Y18231D02*
G01X70378Y17368D01*
G01X71902Y18231D02*
G01X71902Y17368D01*
G01X70378Y17368D02*
G01X71902Y17368D01*
G01X75534Y18155D02*
G01X76905Y18155D01*
G01X75458Y18231D02*
G01X75458Y17368D01*
G01X76982Y18231D02*
G01X76982Y17368D01*
G01X75458Y17368D02*
G01X76982Y17368D01*
G01X80614Y18155D02*
G01X81985Y18155D01*
G01X80538Y18231D02*
G01X80538Y17368D01*
G01X82062Y18231D02*
G01X82062Y17368D01*
G01X80538Y17368D02*
G01X82062Y17368D01*
G01X85694Y18155D02*
G01X87065Y18155D01*
G01X85618Y18231D02*
G01X85618Y17368D01*
G01X87142Y18231D02*
G01X87142Y17368D01*
G01X85618Y17368D02*
G01X87142Y17368D01*
G01X133560Y20936D02*
G01X133560Y21751D01*
G01X132900Y21751D01*
G01X131299Y21751D02*
G01X130640Y21751D01*
G01X131299Y21751D01*
G01X130640Y21751D01*
G01X130640Y20936D01*
G54D35*
G01X132399Y20202D02*
G01X131800Y20202D01*
G54D10*
G01X50019Y21293D02*
G01X50835Y21293D01*
G01X50835Y21952D01*
G01X50835Y23553D02*
G01X50835Y24212D01*
G01X50835Y23553D01*
G01X50835Y24212D01*
G01X50019Y24212D01*
G54D35*
G01X49285Y22453D02*
G01X49285Y23052D01*
G54D10*
G01X50019Y16213D02*
G01X50835Y16213D01*
G01X50835Y16872D01*
G01X50835Y18473D02*
G01X50835Y19132D01*
G01X50835Y18473D01*
G01X50835Y19132D01*
G01X50019Y19132D01*
G54D35*
G01X49285Y17373D02*
G01X49285Y17972D01*
G54D10*
G01X50019Y11133D02*
G01X50835Y11133D01*
G01X50835Y11792D01*
G01X50835Y13393D02*
G01X50835Y14052D01*
G01X50835Y13393D01*
G01X50835Y14052D01*
G01X50019Y14052D01*
G54D35*
G01X49285Y12293D02*
G01X49285Y12892D01*
G54D10*
G01X45511Y21051D02*
G01X45511Y22422D01*
G01X45435Y20974D02*
G01X46298Y20974D01*
G01X45435Y22498D02*
G01X46298Y22498D01*
G01X46298Y20974D02*
G01X46298Y22498D01*
G01X45511Y15971D02*
G01X45511Y17342D01*
G01X45435Y15894D02*
G01X46298Y15894D01*
G01X45435Y17418D02*
G01X46298Y17418D01*
G01X46298Y15894D02*
G01X46298Y17418D01*
G01X45511Y10891D02*
G01X45511Y12262D01*
G01X45435Y10814D02*
G01X46298Y10814D01*
G01X45435Y12338D02*
G01X46298Y12338D01*
G01X46298Y10814D02*
G01X46298Y12338D01*
G01X133674Y15539D02*
G01X132303Y15539D01*
G01X133751Y15463D02*
G01X133751Y16326D01*
G01X132227Y15463D02*
G01X132227Y16326D01*
G01X133751Y16326D02*
G01X132227Y16326D01*
G01X24378Y41091D02*
G01X24378Y39720D01*
G01X24454Y41167D02*
G01X23591Y41167D01*
G01X24454Y39643D02*
G01X23591Y39643D01*
G01X23591Y41167D02*
G01X23591Y39643D01*
G01X16885Y33471D02*
G01X16885Y32100D01*
G01X16961Y33547D02*
G01X16098Y33547D01*
G01X16961Y32023D02*
G01X16098Y32023D01*
G01X16098Y33547D02*
G01X16098Y32023D01*
G01X24505Y26232D02*
G01X24505Y24861D01*
G01X24581Y26308D02*
G01X23718Y26308D01*
G01X24581Y24784D02*
G01X23718Y24784D01*
G01X23718Y26308D02*
G01X23718Y24784D01*
G01X32125Y33471D02*
G01X32125Y32100D01*
G01X32201Y33547D02*
G01X31338Y33547D01*
G01X32201Y32023D02*
G01X31338Y32023D01*
G01X31338Y33547D02*
G01X31338Y32023D01*
G01X106344Y51531D02*
G01X106344Y52902D01*
G01X106268Y51454D02*
G01X107131Y51454D01*
G01X106268Y52978D02*
G01X107131Y52978D01*
G01X107131Y51454D02*
G01X107131Y52978D01*
G01X30881Y29229D02*
G01X29032Y29229D01*
G01X29032Y31769D01*
G01X30881Y31769D01*
G01X32405Y31769D02*
G01X34263Y31769D01*
G01X34263Y29229D01*
G01X32405Y29229D01*
G01X23261Y21990D02*
G01X21412Y21990D01*
G01X21412Y24530D01*
G01X23261Y24530D01*
G01X24785Y24530D02*
G01X26643Y24530D01*
G01X26643Y21990D01*
G01X24785Y21990D01*
G01X15641Y29229D02*
G01X13792Y29229D01*
G01X13792Y31769D01*
G01X15641Y31769D01*
G01X17165Y31769D02*
G01X19023Y31769D01*
G01X19023Y29229D01*
G01X17165Y29229D01*
G01X23134Y36849D02*
G01X21285Y36849D01*
G01X21285Y39389D01*
G01X23134Y39389D01*
G01X24658Y39389D02*
G01X26516Y39389D01*
G01X26516Y36849D01*
G01X24658Y36849D01*
G54D30*
G01X42637Y5813D02*
G01X42637Y5062D01*
G01X42684Y4921D01*
G01X42730Y4874D01*
G01X42824Y4827D01*
G01X42965Y4827D01*
G01X43059Y4874D01*
G01X42637Y5672D02*
G01X42730Y5766D01*
G01X42824Y5813D01*
G01X42965Y5813D01*
G01X43059Y5766D01*
G01X43153Y5672D01*
G01X43200Y5531D01*
G01X43200Y5437D01*
G01X43153Y5297D01*
G01X43059Y5203D01*
G01X42965Y5156D01*
G01X42824Y5156D01*
G01X42730Y5203D01*
G01X42637Y5297D01*
G01X42327Y6141D02*
G01X42280Y6094D01*
G01X42233Y6141D01*
G01X42280Y6188D01*
G01X42327Y6141D01*
G01X42280Y5813D02*
G01X42280Y5156D01*
G01X41783Y6141D02*
G01X41783Y5343D01*
G01X41736Y5203D01*
G01X41642Y5156D01*
G01X41548Y5156D01*
G01X41924Y5813D02*
G01X41595Y5813D01*
G01X41239Y6141D02*
G01X41239Y5156D01*
G01X41239Y5625D02*
G01X41098Y5766D01*
G01X41004Y5813D01*
G01X40863Y5813D01*
G01X40770Y5766D01*
G01X40723Y5625D01*
G01X40723Y5156D01*
G01X40413Y5813D02*
G01X40413Y5343D01*
G01X40366Y5203D01*
G01X40272Y5156D01*
G01X40132Y5156D01*
G01X40038Y5203D01*
G01X39897Y5343D01*
G01X39897Y5813D02*
G01X39897Y5156D01*
G01X39588Y6141D02*
G01X39588Y5156D01*
G01X39588Y5672D02*
G01X39494Y5766D01*
G01X39400Y5813D01*
G01X39259Y5813D01*
G01X39165Y5766D01*
G01X39072Y5672D01*
G01X39025Y5531D01*
G01X39025Y5437D01*
G01X39072Y5297D01*
G01X39165Y5203D01*
G01X39259Y5156D01*
G01X39400Y5156D01*
G01X39494Y5203D01*
G01X39588Y5297D01*
G01X38668Y5390D02*
G01X38715Y5343D01*
G01X38668Y5297D01*
G01X38621Y5343D01*
G01X38668Y5390D01*
G01X37749Y5672D02*
G01X37843Y5766D01*
G01X37936Y5813D01*
G01X38077Y5813D01*
G01X38171Y5766D01*
G01X38265Y5672D01*
G01X38312Y5531D01*
G01X38312Y5437D01*
G01X38265Y5297D01*
G01X38171Y5203D01*
G01X38077Y5156D01*
G01X37936Y5156D01*
G01X37843Y5203D01*
G01X37749Y5297D01*
G01X37205Y5813D02*
G01X37298Y5766D01*
G01X37392Y5672D01*
G01X37439Y5531D01*
G01X37439Y5437D01*
G01X37392Y5297D01*
G01X37298Y5203D01*
G01X37205Y5156D01*
G01X37064Y5156D01*
G01X36970Y5203D01*
G01X36876Y5297D01*
G01X36829Y5437D01*
G01X36829Y5531D01*
G01X36876Y5672D01*
G01X36970Y5766D01*
G01X37064Y5813D01*
G01X37205Y5813D01*
G01X36520Y5813D02*
G01X36520Y5156D01*
G01X36520Y5625D02*
G01X36379Y5766D01*
G01X36285Y5813D01*
G01X36144Y5813D01*
G01X36051Y5766D01*
G01X36004Y5625D01*
G01X36004Y5156D01*
G01X36004Y5625D02*
G01X35863Y5766D01*
G01X35769Y5813D01*
G01X35628Y5813D01*
G01X35535Y5766D01*
G01X35488Y5625D01*
G01X35488Y5156D01*
G01X34334Y6329D02*
G01X35178Y4827D01*
G01X33508Y5672D02*
G01X33555Y5766D01*
G01X33696Y5813D01*
G01X33836Y5813D01*
G01X33977Y5766D01*
G01X34024Y5672D01*
G01X33977Y5578D01*
G01X33883Y5531D01*
G01X33649Y5484D01*
G01X33555Y5437D01*
G01X33508Y5343D01*
G01X33508Y5297D01*
G01X33555Y5203D01*
G01X33696Y5156D01*
G01X33836Y5156D01*
G01X33977Y5203D01*
G01X34024Y5297D01*
G01X33198Y6141D02*
G01X33198Y5156D01*
G01X32729Y5813D02*
G01X33198Y5343D01*
G01X33011Y5531D02*
G01X32682Y5156D01*
G01X32373Y6141D02*
G01X32373Y5156D01*
G01X31688Y6141D02*
G01X31782Y6141D01*
G01X31876Y6094D01*
G01X31923Y5953D01*
G01X31923Y5156D01*
G01X32063Y5813D02*
G01X31735Y5813D01*
G01X31144Y6141D02*
G01X31285Y6094D01*
G01X31332Y6000D01*
G01X31332Y5906D01*
G01X31285Y5813D01*
G01X31191Y5766D01*
G01X31003Y5719D01*
G01X30862Y5672D01*
G01X30769Y5578D01*
G01X30722Y5484D01*
G01X30722Y5343D01*
G01X30769Y5250D01*
G01X30816Y5203D01*
G01X30956Y5156D01*
G01X31144Y5156D01*
G01X31285Y5203D01*
G01X31332Y5250D01*
G01X31378Y5343D01*
G01X31378Y5484D01*
G01X31332Y5578D01*
G01X31238Y5672D01*
G01X31097Y5719D01*
G01X30909Y5766D01*
G01X30816Y5813D01*
G01X30769Y5906D01*
G01X30769Y6000D01*
G01X30816Y6094D01*
G01X30956Y6141D01*
G01X31144Y6141D01*
G01X30412Y5953D02*
G01X30318Y6000D01*
G01X30178Y6141D01*
G01X30178Y5156D01*
G01X29024Y6329D02*
G01X29868Y4827D01*
G01X28057Y6000D02*
G01X28151Y6094D01*
G01X28292Y6141D01*
G01X28479Y6141D01*
G01X28620Y6094D01*
G01X28714Y6000D01*
G01X28714Y5906D01*
G01X28667Y5813D01*
G01X28620Y5766D01*
G01X28526Y5719D01*
G01X28245Y5625D01*
G01X28151Y5578D01*
G01X28104Y5531D01*
G01X28057Y5437D01*
G01X28057Y5297D01*
G01X28151Y5203D01*
G01X28292Y5156D01*
G01X28479Y5156D01*
G01X28620Y5203D01*
G01X28714Y5297D01*
G01X27748Y5813D02*
G01X27748Y5156D01*
G01X27748Y5625D02*
G01X27607Y5766D01*
G01X27513Y5813D01*
G01X27372Y5813D01*
G01X27279Y5766D01*
G01X27232Y5625D01*
G01X27232Y5156D01*
G01X26359Y5813D02*
G01X26359Y5156D01*
G01X26359Y5672D02*
G01X26453Y5766D01*
G01X26547Y5813D01*
G01X26688Y5813D01*
G01X26781Y5766D01*
G01X26875Y5672D01*
G01X26922Y5531D01*
G01X26922Y5437D01*
G01X26875Y5297D01*
G01X26781Y5203D01*
G01X26688Y5156D01*
G01X26547Y5156D01*
G01X26453Y5203D01*
G01X26359Y5297D01*
G01X26050Y6141D02*
G01X26050Y5156D01*
G01X25580Y5813D02*
G01X26050Y5343D01*
G01X25862Y5531D02*
G01X25534Y5156D01*
G01X25224Y5531D02*
G01X24661Y5531D01*
G01X24661Y5625D01*
G01X24708Y5719D01*
G01X24755Y5766D01*
G01X24849Y5813D01*
G01X24989Y5813D01*
G01X25083Y5766D01*
G01X25177Y5672D01*
G01X25224Y5531D01*
G01X25224Y5437D01*
G01X25177Y5297D01*
G01X25083Y5203D01*
G01X24989Y5156D01*
G01X24849Y5156D01*
G01X24755Y5203D01*
G01X24661Y5297D01*
G01X23648Y5906D02*
G01X23695Y6000D01*
G01X23789Y6094D01*
G01X23882Y6141D01*
G01X24070Y6141D01*
G01X24164Y6094D01*
G01X24258Y6000D01*
G01X24305Y5906D01*
G01X24351Y5766D01*
G01X24351Y5531D01*
G01X24305Y5390D01*
G01X24258Y5297D01*
G01X24164Y5203D01*
G01X24070Y5156D01*
G01X23882Y5156D01*
G01X23789Y5203D01*
G01X23695Y5297D01*
G01X23648Y5390D01*
G01X23648Y5531D01*
G01X23882Y5531D02*
G01X23648Y5531D01*
G01X22775Y5813D02*
G01X22775Y5156D01*
G01X22775Y5672D02*
G01X22869Y5766D01*
G01X22963Y5813D01*
G01X23104Y5813D01*
G01X23197Y5766D01*
G01X23291Y5672D01*
G01X23338Y5531D01*
G01X23338Y5437D01*
G01X23291Y5297D01*
G01X23197Y5203D01*
G01X23104Y5156D01*
G01X22963Y5156D01*
G01X22869Y5203D01*
G01X22775Y5297D01*
G01X22466Y5813D02*
G01X22466Y5156D01*
G01X22466Y5625D02*
G01X22325Y5766D01*
G01X22231Y5813D01*
G01X22090Y5813D01*
G01X21997Y5766D01*
G01X21950Y5625D01*
G01X21950Y5156D01*
G01X21950Y5625D02*
G01X21809Y5766D01*
G01X21715Y5813D01*
G01X21574Y5813D01*
G01X21481Y5766D01*
G01X21434Y5625D01*
G01X21434Y5156D01*
G01X21124Y5531D02*
G01X20561Y5531D01*
G01X20561Y5625D01*
G01X20608Y5719D01*
G01X20655Y5766D01*
G01X20749Y5813D01*
G01X20890Y5813D01*
G01X20983Y5766D01*
G01X21077Y5672D01*
G01X21124Y5531D01*
G01X21124Y5437D01*
G01X21077Y5297D01*
G01X20983Y5203D01*
G01X20890Y5156D01*
G01X20749Y5156D01*
G01X20655Y5203D01*
G01X20561Y5297D01*
G01X20205Y5906D02*
G01X20205Y5953D01*
G01X20158Y6047D01*
G01X20111Y6094D01*
G01X20017Y6141D01*
G01X19829Y6141D01*
G01X19736Y6094D01*
G01X19689Y6047D01*
G01X19642Y5953D01*
G01X19642Y5859D01*
G01X19689Y5766D01*
G01X19782Y5625D01*
G01X20252Y5156D01*
G01X19595Y5156D01*
G01X19004Y6141D02*
G01X19145Y6094D01*
G01X19238Y5953D01*
G01X19285Y5719D01*
G01X19285Y5578D01*
G01X19238Y5343D01*
G01X19145Y5203D01*
G01X19004Y5156D01*
G01X18910Y5156D01*
G01X18769Y5203D01*
G01X18675Y5343D01*
G01X18629Y5578D01*
G01X18629Y5719D01*
G01X18675Y5953D01*
G01X18769Y6094D01*
G01X18910Y6141D01*
G01X19004Y6141D01*
G01X18272Y5906D02*
G01X18272Y5953D01*
G01X18225Y6047D01*
G01X18178Y6094D01*
G01X18084Y6141D01*
G01X17897Y6141D01*
G01X17803Y6094D01*
G01X17756Y6047D01*
G01X17709Y5953D01*
G01X17709Y5859D01*
G01X17756Y5766D01*
G01X17850Y5625D01*
G01X18319Y5156D01*
G01X17662Y5156D01*
G01X17071Y6141D02*
G01X17212Y6094D01*
G01X17306Y5953D01*
G01X17353Y5719D01*
G01X17353Y5578D01*
G01X17306Y5343D01*
G01X17212Y5203D01*
G01X17071Y5156D01*
G01X16977Y5156D01*
G01X16837Y5203D01*
G01X16743Y5343D01*
G01X16696Y5578D01*
G01X16696Y5719D01*
G01X16743Y5953D01*
G01X16837Y6094D01*
G01X16977Y6141D01*
G01X17071Y6141D01*
G54D33*
G01X87626Y55133D02*
G01X87811Y55318D01*
G01X88088Y55410D01*
G01X88458Y55410D01*
G01X88735Y55318D01*
G01X88920Y55133D01*
G01X88920Y54948D01*
G01X88827Y54763D01*
G01X88735Y54671D01*
G01X88550Y54579D01*
G01X87996Y54394D01*
G01X87811Y54302D01*
G01X87719Y54209D01*
G01X87626Y54025D01*
G01X87626Y53747D01*
G01X87811Y53563D01*
G01X88088Y53470D01*
G01X88458Y53470D01*
G01X88735Y53563D01*
G01X88920Y53747D01*
G01X87017Y54763D02*
G01X87017Y53470D01*
G01X87017Y54394D02*
G01X86740Y54671D01*
G01X86555Y54763D01*
G01X86278Y54763D01*
G01X86093Y54671D01*
G01X86001Y54394D01*
G01X86001Y53470D01*
G01X84283Y54763D02*
G01X84283Y53470D01*
G01X84283Y54486D02*
G01X84468Y54671D01*
G01X84652Y54763D01*
G01X84929Y54763D01*
G01X85114Y54671D01*
G01X85299Y54486D01*
G01X85391Y54209D01*
G01X85391Y54025D01*
G01X85299Y53747D01*
G01X85114Y53563D01*
G01X84929Y53470D01*
G01X84652Y53470D01*
G01X84468Y53563D01*
G01X84283Y53747D01*
G01X83673Y55410D02*
G01X83673Y53470D01*
G01X82750Y54763D02*
G01X83673Y53840D01*
G01X83304Y54209D02*
G01X82657Y53470D01*
G01X82048Y54209D02*
G01X80939Y54209D01*
G01X80939Y54394D01*
G01X81032Y54579D01*
G01X81124Y54671D01*
G01X81309Y54763D01*
G01X81586Y54763D01*
G01X81771Y54671D01*
G01X81955Y54486D01*
G01X82048Y54209D01*
G01X82048Y54025D01*
G01X81955Y53747D01*
G01X81771Y53563D01*
G01X81586Y53470D01*
G01X81309Y53470D01*
G01X81124Y53563D01*
G01X80939Y53747D01*
G01X78944Y54948D02*
G01X79037Y55133D01*
G01X79221Y55318D01*
G01X79406Y55410D01*
G01X79776Y55410D01*
G01X79960Y55318D01*
G01X80145Y55133D01*
G01X80237Y54948D01*
G01X80330Y54671D01*
G01X80330Y54209D01*
G01X80237Y53932D01*
G01X80145Y53747D01*
G01X79960Y53563D01*
G01X79776Y53470D01*
G01X79406Y53470D01*
G01X79221Y53563D01*
G01X79037Y53747D01*
G01X78944Y53932D01*
G01X78944Y54209D01*
G01X79406Y54209D02*
G01X78944Y54209D01*
G01X77226Y54763D02*
G01X77226Y53470D01*
G01X77226Y54486D02*
G01X77411Y54671D01*
G01X77596Y54763D01*
G01X77873Y54763D01*
G01X78058Y54671D01*
G01X78242Y54486D01*
G01X78335Y54209D01*
G01X78335Y54025D01*
G01X78242Y53747D01*
G01X78058Y53563D01*
G01X77873Y53470D01*
G01X77596Y53470D01*
G01X77411Y53563D01*
G01X77226Y53747D01*
G01X76617Y54763D02*
G01X76617Y53470D01*
G01X76617Y54394D02*
G01X76340Y54671D01*
G01X76155Y54763D01*
G01X75878Y54763D01*
G01X75693Y54671D01*
G01X75601Y54394D01*
G01X75601Y53470D01*
G01X75601Y54394D02*
G01X75324Y54671D01*
G01X75139Y54763D01*
G01X74862Y54763D01*
G01X74677Y54671D01*
G01X74585Y54394D01*
G01X74585Y53470D01*
G01X73975Y54209D02*
G01X72867Y54209D01*
G01X72867Y54394D01*
G01X72959Y54579D01*
G01X73051Y54671D01*
G01X73236Y54763D01*
G01X73513Y54763D01*
G01X73698Y54671D01*
G01X73883Y54486D01*
G01X73975Y54209D01*
G01X73975Y54025D01*
G01X73883Y53747D01*
G01X73698Y53563D01*
G01X73513Y53470D01*
G01X73236Y53470D01*
G01X73051Y53563D01*
G01X72867Y53747D01*
G01X72257Y55410D02*
G01X72257Y53470D01*
G01X72257Y55410D02*
G01X71426Y55410D01*
G01X71149Y55318D01*
G01X71056Y55225D01*
G01X70964Y55041D01*
G01X70964Y54763D01*
G01X71056Y54579D01*
G01X71149Y54486D01*
G01X71426Y54394D01*
G01X72257Y54394D01*
G01X68969Y54948D02*
G01X69061Y55133D01*
G01X69246Y55318D01*
G01X69431Y55410D01*
G01X69800Y55410D01*
G01X69985Y55318D01*
G01X70170Y55133D01*
G01X70262Y54948D01*
G01X70354Y54671D01*
G01X70354Y54209D01*
G01X70262Y53932D01*
G01X70170Y53747D01*
G01X69985Y53563D01*
G01X69800Y53470D01*
G01X69431Y53470D01*
G01X69246Y53563D01*
G01X69061Y53747D01*
G01X68969Y53932D01*
G01X68359Y55410D02*
G01X68359Y53470D01*
G01X68359Y55410D02*
G01X67528Y55410D01*
G01X67251Y55318D01*
G01X67159Y55225D01*
G01X67066Y55041D01*
G01X67066Y54856D01*
G01X67159Y54671D01*
G01X67251Y54579D01*
G01X67528Y54486D01*
G01X68359Y54486D02*
G01X67528Y54486D01*
G01X67251Y54394D01*
G01X67159Y54302D01*
G01X67066Y54117D01*
G01X67066Y53840D01*
G01X67159Y53655D01*
G01X67251Y53563D01*
G01X67528Y53470D01*
G01X68359Y53470D01*
G01X65034Y54763D02*
G01X65034Y53470D01*
G01X65034Y54394D02*
G01X64757Y54671D01*
G01X64572Y54763D01*
G01X64295Y54763D01*
G01X64111Y54671D01*
G01X64018Y54394D01*
G01X64018Y53470D01*
G01X64018Y54394D02*
G01X63741Y54671D01*
G01X63556Y54763D01*
G01X63279Y54763D01*
G01X63095Y54671D01*
G01X63002Y54394D01*
G01X63002Y53470D01*
G01X61284Y54763D02*
G01X61284Y53470D01*
G01X61284Y54486D02*
G01X61469Y54671D01*
G01X61654Y54763D01*
G01X61931Y54763D01*
G01X62116Y54671D01*
G01X62300Y54486D01*
G01X62393Y54209D01*
G01X62393Y54025D01*
G01X62300Y53747D01*
G01X62116Y53563D01*
G01X61931Y53470D01*
G01X61654Y53470D01*
G01X61469Y53563D01*
G01X61284Y53747D01*
G01X59566Y55410D02*
G01X59566Y53470D01*
G01X59566Y54486D02*
G01X59751Y54671D01*
G01X59936Y54763D01*
G01X60213Y54763D01*
G01X60398Y54671D01*
G01X60582Y54486D01*
G01X60675Y54209D01*
G01X60675Y54025D01*
G01X60582Y53747D01*
G01X60398Y53563D01*
G01X60213Y53470D01*
G01X59936Y53470D01*
G01X59751Y53563D01*
G01X59566Y53747D01*
G01X58957Y54209D02*
G01X57848Y54209D01*
G01X57848Y54394D01*
G01X57941Y54579D01*
G01X58033Y54671D01*
G01X58218Y54763D01*
G01X58495Y54763D01*
G01X58680Y54671D01*
G01X58864Y54486D01*
G01X58957Y54209D01*
G01X58957Y54025D01*
G01X58864Y53747D01*
G01X58680Y53563D01*
G01X58495Y53470D01*
G01X58218Y53470D01*
G01X58033Y53563D01*
G01X57848Y53747D01*
G01X55816Y55410D02*
G01X55816Y53470D01*
G01X55816Y54486D02*
G01X55632Y54671D01*
G01X55447Y54763D01*
G01X55170Y54763D01*
G01X54985Y54671D01*
G01X54800Y54486D01*
G01X54708Y54209D01*
G01X54708Y54025D01*
G01X54800Y53747D01*
G01X54985Y53563D01*
G01X55170Y53470D01*
G01X55447Y53470D01*
G01X55632Y53563D01*
G01X55816Y53747D01*
G01X54006Y54763D02*
G01X53452Y53470D01*
G01X52898Y54763D02*
G01X53452Y53470D01*
G01X53637Y53101D01*
G01X53821Y52916D01*
G01X54006Y52824D01*
G01X54098Y52824D01*
G01X76220Y52870D02*
G01X76220Y50930D01*
G01X76220Y52870D02*
G01X75388Y52870D01*
G01X75111Y52778D01*
G01X75019Y52685D01*
G01X74926Y52501D01*
G01X74926Y52223D01*
G01X75019Y52039D01*
G01X75111Y51946D01*
G01X75388Y51854D01*
G01X76220Y51854D01*
G01X74317Y52870D02*
G01X74317Y50930D01*
G01X74317Y51854D02*
G01X74040Y52131D01*
G01X73855Y52223D01*
G01X73578Y52223D01*
G01X73393Y52131D01*
G01X73301Y51854D01*
G01X73301Y50930D01*
G01X72691Y52870D02*
G01X72599Y52778D01*
G01X72506Y52870D01*
G01X72599Y52962D01*
G01X72691Y52870D01*
G01X72599Y52223D02*
G01X72599Y50930D01*
G01X71897Y52870D02*
G01X71897Y50930D01*
G01X71287Y52870D02*
G01X71195Y52778D01*
G01X71103Y52870D01*
G01X71195Y52962D01*
G01X71287Y52870D01*
G01X71195Y52223D02*
G01X71195Y50930D01*
G01X70493Y52223D02*
G01X70493Y50284D01*
G01X70493Y51946D02*
G01X70308Y52131D01*
G01X70124Y52223D01*
G01X69846Y52223D01*
G01X69662Y52131D01*
G01X69477Y51946D01*
G01X69385Y51669D01*
G01X69385Y51485D01*
G01X69477Y51207D01*
G01X69662Y51023D01*
G01X69846Y50930D01*
G01X70124Y50930D01*
G01X70308Y51023D01*
G01X70493Y51207D01*
G01X67353Y52870D02*
G01X67353Y50930D01*
G01X66060Y52870D02*
G01X67353Y51577D01*
G01X66891Y52039D02*
G01X66060Y50930D01*
G01X80192Y49684D02*
G01X80192Y48391D01*
G01X80192Y49407D02*
G01X80375Y49590D01*
G01X80560Y49684D01*
G01X80837Y49684D01*
G01X81023Y49590D01*
G01X81208Y49407D01*
G01X81300Y49130D01*
G01X81300Y48945D01*
G01X81208Y48668D01*
G01X81023Y48483D01*
G01X80837Y48391D01*
G01X80560Y48391D01*
G01X80375Y48483D01*
G01X80192Y48668D01*
G01X79582Y49684D02*
G01X79582Y48391D01*
G01X79582Y49313D02*
G01X79306Y49590D01*
G01X79120Y49684D01*
G01X78843Y49684D01*
G01X78658Y49590D01*
G01X78566Y49313D01*
G01X78566Y48391D01*
G01X76847Y50329D02*
G01X76847Y48391D01*
G01X76847Y49407D02*
G01X77032Y49590D01*
G01X77218Y49684D01*
G01X77495Y49684D01*
G01X77680Y49590D01*
G01X77863Y49407D01*
G01X77957Y49130D01*
G01X77957Y48945D01*
G01X77863Y48668D01*
G01X77680Y48483D01*
G01X77495Y48391D01*
G01X77218Y48391D01*
G01X77032Y48483D01*
G01X76847Y48668D01*
G01X74815Y50329D02*
G01X74815Y48391D01*
G01X73522Y50329D02*
G01X73522Y48391D01*
G01X74815Y49407D02*
G01X73522Y49407D01*
G01X71805Y49684D02*
G01X71805Y48391D01*
G01X71805Y49407D02*
G01X71990Y49590D01*
G01X72173Y49684D01*
G01X72450Y49684D01*
G01X72636Y49590D01*
G01X72821Y49407D01*
G01X72912Y49130D01*
G01X72912Y48945D01*
G01X72821Y48668D01*
G01X72636Y48483D01*
G01X72450Y48391D01*
G01X72173Y48391D01*
G01X71990Y48483D01*
G01X71805Y48668D01*
G01X71195Y49684D02*
G01X71195Y48391D01*
G01X71195Y49313D02*
G01X70919Y49590D01*
G01X70733Y49684D01*
G01X70456Y49684D01*
G01X70271Y49590D01*
G01X70179Y49313D01*
G01X70179Y48391D01*
G01X69570Y49684D02*
G01X69570Y48391D01*
G01X69570Y49313D02*
G01X69293Y49590D01*
G01X69108Y49684D01*
G01X68831Y49684D01*
G01X68645Y49590D01*
G01X68554Y49313D01*
G01X68554Y48391D01*
G01X66834Y49684D02*
G01X66834Y48391D01*
G01X66834Y49407D02*
G01X67020Y49590D01*
G01X67205Y49684D01*
G01X67482Y49684D01*
G01X67667Y49590D01*
G01X67850Y49407D01*
G01X67944Y49130D01*
G01X67944Y48945D01*
G01X67850Y48668D01*
G01X67667Y48483D01*
G01X67482Y48391D01*
G01X67205Y48391D01*
G01X67020Y48483D01*
G01X66834Y48668D01*
G01X66225Y50329D02*
G01X66225Y48391D01*
G01X66225Y49313D02*
G01X65948Y49590D01*
G01X65765Y49684D01*
G01X65488Y49684D01*
G01X65303Y49590D01*
G01X65209Y49313D01*
G01X65209Y48391D01*
G01X63177Y50329D02*
G01X63177Y48391D01*
G01X61884Y50329D02*
G01X63177Y49036D01*
G01X62717Y49499D02*
G01X61884Y48391D01*
G54D34*
G01X57043Y21239D02*
G01X57043Y20149D01*
G01X57043Y21239D02*
G01X56575Y21239D01*
G01X56420Y21188D01*
G01X56367Y21135D01*
G01X56316Y21030D01*
G01X56316Y20926D01*
G01X56367Y20822D01*
G01X56420Y20771D01*
G01X56575Y20720D01*
G01X57043Y20720D01*
G01X56679Y20720D02*
G01X56316Y20149D01*
G01X55973Y21030D02*
G01X55869Y21084D01*
G01X55712Y21239D01*
G01X55712Y20149D01*
G01X54693Y20875D02*
G01X54746Y20720D01*
G01X54850Y20616D01*
G01X55005Y20563D01*
G01X55059Y20563D01*
G01X55214Y20616D01*
G01X55318Y20720D01*
G01X55369Y20875D01*
G01X55369Y20926D01*
G01X55318Y21084D01*
G01X55214Y21188D01*
G01X55059Y21239D01*
G01X55005Y21239D01*
G01X54850Y21188D01*
G01X54746Y21084D01*
G01X54693Y20875D01*
G01X54693Y20616D01*
G01X54746Y20355D01*
G01X54850Y20200D01*
G01X55005Y20149D01*
G01X55110Y20149D01*
G01X55265Y20200D01*
G01X55318Y20304D01*
G01X62377Y21239D02*
G01X62377Y20149D01*
G01X62377Y21239D02*
G01X61909Y21239D01*
G01X61754Y21188D01*
G01X61701Y21135D01*
G01X61650Y21030D01*
G01X61650Y20926D01*
G01X61701Y20822D01*
G01X61754Y20771D01*
G01X61909Y20720D01*
G01X62377Y20720D01*
G01X62013Y20720D02*
G01X61650Y20149D01*
G01X61254Y20980D02*
G01X61254Y21030D01*
G01X61203Y21135D01*
G01X61150Y21188D01*
G01X61046Y21239D01*
G01X60840Y21239D01*
G01X60736Y21188D01*
G01X60682Y21135D01*
G01X60632Y21030D01*
G01X60632Y20926D01*
G01X60682Y20822D01*
G01X60786Y20667D01*
G01X61307Y20149D01*
G01X60578Y20149D01*
G01X59925Y21239D02*
G01X60080Y21188D01*
G01X60184Y21030D01*
G01X60235Y20771D01*
G01X60235Y20616D01*
G01X60184Y20355D01*
G01X60080Y20200D01*
G01X59925Y20149D01*
G01X59821Y20149D01*
G01X59664Y20200D01*
G01X59560Y20355D01*
G01X59509Y20616D01*
G01X59509Y20771D01*
G01X59560Y21030D01*
G01X59664Y21188D01*
G01X59821Y21239D01*
G01X59925Y21239D01*
G01X67203Y21366D02*
G01X67203Y20276D01*
G01X67203Y21366D02*
G01X66735Y21366D01*
G01X66580Y21315D01*
G01X66527Y21262D01*
G01X66476Y21157D01*
G01X66476Y21053D01*
G01X66527Y20949D01*
G01X66580Y20898D01*
G01X66735Y20847D01*
G01X67203Y20847D01*
G01X66839Y20847D02*
G01X66476Y20276D01*
G01X66080Y21107D02*
G01X66080Y21157D01*
G01X66029Y21262D01*
G01X65976Y21315D01*
G01X65872Y21366D01*
G01X65666Y21366D01*
G01X65562Y21315D01*
G01X65508Y21262D01*
G01X65458Y21157D01*
G01X65458Y21053D01*
G01X65508Y20949D01*
G01X65612Y20794D01*
G01X66133Y20276D01*
G01X65404Y20276D01*
G01X65061Y21157D02*
G01X64957Y21211D01*
G01X64802Y21366D01*
G01X64802Y20276D01*
G01X72410Y21366D02*
G01X72410Y20276D01*
G01X72410Y21366D02*
G01X71942Y21366D01*
G01X71787Y21315D01*
G01X71734Y21262D01*
G01X71683Y21157D01*
G01X71683Y21053D01*
G01X71734Y20949D01*
G01X71787Y20898D01*
G01X71942Y20847D01*
G01X72410Y20847D01*
G01X72046Y20847D02*
G01X71683Y20276D01*
G01X71287Y21107D02*
G01X71287Y21157D01*
G01X71236Y21262D01*
G01X71183Y21315D01*
G01X71079Y21366D01*
G01X70873Y21366D01*
G01X70769Y21315D01*
G01X70715Y21262D01*
G01X70665Y21157D01*
G01X70665Y21053D01*
G01X70715Y20949D01*
G01X70819Y20794D01*
G01X71340Y20276D01*
G01X70611Y20276D01*
G01X70217Y21107D02*
G01X70217Y21157D01*
G01X70164Y21262D01*
G01X70113Y21315D01*
G01X70009Y21366D01*
G01X69801Y21366D01*
G01X69697Y21315D01*
G01X69646Y21262D01*
G01X69593Y21157D01*
G01X69593Y21053D01*
G01X69646Y20949D01*
G01X69750Y20794D01*
G01X70268Y20276D01*
G01X69542Y20276D01*
G01X77617Y21366D02*
G01X77617Y20276D01*
G01X77617Y21366D02*
G01X77149Y21366D01*
G01X76994Y21315D01*
G01X76941Y21262D01*
G01X76890Y21157D01*
G01X76890Y21053D01*
G01X76941Y20949D01*
G01X76994Y20898D01*
G01X77149Y20847D01*
G01X77617Y20847D01*
G01X77253Y20847D02*
G01X76890Y20276D01*
G01X76494Y21107D02*
G01X76494Y21157D01*
G01X76443Y21262D01*
G01X76390Y21315D01*
G01X76286Y21366D01*
G01X76080Y21366D01*
G01X75976Y21315D01*
G01X75922Y21262D01*
G01X75872Y21157D01*
G01X75872Y21053D01*
G01X75922Y20949D01*
G01X76026Y20794D01*
G01X76547Y20276D01*
G01X75818Y20276D01*
G01X75371Y21366D02*
G01X74800Y21366D01*
G01X75112Y20949D01*
G01X74957Y20949D01*
G01X74853Y20898D01*
G01X74800Y20847D01*
G01X74749Y20690D01*
G01X74749Y20586D01*
G01X74800Y20431D01*
G01X74904Y20327D01*
G01X75061Y20276D01*
G01X75216Y20276D01*
G01X75371Y20327D01*
G01X75424Y20378D01*
G01X75475Y20482D01*
G01X82570Y21366D02*
G01X82570Y20276D01*
G01X82570Y21366D02*
G01X82102Y21366D01*
G01X81947Y21315D01*
G01X81894Y21262D01*
G01X81843Y21157D01*
G01X81843Y21053D01*
G01X81894Y20949D01*
G01X81947Y20898D01*
G01X82102Y20847D01*
G01X82570Y20847D01*
G01X82206Y20847D02*
G01X81843Y20276D01*
G01X81447Y21107D02*
G01X81447Y21157D01*
G01X81396Y21262D01*
G01X81343Y21315D01*
G01X81239Y21366D01*
G01X81033Y21366D01*
G01X80929Y21315D01*
G01X80875Y21262D01*
G01X80825Y21157D01*
G01X80825Y21053D01*
G01X80875Y20949D01*
G01X80979Y20794D01*
G01X81500Y20276D01*
G01X80771Y20276D01*
G01X79910Y21366D02*
G01X80428Y20639D01*
G01X79649Y20639D01*
G01X79910Y21366D02*
G01X79910Y20276D01*
G01X87777Y21366D02*
G01X87777Y20276D01*
G01X87777Y21366D02*
G01X87309Y21366D01*
G01X87154Y21315D01*
G01X87101Y21262D01*
G01X87050Y21157D01*
G01X87050Y21053D01*
G01X87101Y20949D01*
G01X87154Y20898D01*
G01X87309Y20847D01*
G01X87777Y20847D01*
G01X87413Y20847D02*
G01X87050Y20276D01*
G01X86654Y21107D02*
G01X86654Y21157D01*
G01X86603Y21262D01*
G01X86550Y21315D01*
G01X86446Y21366D01*
G01X86240Y21366D01*
G01X86136Y21315D01*
G01X86082Y21262D01*
G01X86032Y21157D01*
G01X86032Y21053D01*
G01X86082Y20949D01*
G01X86186Y20794D01*
G01X86707Y20276D01*
G01X85978Y20276D01*
G01X85013Y21366D02*
G01X85531Y21366D01*
G01X85584Y20898D01*
G01X85531Y20949D01*
G01X85376Y21002D01*
G01X85221Y21002D01*
G01X85064Y20949D01*
G01X84960Y20847D01*
G01X84909Y20690D01*
G01X84909Y20586D01*
G01X84960Y20431D01*
G01X85064Y20327D01*
G01X85221Y20276D01*
G01X85376Y20276D01*
G01X85531Y20327D01*
G01X85584Y20378D01*
G01X85635Y20482D01*
G01X129882Y21493D02*
G01X129986Y21442D01*
G01X130090Y21338D01*
G01X130144Y21233D01*
G01X130195Y21076D01*
G01X130195Y20817D01*
G01X130144Y20662D01*
G01X130090Y20558D01*
G01X129986Y20454D01*
G01X129882Y20403D01*
G01X129674Y20403D01*
G01X129572Y20454D01*
G01X129468Y20558D01*
G01X129415Y20662D01*
G01X129364Y20817D01*
G01X129364Y21076D01*
G01X129415Y21233D01*
G01X129468Y21338D01*
G01X129572Y21442D01*
G01X129674Y21493D01*
G01X129882Y21493D01*
G01X129727Y20609D02*
G01X129415Y20299D01*
G01X128396Y21493D02*
G01X128917Y21493D01*
G01X128968Y21025D01*
G01X128917Y21076D01*
G01X128759Y21129D01*
G01X128605Y21129D01*
G01X128450Y21076D01*
G01X128345Y20974D01*
G01X128292Y20817D01*
G01X128292Y20713D01*
G01X128345Y20558D01*
G01X128450Y20454D01*
G01X128605Y20403D01*
G01X128759Y20403D01*
G01X128917Y20454D01*
G01X128968Y20504D01*
G01X129021Y20609D01*
G01X50253Y25811D02*
G01X50357Y25760D01*
G01X50461Y25656D01*
G01X50515Y25551D01*
G01X50566Y25394D01*
G01X50566Y25135D01*
G01X50515Y24980D01*
G01X50461Y24876D01*
G01X50357Y24772D01*
G01X50253Y24721D01*
G01X50045Y24721D01*
G01X49943Y24772D01*
G01X49839Y24876D01*
G01X49786Y24980D01*
G01X49735Y25135D01*
G01X49735Y25394D01*
G01X49786Y25551D01*
G01X49839Y25656D01*
G01X49943Y25760D01*
G01X50045Y25811D01*
G01X50253Y25811D01*
G01X50098Y24927D02*
G01X49786Y24617D01*
G01X49392Y25602D02*
G01X49288Y25656D01*
G01X49130Y25811D01*
G01X49130Y24721D01*
G01X50380Y20731D02*
G01X50484Y20680D01*
G01X50588Y20576D01*
G01X50642Y20471D01*
G01X50693Y20314D01*
G01X50693Y20055D01*
G01X50642Y19900D01*
G01X50588Y19796D01*
G01X50484Y19692D01*
G01X50380Y19641D01*
G01X50172Y19641D01*
G01X50070Y19692D01*
G01X49966Y19796D01*
G01X49913Y19900D01*
G01X49862Y20055D01*
G01X49862Y20314D01*
G01X49913Y20471D01*
G01X49966Y20576D01*
G01X50070Y20680D01*
G01X50172Y20731D01*
G01X50380Y20731D01*
G01X50225Y19847D02*
G01X49913Y19537D01*
G01X49466Y20471D02*
G01X49466Y20522D01*
G01X49415Y20626D01*
G01X49362Y20680D01*
G01X49257Y20731D01*
G01X49052Y20731D01*
G01X48948Y20680D01*
G01X48894Y20626D01*
G01X48843Y20522D01*
G01X48843Y20418D01*
G01X48894Y20314D01*
G01X48998Y20159D01*
G01X49519Y19641D01*
G01X48790Y19641D01*
G01X50507Y15651D02*
G01X50611Y15600D01*
G01X50715Y15496D01*
G01X50769Y15391D01*
G01X50820Y15234D01*
G01X50820Y14975D01*
G01X50769Y14820D01*
G01X50715Y14716D01*
G01X50611Y14612D01*
G01X50507Y14561D01*
G01X50299Y14561D01*
G01X50197Y14612D01*
G01X50093Y14716D01*
G01X50040Y14820D01*
G01X49989Y14975D01*
G01X49989Y15234D01*
G01X50040Y15391D01*
G01X50093Y15496D01*
G01X50197Y15600D01*
G01X50299Y15651D01*
G01X50507Y15651D01*
G01X50352Y14767D02*
G01X50040Y14457D01*
G01X49542Y15651D02*
G01X48970Y15651D01*
G01X49283Y15234D01*
G01X49125Y15234D01*
G01X49021Y15183D01*
G01X48970Y15132D01*
G01X48917Y14975D01*
G01X48917Y14871D01*
G01X48970Y14716D01*
G01X49075Y14612D01*
G01X49230Y14561D01*
G01X49384Y14561D01*
G01X49542Y14612D01*
G01X49593Y14662D01*
G01X49646Y14767D01*
G01X46883Y24033D02*
G01X46883Y22943D01*
G01X46883Y24033D02*
G01X46415Y24033D01*
G01X46260Y23982D01*
G01X46207Y23929D01*
G01X46156Y23824D01*
G01X46156Y23720D01*
G01X46207Y23616D01*
G01X46260Y23565D01*
G01X46415Y23514D01*
G01X46883Y23514D01*
G01X46519Y23514D02*
G01X46156Y22943D01*
G01X45138Y23669D02*
G01X45188Y23514D01*
G01X45292Y23410D01*
G01X45447Y23357D01*
G01X45501Y23357D01*
G01X45656Y23410D01*
G01X45760Y23514D01*
G01X45813Y23669D01*
G01X45813Y23720D01*
G01X45760Y23878D01*
G01X45656Y23982D01*
G01X45501Y24033D01*
G01X45447Y24033D01*
G01X45292Y23982D01*
G01X45188Y23878D01*
G01X45138Y23669D01*
G01X45138Y23410D01*
G01X45188Y23149D01*
G01X45292Y22994D01*
G01X45447Y22943D01*
G01X45552Y22943D01*
G01X45709Y22994D01*
G01X45760Y23098D01*
G01X47010Y18953D02*
G01X47010Y17863D01*
G01X47010Y18953D02*
G01X46542Y18953D01*
G01X46387Y18902D01*
G01X46334Y18849D01*
G01X46283Y18744D01*
G01X46283Y18640D01*
G01X46334Y18536D01*
G01X46387Y18485D01*
G01X46542Y18434D01*
G01X47010Y18434D01*
G01X46646Y18434D02*
G01X46283Y17863D01*
G01X45940Y18744D02*
G01X45836Y18798D01*
G01X45679Y18953D01*
G01X45679Y17863D01*
G01X45026Y18953D02*
G01X45181Y18902D01*
G01X45285Y18744D01*
G01X45336Y18485D01*
G01X45336Y18330D01*
G01X45285Y18069D01*
G01X45181Y17914D01*
G01X45026Y17863D01*
G01X44922Y17863D01*
G01X44764Y17914D01*
G01X44660Y18069D01*
G01X44609Y18330D01*
G01X44609Y18485D01*
G01X44660Y18744D01*
G01X44764Y18902D01*
G01X44922Y18953D01*
G01X45026Y18953D01*
G01X47010Y13873D02*
G01X47010Y12783D01*
G01X47010Y13873D02*
G01X46542Y13873D01*
G01X46387Y13822D01*
G01X46334Y13769D01*
G01X46283Y13664D01*
G01X46283Y13560D01*
G01X46334Y13456D01*
G01X46387Y13405D01*
G01X46542Y13354D01*
G01X47010Y13354D01*
G01X46646Y13354D02*
G01X46283Y12783D01*
G01X45940Y13664D02*
G01X45836Y13718D01*
G01X45679Y13873D01*
G01X45679Y12783D01*
G01X45336Y13664D02*
G01X45232Y13718D01*
G01X45077Y13873D01*
G01X45077Y12783D01*
G01X131846Y16540D02*
G01X131846Y15450D01*
G01X131846Y16540D02*
G01X131378Y16540D01*
G01X131223Y16489D01*
G01X131170Y16436D01*
G01X131119Y16331D01*
G01X131119Y16227D01*
G01X131170Y16123D01*
G01X131223Y16072D01*
G01X131378Y16021D01*
G01X131846Y16021D01*
G01X131482Y16021D02*
G01X131119Y15450D01*
G01X130776Y16331D02*
G01X130672Y16385D01*
G01X130515Y16540D01*
G01X130515Y15450D01*
G01X130121Y16281D02*
G01X130121Y16331D01*
G01X130068Y16436D01*
G01X130017Y16489D01*
G01X129913Y16540D01*
G01X129704Y16540D01*
G01X129600Y16489D01*
G01X129549Y16436D01*
G01X129496Y16331D01*
G01X129496Y16227D01*
G01X129549Y16123D01*
G01X129653Y15968D01*
G01X130172Y15450D01*
G01X129445Y15450D01*
G01X21356Y40924D02*
G01X21356Y39834D01*
G01X21356Y40924D02*
G01X20888Y40924D01*
G01X20733Y40873D01*
G01X20680Y40820D01*
G01X20629Y40715D01*
G01X20629Y40611D01*
G01X20680Y40507D01*
G01X20733Y40456D01*
G01X20888Y40405D01*
G01X21356Y40405D01*
G01X20992Y40405D02*
G01X20629Y39834D01*
G01X20286Y40715D02*
G01X20182Y40769D01*
G01X20025Y40924D01*
G01X20025Y39834D01*
G01X19059Y40924D02*
G01X19578Y40924D01*
G01X19631Y40456D01*
G01X19578Y40507D01*
G01X19423Y40560D01*
G01X19268Y40560D01*
G01X19110Y40507D01*
G01X19006Y40405D01*
G01X18955Y40248D01*
G01X18955Y40144D01*
G01X19006Y39989D01*
G01X19110Y39885D01*
G01X19268Y39834D01*
G01X19423Y39834D01*
G01X19578Y39885D01*
G01X19631Y39936D01*
G01X19682Y40040D01*
G01X13863Y33304D02*
G01X13863Y32214D01*
G01X13863Y33304D02*
G01X13395Y33304D01*
G01X13240Y33253D01*
G01X13187Y33200D01*
G01X13136Y33095D01*
G01X13136Y32991D01*
G01X13187Y32887D01*
G01X13240Y32836D01*
G01X13395Y32785D01*
G01X13863Y32785D01*
G01X13499Y32785D02*
G01X13136Y32214D01*
G01X12793Y33095D02*
G01X12689Y33149D01*
G01X12532Y33304D01*
G01X12532Y32214D01*
G01X11462Y33304D02*
G01X11983Y32214D01*
G01X12189Y33304D02*
G01X11462Y33304D01*
G01X21356Y26192D02*
G01X21356Y25102D01*
G01X21356Y26192D02*
G01X20888Y26192D01*
G01X20733Y26141D01*
G01X20680Y26088D01*
G01X20629Y25983D01*
G01X20629Y25879D01*
G01X20680Y25775D01*
G01X20733Y25724D01*
G01X20888Y25673D01*
G01X21356Y25673D01*
G01X20992Y25673D02*
G01X20629Y25102D01*
G01X20286Y25983D02*
G01X20182Y26037D01*
G01X20025Y26192D01*
G01X20025Y25102D01*
G01X19423Y26192D02*
G01X19578Y26141D01*
G01X19631Y26037D01*
G01X19631Y25933D01*
G01X19578Y25828D01*
G01X19476Y25775D01*
G01X19268Y25724D01*
G01X19110Y25673D01*
G01X19006Y25569D01*
G01X18955Y25465D01*
G01X18955Y25308D01*
G01X19006Y25204D01*
G01X19059Y25153D01*
G01X19214Y25102D01*
G01X19423Y25102D01*
G01X19578Y25153D01*
G01X19631Y25204D01*
G01X19682Y25308D01*
G01X19682Y25465D01*
G01X19631Y25569D01*
G01X19527Y25673D01*
G01X19372Y25724D01*
G01X19163Y25775D01*
G01X19059Y25828D01*
G01X19006Y25933D01*
G01X19006Y26037D01*
G01X19059Y26141D01*
G01X19214Y26192D01*
G01X19423Y26192D01*
G01X32659Y35082D02*
G01X32659Y33992D01*
G01X32659Y35082D02*
G01X32191Y35082D01*
G01X32036Y35031D01*
G01X31983Y34978D01*
G01X31932Y34873D01*
G01X31932Y34769D01*
G01X31983Y34665D01*
G01X32036Y34614D01*
G01X32191Y34563D01*
G01X32659Y34563D01*
G01X32295Y34563D02*
G01X31932Y33992D01*
G01X31589Y34873D02*
G01X31485Y34927D01*
G01X31328Y35082D01*
G01X31328Y33992D01*
G01X30362Y34927D02*
G01X30413Y35031D01*
G01X30571Y35082D01*
G01X30675Y35082D01*
G01X30830Y35031D01*
G01X30934Y34873D01*
G01X30985Y34614D01*
G01X30985Y34355D01*
G01X30934Y34147D01*
G01X30830Y34043D01*
G01X30675Y33992D01*
G01X30621Y33992D01*
G01X30466Y34043D01*
G01X30362Y34147D01*
G01X30309Y34302D01*
G01X30309Y34355D01*
G01X30362Y34510D01*
G01X30466Y34614D01*
G01X30621Y34665D01*
G01X30675Y34665D01*
G01X30830Y34614D01*
G01X30934Y34510D01*
G01X30985Y34355D01*
G01X104287Y52735D02*
G01X104287Y51645D01*
G01X104287Y52735D02*
G01X103819Y52735D01*
G01X103664Y52684D01*
G01X103611Y52631D01*
G01X103560Y52526D01*
G01X103560Y52422D01*
G01X103611Y52318D01*
G01X103664Y52267D01*
G01X103819Y52216D01*
G01X104287Y52216D01*
G01X103923Y52216D02*
G01X103560Y51645D01*
G01X103217Y52526D02*
G01X103113Y52580D01*
G01X102956Y52735D01*
G01X102956Y51645D01*
G01X28013Y30685D02*
G01X28066Y30789D01*
G01X28170Y30893D01*
G01X28272Y30944D01*
G01X28480Y30944D01*
G01X28584Y30893D01*
G01X28688Y30789D01*
G01X28742Y30685D01*
G01X28793Y30527D01*
G01X28793Y30268D01*
G01X28742Y30113D01*
G01X28688Y30009D01*
G01X28584Y29905D01*
G01X28480Y29854D01*
G01X28272Y29854D01*
G01X28170Y29905D01*
G01X28066Y30009D01*
G01X28013Y30113D01*
G01X27048Y30944D02*
G01X27566Y30944D01*
G01X27619Y30477D01*
G01X27566Y30527D01*
G01X27411Y30581D01*
G01X27256Y30581D01*
G01X27098Y30527D01*
G01X26994Y30426D01*
G01X26944Y30268D01*
G01X26944Y30164D01*
G01X26994Y30009D01*
G01X27098Y29905D01*
G01X27256Y29854D01*
G01X27411Y29854D01*
G01X27566Y29905D01*
G01X27619Y29956D01*
G01X27670Y30060D01*
G01X20068Y23520D02*
G01X20121Y23624D01*
G01X20225Y23728D01*
G01X20327Y23779D01*
G01X20535Y23779D01*
G01X20639Y23728D01*
G01X20743Y23624D01*
G01X20797Y23520D01*
G01X20848Y23362D01*
G01X20848Y23103D01*
G01X20797Y22948D01*
G01X20743Y22844D01*
G01X20639Y22740D01*
G01X20535Y22689D01*
G01X20327Y22689D01*
G01X20225Y22740D01*
G01X20121Y22844D01*
G01X20068Y22948D01*
G01X19103Y23624D02*
G01X19153Y23728D01*
G01X19311Y23779D01*
G01X19412Y23779D01*
G01X19570Y23728D01*
G01X19674Y23570D01*
G01X19725Y23311D01*
G01X19725Y23052D01*
G01X19674Y22844D01*
G01X19570Y22740D01*
G01X19412Y22689D01*
G01X19362Y22689D01*
G01X19207Y22740D01*
G01X19103Y22844D01*
G01X19049Y22999D01*
G01X19049Y23052D01*
G01X19103Y23207D01*
G01X19207Y23311D01*
G01X19362Y23362D01*
G01X19412Y23362D01*
G01X19570Y23311D01*
G01X19674Y23207D01*
G01X19725Y23052D01*
G01X12702Y30759D02*
G01X12755Y30863D01*
G01X12859Y30967D01*
G01X12961Y31018D01*
G01X13169Y31018D01*
G01X13273Y30967D01*
G01X13377Y30863D01*
G01X13431Y30759D01*
G01X13482Y30601D01*
G01X13482Y30342D01*
G01X13431Y30187D01*
G01X13377Y30083D01*
G01X13273Y29979D01*
G01X13169Y29928D01*
G01X12961Y29928D01*
G01X12859Y29979D01*
G01X12755Y30083D01*
G01X12702Y30187D01*
G01X11632Y31018D02*
G01X12151Y29928D01*
G01X12359Y31018D02*
G01X11632Y31018D01*
G01X20195Y38379D02*
G01X20248Y38483D01*
G01X20352Y38587D01*
G01X20454Y38638D01*
G01X20662Y38638D01*
G01X20766Y38587D01*
G01X20870Y38483D01*
G01X20924Y38379D01*
G01X20975Y38221D01*
G01X20975Y37962D01*
G01X20924Y37807D01*
G01X20870Y37703D01*
G01X20766Y37599D01*
G01X20662Y37548D01*
G01X20454Y37548D01*
G01X20352Y37599D01*
G01X20248Y37703D01*
G01X20195Y37807D01*
G01X19593Y38638D02*
G01X19748Y38587D01*
G01X19801Y38483D01*
G01X19801Y38379D01*
G01X19748Y38274D01*
G01X19644Y38221D01*
G01X19438Y38170D01*
G01X19280Y38119D01*
G01X19176Y38015D01*
G01X19125Y37911D01*
G01X19125Y37754D01*
G01X19176Y37650D01*
G01X19230Y37599D01*
G01X19384Y37548D01*
G01X19593Y37548D01*
G01X19748Y37599D01*
G01X19801Y37650D01*
G01X19852Y37754D01*
G01X19852Y37911D01*
G01X19801Y38015D01*
G01X19697Y38119D01*
G01X19539Y38170D01*
G01X19334Y38221D01*
G01X19230Y38274D01*
G01X19176Y38379D01*
G01X19176Y38483D01*
G01X19230Y38587D01*
G01X19384Y38638D01*
G01X19593Y38638D01*
M00*
M02*
