G04 Layer: BottomPasteMaskLayer*
G04 EasyEDA v6.3.22, 2020-04-19T15:25:33+02:00*
G04 9585e20cbaa244c19a7501b8b38ea314,91c4fea8558b4139a52e513319813ad2,10*
G04 Gerber Generator version 0.2*
G04 Scale: 100 percent, Rotated: No, Reflected: No *
G04 Dimensions in millimeters *
G04 leading zeros omitted , absolute positions ,3 integer and 3 decimal *
%FSLAX33Y33*%
%MOMM*%
G90*
G71D02*


%LPD*%
G36*
G01X55049Y17203D02*
G01X55049Y15602D01*
G01X56750Y15602D01*
G01X56750Y17203D01*
G01X55049Y17203D01*
G37*
G36*
G01X55049Y19997D02*
G01X55049Y18396D01*
G01X56750Y18396D01*
G01X56750Y19997D01*
G01X55049Y19997D01*
G37*
G36*
G01X61830Y18396D02*
G01X61830Y19997D01*
G01X60129Y19997D01*
G01X60129Y18396D01*
G01X61830Y18396D01*
G37*
G36*
G01X61830Y15602D02*
G01X61830Y17203D01*
G01X60129Y17203D01*
G01X60129Y15602D01*
G01X61830Y15602D01*
G37*
G36*
G01X66910Y18396D02*
G01X66910Y19997D01*
G01X65209Y19997D01*
G01X65209Y18396D01*
G01X66910Y18396D01*
G37*
G36*
G01X66910Y15602D02*
G01X66910Y17203D01*
G01X65209Y17203D01*
G01X65209Y15602D01*
G01X66910Y15602D01*
G37*
G36*
G01X70289Y17203D02*
G01X70289Y15602D01*
G01X71990Y15602D01*
G01X71990Y17203D01*
G01X70289Y17203D01*
G37*
G36*
G01X70289Y19997D02*
G01X70289Y18396D01*
G01X71990Y18396D01*
G01X71990Y19997D01*
G01X70289Y19997D01*
G37*
G36*
G01X75369Y17203D02*
G01X75369Y15602D01*
G01X77070Y15602D01*
G01X77070Y17203D01*
G01X75369Y17203D01*
G37*
G36*
G01X75369Y19997D02*
G01X75369Y18396D01*
G01X77070Y18396D01*
G01X77070Y19997D01*
G01X75369Y19997D01*
G37*
G36*
G01X80449Y17203D02*
G01X80449Y15602D01*
G01X82150Y15602D01*
G01X82150Y17203D01*
G01X80449Y17203D01*
G37*
G36*
G01X80449Y19997D02*
G01X80449Y18396D01*
G01X82150Y18396D01*
G01X82150Y19997D01*
G01X80449Y19997D01*
G37*
G36*
G01X85529Y17203D02*
G01X85529Y15602D01*
G01X87230Y15602D01*
G01X87230Y17203D01*
G01X85529Y17203D01*
G37*
G36*
G01X85529Y19997D02*
G01X85529Y18396D01*
G01X87230Y18396D01*
G01X87230Y19997D01*
G01X85529Y19997D01*
G37*
G36*
G01X131750Y21726D02*
G01X132450Y21726D01*
G01X132450Y22976D01*
G01X131750Y22976D01*
G01X131750Y21726D01*
G37*
G36*
G01X130800Y19227D02*
G01X131500Y19227D01*
G01X131500Y20477D01*
G01X130800Y20477D01*
G01X130800Y19227D01*
G37*
G36*
G01X132699Y19227D02*
G01X133399Y19227D01*
G01X133399Y20477D01*
G01X132699Y20477D01*
G01X132699Y19227D01*
G37*
G36*
G01X50809Y23103D02*
G01X50809Y22402D01*
G01X52059Y22402D01*
G01X52059Y23103D01*
G01X50809Y23103D01*
G37*
G36*
G01X48310Y24052D02*
G01X48310Y23352D01*
G01X49560Y23352D01*
G01X49560Y24052D01*
G01X48310Y24052D01*
G37*
G36*
G01X48310Y22153D02*
G01X48310Y21453D01*
G01X49560Y21453D01*
G01X49560Y22153D01*
G01X48310Y22153D01*
G37*
G36*
G01X50809Y18023D02*
G01X50809Y17322D01*
G01X52059Y17322D01*
G01X52059Y18023D01*
G01X50809Y18023D01*
G37*
G36*
G01X48310Y18972D02*
G01X48310Y18272D01*
G01X49560Y18272D01*
G01X49560Y18972D01*
G01X48310Y18972D01*
G37*
G36*
G01X48310Y17073D02*
G01X48310Y16373D01*
G01X49560Y16373D01*
G01X49560Y17073D01*
G01X48310Y17073D01*
G37*
G36*
G01X50809Y12943D02*
G01X50809Y12242D01*
G01X52059Y12242D01*
G01X52059Y12943D01*
G01X50809Y12943D01*
G37*
G36*
G01X48310Y13892D02*
G01X48310Y13192D01*
G01X49560Y13192D01*
G01X49560Y13892D01*
G01X48310Y13892D01*
G37*
G36*
G01X48310Y11993D02*
G01X48310Y11293D01*
G01X49560Y11293D01*
G01X49560Y11993D01*
G01X48310Y11993D01*
G37*
G36*
G01X46463Y20886D02*
G01X48064Y20886D01*
G01X48064Y22587D01*
G01X46463Y22587D01*
G01X46463Y20886D01*
G37*
G36*
G01X43669Y20886D02*
G01X45270Y20886D01*
G01X45270Y22587D01*
G01X43669Y22587D01*
G01X43669Y20886D01*
G37*
G36*
G01X46463Y15806D02*
G01X48064Y15806D01*
G01X48064Y17507D01*
G01X46463Y17507D01*
G01X46463Y15806D01*
G37*
G36*
G01X43669Y15806D02*
G01X45270Y15806D01*
G01X45270Y17507D01*
G01X43669Y17507D01*
G01X43669Y15806D01*
G37*
G36*
G01X46463Y10726D02*
G01X48064Y10726D01*
G01X48064Y12427D01*
G01X46463Y12427D01*
G01X46463Y10726D01*
G37*
G36*
G01X43669Y10726D02*
G01X45270Y10726D01*
G01X45270Y12427D01*
G01X43669Y12427D01*
G01X43669Y10726D01*
G37*
G36*
G01X133839Y16491D02*
G01X133839Y18092D01*
G01X132138Y18092D01*
G01X132138Y16491D01*
G01X133839Y16491D01*
G37*
G36*
G01X133839Y13697D02*
G01X133839Y15298D01*
G01X132138Y15298D01*
G01X132138Y13697D01*
G01X133839Y13697D01*
G37*
G36*
G01X23426Y41256D02*
G01X21825Y41256D01*
G01X21825Y39555D01*
G01X23426Y39555D01*
G01X23426Y41256D01*
G37*
G36*
G01X26220Y41256D02*
G01X24619Y41256D01*
G01X24619Y39555D01*
G01X26220Y39555D01*
G01X26220Y41256D01*
G37*
G36*
G01X15933Y33636D02*
G01X14332Y33636D01*
G01X14332Y31935D01*
G01X15933Y31935D01*
G01X15933Y33636D01*
G37*
G36*
G01X18727Y33636D02*
G01X17126Y33636D01*
G01X17126Y31935D01*
G01X18727Y31935D01*
G01X18727Y33636D01*
G37*
G36*
G01X23553Y26397D02*
G01X21952Y26397D01*
G01X21952Y24696D01*
G01X23553Y24696D01*
G01X23553Y26397D01*
G37*
G36*
G01X26347Y26397D02*
G01X24746Y26397D01*
G01X24746Y24696D01*
G01X26347Y24696D01*
G01X26347Y26397D01*
G37*
G36*
G01X31173Y33636D02*
G01X29572Y33636D01*
G01X29572Y31935D01*
G01X31173Y31935D01*
G01X31173Y33636D01*
G37*
G36*
G01X33967Y33636D02*
G01X32366Y33636D01*
G01X32366Y31935D01*
G01X33967Y31935D01*
G01X33967Y33636D01*
G37*
G36*
G01X107296Y51366D02*
G01X108897Y51366D01*
G01X108897Y53067D01*
G01X107296Y53067D01*
G01X107296Y51366D01*
G37*
G36*
G01X104502Y51366D02*
G01X106103Y51366D01*
G01X106103Y53067D01*
G01X104502Y53067D01*
G01X104502Y51366D01*
G37*
G36*
G01X29242Y29499D02*
G01X30843Y29499D01*
G01X30843Y31499D01*
G01X29242Y31499D01*
G01X29242Y29499D01*
G37*
G36*
G01X32442Y29499D02*
G01X34043Y29499D01*
G01X34043Y31499D01*
G01X32442Y31499D01*
G01X32442Y29499D01*
G37*
G36*
G01X21622Y22260D02*
G01X23223Y22260D01*
G01X23223Y24260D01*
G01X21622Y24260D01*
G01X21622Y22260D01*
G37*
G36*
G01X24822Y22260D02*
G01X26423Y22260D01*
G01X26423Y24260D01*
G01X24822Y24260D01*
G01X24822Y22260D01*
G37*
G36*
G01X14002Y29499D02*
G01X15603Y29499D01*
G01X15603Y31499D01*
G01X14002Y31499D01*
G01X14002Y29499D01*
G37*
G36*
G01X17202Y29499D02*
G01X18803Y29499D01*
G01X18803Y31499D01*
G01X17202Y31499D01*
G01X17202Y29499D01*
G37*
G36*
G01X21495Y37119D02*
G01X23096Y37119D01*
G01X23096Y39119D01*
G01X21495Y39119D01*
G01X21495Y37119D01*
G37*
G36*
G01X24695Y37119D02*
G01X26296Y37119D01*
G01X26296Y39119D01*
G01X24695Y39119D01*
G01X24695Y37119D01*
G37*
M00*
M02*
