G04 Layer: TopSilkLayer*
G04 EasyEDA v6.3.22, 2020-04-19T15:25:33+02:00*
G04 9585e20cbaa244c19a7501b8b38ea314,91c4fea8558b4139a52e513319813ad2,10*
G04 Gerber Generator version 0.2*
G04 Scale: 100 percent, Rotated: No, Reflected: No *
G04 Dimensions in millimeters *
G04 leading zeros omitted , absolute positions ,3 integer and 3 decimal *
%FSLAX33Y33*%
%MOMM*%
G90*
G71D02*

%ADD10C,0.254000*%
%ADD22C,0.999998*%
%ADD30C,0.202997*%
%ADD31C,0.299999*%
%ADD32C,0.599999*%
%ADD33C,0.203200*%
%ADD34C,0.152400*%

%LPD*%

%LPD*%
G36*
G01X116950Y36103D02*
G01X116878Y36753D01*
G01X116715Y36201D01*
G01X116696Y36144D01*
G01X116675Y36086D01*
G01X116651Y36029D01*
G01X116625Y35971D01*
G01X116597Y35915D01*
G01X116567Y35860D01*
G01X116535Y35806D01*
G01X116503Y35754D01*
G01X116469Y35705D01*
G01X116434Y35659D01*
G01X116399Y35615D01*
G01X116363Y35575D01*
G01X116328Y35539D01*
G01X116292Y35507D01*
G01X116257Y35479D01*
G01X116222Y35457D01*
G01X116157Y35416D01*
G01X116107Y35378D01*
G01X116073Y35345D01*
G01X116054Y35317D01*
G01X116052Y35293D01*
G01X116067Y35276D01*
G01X116097Y35265D01*
G01X116145Y35259D01*
G01X116198Y35254D01*
G01X116243Y35242D01*
G01X116283Y35222D01*
G01X116316Y35196D01*
G01X116343Y35165D01*
G01X116364Y35129D01*
G01X116378Y35089D01*
G01X116387Y35045D01*
G01X116389Y34998D01*
G01X116386Y34949D01*
G01X116376Y34898D01*
G01X116362Y34846D01*
G01X116341Y34794D01*
G01X116314Y34742D01*
G01X116283Y34690D01*
G01X116246Y34641D01*
G01X116203Y34593D01*
G01X116155Y34548D01*
G01X116103Y34507D01*
G01X116045Y34470D01*
G01X115966Y34421D01*
G01X115907Y34380D01*
G01X115868Y34344D01*
G01X115849Y34315D01*
G01X115849Y34292D01*
G01X115869Y34275D01*
G01X115909Y34264D01*
G01X115968Y34260D01*
G01X116011Y34255D01*
G01X116049Y34244D01*
G01X116082Y34226D01*
G01X116110Y34201D01*
G01X116132Y34169D01*
G01X116150Y34131D01*
G01X116162Y34085D01*
G01X116169Y34033D01*
G01X116171Y33973D01*
G01X116168Y33907D01*
G01X116159Y33834D01*
G01X116146Y33753D01*
G01X116130Y33653D01*
G01X116121Y33559D01*
G01X116118Y33474D01*
G01X116122Y33400D01*
G01X116133Y33339D01*
G01X116150Y33293D01*
G01X116173Y33264D01*
G01X116201Y33253D01*
G01X116234Y33264D01*
G01X116270Y33293D01*
G01X116307Y33339D01*
G01X116344Y33400D01*
G01X116381Y33474D01*
G01X116417Y33559D01*
G01X116450Y33653D01*
G01X116478Y33753D01*
G01X116498Y33821D01*
G01X116523Y33886D01*
G01X116552Y33948D01*
G01X116585Y34005D01*
G01X116621Y34059D01*
G01X116660Y34107D01*
G01X116702Y34149D01*
G01X116745Y34185D01*
G01X116789Y34214D01*
G01X116834Y34235D01*
G01X116879Y34249D01*
G01X116924Y34254D01*
G01X116978Y34251D01*
G01X117026Y34242D01*
G01X117067Y34227D01*
G01X117101Y34205D01*
G01X117129Y34176D01*
G01X117150Y34140D01*
G01X117164Y34097D01*
G01X117173Y34045D01*
G01X117175Y33985D01*
G01X117172Y33917D01*
G01X117163Y33840D01*
G01X117148Y33753D01*
G01X117132Y33653D01*
G01X117123Y33559D01*
G01X117121Y33474D01*
G01X117125Y33400D01*
G01X117135Y33339D01*
G01X117152Y33293D01*
G01X117175Y33264D01*
G01X117203Y33253D01*
G01X117236Y33264D01*
G01X117272Y33293D01*
G01X117309Y33339D01*
G01X117347Y33400D01*
G01X117384Y33474D01*
G01X117419Y33559D01*
G01X117451Y33653D01*
G01X117480Y33753D01*
G01X117499Y33821D01*
G01X117519Y33886D01*
G01X117543Y33948D01*
G01X117568Y34005D01*
G01X117594Y34059D01*
G01X117621Y34107D01*
G01X117648Y34149D01*
G01X117677Y34185D01*
G01X117704Y34214D01*
G01X117732Y34235D01*
G01X117758Y34249D01*
G01X117784Y34254D01*
G01X117817Y34262D01*
G01X117844Y34287D01*
G01X117864Y34326D01*
G01X117877Y34377D01*
G01X117882Y34440D01*
G01X117880Y34511D01*
G01X117869Y34589D01*
G01X117851Y34674D01*
G01X117833Y34761D01*
G01X117823Y34847D01*
G01X117821Y34931D01*
G01X117827Y35009D01*
G01X117841Y35080D01*
G01X117862Y35141D01*
G01X117890Y35189D01*
G01X117948Y35248D01*
G01X117968Y35283D01*
G01X117986Y35330D01*
G01X117999Y35385D01*
G01X118010Y35449D01*
G01X118017Y35521D01*
G01X118021Y35599D01*
G01X118020Y35683D01*
G01X118017Y35772D01*
G01X118009Y35863D01*
G01X117998Y35957D01*
G01X117983Y36053D01*
G01X117857Y36753D01*
G01X117702Y36103D01*
G01X117679Y36015D01*
G01X117652Y35931D01*
G01X117622Y35851D01*
G01X117588Y35776D01*
G01X117553Y35707D01*
G01X117516Y35645D01*
G01X117478Y35589D01*
G01X117439Y35542D01*
G01X117399Y35505D01*
G01X117360Y35477D01*
G01X117322Y35460D01*
G01X117285Y35454D01*
G01X117248Y35459D01*
G01X117212Y35476D01*
G01X117176Y35503D01*
G01X117141Y35540D01*
G01X117108Y35587D01*
G01X117077Y35641D01*
G01X117048Y35703D01*
G01X117022Y35772D01*
G01X116999Y35847D01*
G01X116979Y35928D01*
G01X116963Y36014D01*
G01X116950Y36103D01*
G37*

%LPC*%
G36*
G01X117178Y35247D02*
G01X117111Y35253D01*
G01X117066Y35250D01*
G01X117024Y35240D01*
G01X116984Y35223D01*
G01X116947Y35200D01*
G01X116914Y35172D01*
G01X116884Y35137D01*
G01X116859Y35098D01*
G01X116837Y35054D01*
G01X116819Y35005D01*
G01X116807Y34953D01*
G01X116799Y34897D01*
G01X116797Y34837D01*
G01X116799Y34779D01*
G01X116806Y34727D01*
G01X116816Y34680D01*
G01X116832Y34639D01*
G01X116850Y34604D01*
G01X116871Y34574D01*
G01X116895Y34549D01*
G01X116921Y34530D01*
G01X116949Y34517D01*
G01X116979Y34509D01*
G01X117010Y34506D01*
G01X117042Y34508D01*
G01X117075Y34515D01*
G01X117108Y34527D01*
G01X117140Y34545D01*
G01X117172Y34567D01*
G01X117203Y34594D01*
G01X117232Y34627D01*
G01X117260Y34664D01*
G01X117286Y34706D01*
G01X117310Y34752D01*
G01X117330Y34804D01*
G01X117348Y34860D01*
G01X117362Y34920D01*
G01X117370Y34991D01*
G01X117365Y35055D01*
G01X117349Y35112D01*
G01X117321Y35161D01*
G01X117283Y35200D01*
G01X117235Y35229D01*
G01X117178Y35247D01*
G37*

%LPD*%
G36*
G01X114038Y36649D02*
G01X114006Y36653D01*
G01X113977Y36649D01*
G01X113949Y36635D01*
G01X113922Y36614D01*
G01X113897Y36584D01*
G01X113874Y36548D01*
G01X113853Y36505D01*
G01X113835Y36456D01*
G01X113820Y36402D01*
G01X113807Y36344D01*
G01X113798Y36282D01*
G01X113792Y36216D01*
G01X113790Y36147D01*
G01X113787Y36078D01*
G01X113779Y36009D01*
G01X113766Y35941D01*
G01X113748Y35876D01*
G01X113726Y35814D01*
G01X113700Y35755D01*
G01X113671Y35701D01*
G01X113638Y35652D01*
G01X113603Y35609D01*
G01X113565Y35573D01*
G01X113526Y35544D01*
G01X113484Y35524D01*
G01X113410Y35491D01*
G01X113354Y35456D01*
G01X113316Y35417D01*
G01X113296Y35375D01*
G01X113293Y35329D01*
G01X113309Y35276D01*
G01X113341Y35217D01*
G01X113391Y35151D01*
G01X113425Y35106D01*
G01X113452Y35060D01*
G01X113471Y35016D01*
G01X113483Y34971D01*
G01X113486Y34926D01*
G01X113481Y34881D01*
G01X113469Y34834D01*
G01X113448Y34787D01*
G01X113418Y34737D01*
G01X113381Y34685D01*
G01X113336Y34632D01*
G01X113281Y34575D01*
G01X113221Y34510D01*
G01X113173Y34450D01*
G01X113139Y34395D01*
G01X113118Y34348D01*
G01X113111Y34308D01*
G01X113119Y34279D01*
G01X113141Y34260D01*
G01X113178Y34254D01*
G01X113210Y34250D01*
G01X113236Y34237D01*
G01X113259Y34218D01*
G01X113278Y34192D01*
G01X113293Y34158D01*
G01X113303Y34117D01*
G01X113309Y34071D01*
G01X113311Y34018D01*
G01X113308Y33960D01*
G01X113300Y33896D01*
G01X113288Y33827D01*
G01X113271Y33753D01*
G01X113248Y33648D01*
G01X113235Y33552D01*
G01X113232Y33467D01*
G01X113238Y33394D01*
G01X113254Y33335D01*
G01X113279Y33290D01*
G01X113312Y33263D01*
G01X113353Y33253D01*
G01X113396Y33263D01*
G01X113439Y33289D01*
G01X113480Y33330D01*
G01X113519Y33385D01*
G01X113554Y33451D01*
G01X113584Y33528D01*
G01X113608Y33612D01*
G01X113626Y33701D01*
G01X113638Y33763D01*
G01X113656Y33823D01*
G01X113679Y33881D01*
G01X113707Y33937D01*
G01X113740Y33989D01*
G01X113776Y34038D01*
G01X113816Y34082D01*
G01X113859Y34122D01*
G01X113904Y34156D01*
G01X113951Y34184D01*
G01X113999Y34204D01*
G01X114048Y34218D01*
G01X114117Y34229D01*
G01X114175Y34233D01*
G01X114223Y34231D01*
G01X114262Y34221D01*
G01X114292Y34202D01*
G01X114313Y34173D01*
G01X114326Y34135D01*
G01X114331Y34086D01*
G01X114328Y34026D01*
G01X114317Y33954D01*
G01X114301Y33869D01*
G01X114277Y33769D01*
G01X114259Y33692D01*
G01X114246Y33620D01*
G01X114238Y33553D01*
G01X114234Y33493D01*
G01X114235Y33438D01*
G01X114241Y33391D01*
G01X114251Y33350D01*
G01X114266Y33316D01*
G01X114285Y33289D01*
G01X114309Y33269D01*
G01X114337Y33257D01*
G01X114369Y33253D01*
G01X114414Y33261D01*
G01X114456Y33284D01*
G01X114493Y33320D01*
G01X114526Y33368D01*
G01X114554Y33426D01*
G01X114574Y33492D01*
G01X114587Y33565D01*
G01X114592Y33644D01*
G01X114595Y33698D01*
G01X114604Y33754D01*
G01X114619Y33811D01*
G01X114640Y33868D01*
G01X114665Y33924D01*
G01X114694Y33979D01*
G01X114728Y34032D01*
G01X114766Y34081D01*
G01X114806Y34128D01*
G01X114849Y34169D01*
G01X114895Y34206D01*
G01X114942Y34237D01*
G01X115008Y34279D01*
G01X115060Y34318D01*
G01X115096Y34353D01*
G01X115118Y34384D01*
G01X115123Y34410D01*
G01X115113Y34429D01*
G01X115086Y34442D01*
G01X115042Y34447D01*
G01X114990Y34453D01*
G01X114944Y34465D01*
G01X114904Y34485D01*
G01X114871Y34511D01*
G01X114844Y34542D01*
G01X114823Y34578D01*
G01X114809Y34618D01*
G01X114801Y34662D01*
G01X114798Y34709D01*
G01X114802Y34758D01*
G01X114811Y34809D01*
G01X114826Y34861D01*
G01X114847Y34913D01*
G01X114873Y34965D01*
G01X114905Y35017D01*
G01X114942Y35066D01*
G01X114984Y35114D01*
G01X115032Y35159D01*
G01X115085Y35200D01*
G01X115143Y35238D01*
G01X115218Y35284D01*
G01X115274Y35324D01*
G01X115313Y35360D01*
G01X115332Y35390D01*
G01X115334Y35413D01*
G01X115317Y35431D01*
G01X115281Y35443D01*
G01X115227Y35447D01*
G01X115183Y35452D01*
G01X115144Y35464D01*
G01X115112Y35483D01*
G01X115086Y35511D01*
G01X115066Y35546D01*
G01X115053Y35591D01*
G01X115045Y35644D01*
G01X115043Y35706D01*
G01X115047Y35778D01*
G01X115057Y35859D01*
G01X115072Y35951D01*
G01X115093Y36053D01*
G01X115109Y36135D01*
G01X115123Y36212D01*
G01X115134Y36287D01*
G01X115142Y36356D01*
G01X115147Y36420D01*
G01X115149Y36477D01*
G01X115148Y36528D01*
G01X115144Y36571D01*
G01X115137Y36606D01*
G01X115127Y36632D01*
G01X115114Y36648D01*
G01X115098Y36653D01*
G01X115079Y36648D01*
G01X115057Y36632D01*
G01X115032Y36606D01*
G01X115006Y36571D01*
G01X114977Y36528D01*
G01X114947Y36477D01*
G01X114916Y36420D01*
G01X114885Y36356D01*
G01X114853Y36287D01*
G01X114822Y36212D01*
G01X114791Y36135D01*
G01X114762Y36053D01*
G01X114731Y35972D01*
G01X114696Y35894D01*
G01X114657Y35820D01*
G01X114616Y35751D01*
G01X114572Y35687D01*
G01X114527Y35630D01*
G01X114481Y35579D01*
G01X114434Y35536D01*
G01X114387Y35501D01*
G01X114342Y35475D01*
G01X114298Y35459D01*
G01X114256Y35454D01*
G01X114203Y35457D01*
G01X114158Y35466D01*
G01X114120Y35483D01*
G01X114090Y35508D01*
G01X114067Y35541D01*
G01X114051Y35583D01*
G01X114041Y35634D01*
G01X114039Y35695D01*
G01X114042Y35767D01*
G01X114052Y35851D01*
G01X114069Y35946D01*
G01X114090Y36053D01*
G01X114109Y36144D01*
G01X114122Y36229D01*
G01X114132Y36306D01*
G01X114136Y36377D01*
G01X114136Y36440D01*
G01X114131Y36495D01*
G01X114121Y36543D01*
G01X114107Y36582D01*
G01X114088Y36613D01*
G01X114066Y36635D01*
G01X114038Y36649D01*
G37*

%LPC*%
G36*
G01X114451Y35249D02*
G01X114385Y35253D01*
G01X114312Y35250D01*
G01X114237Y35242D01*
G01X114162Y35228D01*
G01X114089Y35208D01*
G01X114024Y35184D01*
G01X113967Y35154D01*
G01X113923Y35120D01*
G01X113883Y35074D01*
G01X113850Y35024D01*
G01X113824Y34971D01*
G01X113806Y34917D01*
G01X113794Y34861D01*
G01X113790Y34805D01*
G01X113792Y34751D01*
G01X113800Y34698D01*
G01X113814Y34648D01*
G01X113834Y34602D01*
G01X113860Y34560D01*
G01X113892Y34524D01*
G01X113928Y34495D01*
G01X113971Y34473D01*
G01X114017Y34458D01*
G01X114069Y34453D01*
G01X114113Y34458D01*
G01X114158Y34471D01*
G01X114204Y34492D01*
G01X114249Y34520D01*
G01X114294Y34555D01*
G01X114337Y34596D01*
G01X114378Y34642D01*
G01X114418Y34692D01*
G01X114454Y34746D01*
G01X114488Y34803D01*
G01X114517Y34862D01*
G01X114543Y34923D01*
G01X114563Y34985D01*
G01X114579Y35048D01*
G01X114588Y35109D01*
G01X114592Y35170D01*
G01X114581Y35200D01*
G01X114552Y35223D01*
G01X114507Y35240D01*
G01X114451Y35249D01*
G37*

%LPD*%
G36*
G01X108320Y36642D02*
G01X108296Y36646D01*
G01X108269Y36640D01*
G01X108236Y36624D01*
G01X108199Y36599D01*
G01X108157Y36565D01*
G01X108111Y36520D01*
G01X108084Y36486D01*
G01X108059Y36439D01*
G01X108037Y36382D01*
G01X108017Y36317D01*
G01X108001Y36245D01*
G01X107988Y36169D01*
G01X107980Y36092D01*
G01X107978Y36014D01*
G01X107975Y35963D01*
G01X107966Y35911D01*
G01X107953Y35860D01*
G01X107935Y35810D01*
G01X107914Y35762D01*
G01X107888Y35716D01*
G01X107858Y35673D01*
G01X107826Y35634D01*
G01X107790Y35599D01*
G01X107753Y35568D01*
G01X107713Y35543D01*
G01X107672Y35524D01*
G01X107615Y35500D01*
G01X107568Y35477D01*
G01X107530Y35453D01*
G01X107503Y35428D01*
G01X107484Y35401D01*
G01X107475Y35371D01*
G01X107475Y35339D01*
G01X107485Y35302D01*
G01X107504Y35262D01*
G01X107532Y35216D01*
G01X107568Y35165D01*
G01X107614Y35109D01*
G01X107660Y35051D01*
G01X107696Y34997D01*
G01X107722Y34948D01*
G01X107738Y34901D01*
G01X107744Y34857D01*
G01X107740Y34814D01*
G01X107724Y34771D01*
G01X107698Y34728D01*
G01X107661Y34683D01*
G01X107612Y34637D01*
G01X107552Y34586D01*
G01X107481Y34532D01*
G01X107404Y34472D01*
G01X107344Y34418D01*
G01X107301Y34370D01*
G01X107276Y34330D01*
G01X107269Y34298D01*
G01X107281Y34273D01*
G01X107311Y34259D01*
G01X107359Y34254D01*
G01X107401Y34250D01*
G01X107437Y34240D01*
G01X107468Y34223D01*
G01X107493Y34200D01*
G01X107512Y34169D01*
G01X107526Y34132D01*
G01X107534Y34086D01*
G01X107537Y34035D01*
G01X107535Y33976D01*
G01X107527Y33909D01*
G01X107513Y33835D01*
G01X107495Y33753D01*
G01X107473Y33653D01*
G01X107461Y33559D01*
G01X107457Y33474D01*
G01X107462Y33400D01*
G01X107474Y33339D01*
G01X107495Y33293D01*
G01X107523Y33264D01*
G01X107559Y33253D01*
G01X107598Y33263D01*
G01X107638Y33289D01*
G01X107676Y33330D01*
G01X107712Y33385D01*
G01X107745Y33451D01*
G01X107773Y33528D01*
G01X107796Y33612D01*
G01X107813Y33701D01*
G01X107825Y33763D01*
G01X107844Y33823D01*
G01X107868Y33882D01*
G01X107897Y33938D01*
G01X107931Y33990D01*
G01X107969Y34039D01*
G01X108011Y34084D01*
G01X108055Y34124D01*
G01X108103Y34158D01*
G01X108152Y34186D01*
G01X108203Y34207D01*
G01X108255Y34221D01*
G01X108328Y34233D01*
G01X108390Y34239D01*
G01X108442Y34238D01*
G01X108483Y34229D01*
G01X108515Y34210D01*
G01X108537Y34183D01*
G01X108551Y34145D01*
G01X108556Y34096D01*
G01X108553Y34035D01*
G01X108543Y33962D01*
G01X108526Y33875D01*
G01X108501Y33773D01*
G01X108485Y33699D01*
G01X108472Y33629D01*
G01X108464Y33563D01*
G01X108460Y33503D01*
G01X108460Y33448D01*
G01X108464Y33399D01*
G01X108473Y33356D01*
G01X108486Y33320D01*
G01X108502Y33292D01*
G01X108523Y33271D01*
G01X108547Y33258D01*
G01X108575Y33253D01*
G01X108616Y33259D01*
G01X108654Y33276D01*
G01X108689Y33303D01*
G01X108719Y33337D01*
G01X108744Y33380D01*
G01X108763Y33428D01*
G01X108775Y33482D01*
G01X108779Y33539D01*
G01X108782Y33581D01*
G01X108790Y33626D01*
G01X108804Y33675D01*
G01X108822Y33726D01*
G01X108845Y33779D01*
G01X108872Y33834D01*
G01X108902Y33888D01*
G01X108936Y33942D01*
G01X108972Y33995D01*
G01X109010Y34046D01*
G01X109052Y34094D01*
G01X109094Y34139D01*
G01X109153Y34202D01*
G01X109199Y34261D01*
G01X109233Y34315D01*
G01X109253Y34361D01*
G01X109260Y34399D01*
G01X109253Y34429D01*
G01X109231Y34447D01*
G01X109194Y34453D01*
G01X109141Y34457D01*
G01X109096Y34468D01*
G01X109058Y34485D01*
G01X109029Y34509D01*
G01X109008Y34539D01*
G01X108994Y34574D01*
G01X108989Y34614D01*
G01X108991Y34658D01*
G01X109001Y34707D01*
G01X109018Y34759D01*
G01X109043Y34814D01*
G01X109076Y34873D01*
G01X109117Y34934D01*
G01X109164Y34996D01*
G01X109219Y35061D01*
G01X109282Y35126D01*
G01X109339Y35189D01*
G01X109385Y35252D01*
G01X109420Y35313D01*
G01X109444Y35371D01*
G01X109455Y35424D01*
G01X109453Y35470D01*
G01X109438Y35508D01*
G01X109409Y35536D01*
G01X109386Y35556D01*
G01X109366Y35585D01*
G01X109349Y35622D01*
G01X109334Y35666D01*
G01X109323Y35718D01*
G01X109314Y35775D01*
G01X109309Y35838D01*
G01X109307Y35905D01*
G01X109308Y35975D01*
G01X109312Y36048D01*
G01X109320Y36123D01*
G01X109347Y36288D01*
G01X109357Y36365D01*
G01X109363Y36432D01*
G01X109366Y36489D01*
G01X109363Y36534D01*
G01X109356Y36569D01*
G01X109345Y36593D01*
G01X109330Y36606D01*
G01X109310Y36609D01*
G01X109286Y36601D01*
G01X109257Y36582D01*
G01X109225Y36553D01*
G01X109196Y36523D01*
G01X109167Y36486D01*
G01X109139Y36445D01*
G01X109111Y36398D01*
G01X109084Y36348D01*
G01X109058Y36295D01*
G01X109034Y36240D01*
G01X109011Y36184D01*
G01X108991Y36126D01*
G01X108973Y36068D01*
G01X108958Y36011D01*
G01X108946Y35956D01*
G01X108934Y35902D01*
G01X108915Y35848D01*
G01X108892Y35796D01*
G01X108863Y35746D01*
G01X108831Y35699D01*
G01X108794Y35655D01*
G01X108755Y35615D01*
G01X108713Y35579D01*
G01X108669Y35549D01*
G01X108623Y35524D01*
G01X108576Y35504D01*
G01X108528Y35492D01*
G01X108478Y35483D01*
G01X108432Y35478D01*
G01X108392Y35478D01*
G01X108358Y35482D01*
G01X108329Y35492D01*
G01X108305Y35506D01*
G01X108285Y35527D01*
G01X108271Y35554D01*
G01X108261Y35587D01*
G01X108255Y35627D01*
G01X108254Y35675D01*
G01X108257Y35731D01*
G01X108263Y35795D01*
G01X108274Y35867D01*
G01X108288Y35948D01*
G01X108305Y36039D01*
G01X108326Y36147D01*
G01X108342Y36244D01*
G01X108355Y36331D01*
G01X108363Y36407D01*
G01X108367Y36472D01*
G01X108366Y36526D01*
G01X108361Y36571D01*
G01X108352Y36605D01*
G01X108338Y36629D01*
G01X108320Y36642D01*
G37*

%LPC*%
G36*
G01X108497Y35246D02*
G01X108450Y35248D01*
G01X108402Y35245D01*
G01X108355Y35237D01*
G01X108307Y35224D01*
G01X108261Y35206D01*
G01X108216Y35183D01*
G01X108174Y35154D01*
G01X108135Y35120D01*
G01X108099Y35081D01*
G01X108067Y35036D01*
G01X108044Y34988D01*
G01X108031Y34935D01*
G01X108027Y34879D01*
G01X108032Y34822D01*
G01X108046Y34765D01*
G01X108069Y34710D01*
G01X108099Y34659D01*
G01X108138Y34613D01*
G01X108177Y34579D01*
G01X108217Y34551D01*
G01X108259Y34530D01*
G01X108302Y34516D01*
G01X108345Y34507D01*
G01X108388Y34504D01*
G01X108431Y34507D01*
G01X108473Y34516D01*
G01X108514Y34529D01*
G01X108553Y34548D01*
G01X108591Y34572D01*
G01X108626Y34600D01*
G01X108659Y34633D01*
G01X108688Y34669D01*
G01X108715Y34710D01*
G01X108737Y34755D01*
G01X108755Y34802D01*
G01X108768Y34854D01*
G01X108776Y34908D01*
G01X108779Y34965D01*
G01X108775Y35014D01*
G01X108765Y35058D01*
G01X108747Y35097D01*
G01X108724Y35132D01*
G01X108695Y35163D01*
G01X108662Y35189D01*
G01X108625Y35210D01*
G01X108585Y35227D01*
G01X108542Y35239D01*
G01X108497Y35246D01*
G37*

%LPD*%
G36*
G01X105320Y36103D02*
G01X105242Y36753D01*
G01X105082Y36103D01*
G01X105062Y36031D01*
G01X105040Y35961D01*
G01X105017Y35895D01*
G01X104992Y35833D01*
G01X104965Y35776D01*
G01X104937Y35722D01*
G01X104907Y35673D01*
G01X104876Y35628D01*
G01X104844Y35588D01*
G01X104811Y35553D01*
G01X104777Y35523D01*
G01X104742Y35497D01*
G01X104706Y35477D01*
G01X104670Y35463D01*
G01X104632Y35454D01*
G01X104595Y35450D01*
G01X104507Y35448D01*
G01X104443Y35442D01*
G01X104403Y35431D01*
G01X104387Y35414D01*
G01X104393Y35391D01*
G01X104423Y35360D01*
G01X104474Y35320D01*
G01X104549Y35271D01*
G01X104592Y35241D01*
G01X104628Y35207D01*
G01X104659Y35171D01*
G01X104684Y35131D01*
G01X104704Y35089D01*
G01X104717Y35044D01*
G01X104725Y34996D01*
G01X104727Y34947D01*
G01X104723Y34894D01*
G01X104713Y34839D01*
G01X104697Y34782D01*
G01X104676Y34724D01*
G01X104654Y34669D01*
G01X104634Y34611D01*
G01X104616Y34550D01*
G01X104598Y34487D01*
G01X104582Y34422D01*
G01X104567Y34355D01*
G01X104554Y34286D01*
G01X104543Y34217D01*
G01X104532Y34147D01*
G01X104523Y34077D01*
G01X104515Y34007D01*
G01X104509Y33938D01*
G01X104504Y33871D01*
G01X104500Y33804D01*
G01X104498Y33740D01*
G01X104498Y33677D01*
G01X104499Y33618D01*
G01X104502Y33561D01*
G01X104506Y33508D01*
G01X104512Y33459D01*
G01X104519Y33414D01*
G01X104528Y33374D01*
G01X104539Y33339D01*
G01X104551Y33309D01*
G01X104565Y33285D01*
G01X104580Y33268D01*
G01X104597Y33257D01*
G01X104617Y33253D01*
G01X104648Y33264D01*
G01X104683Y33293D01*
G01X104720Y33339D01*
G01X104757Y33400D01*
G01X104794Y33474D01*
G01X104829Y33559D01*
G01X104861Y33653D01*
G01X104888Y33753D01*
G01X104908Y33821D01*
G01X104933Y33886D01*
G01X104962Y33948D01*
G01X104994Y34005D01*
G01X105029Y34059D01*
G01X105066Y34107D01*
G01X105106Y34149D01*
G01X105147Y34185D01*
G01X105189Y34214D01*
G01X105232Y34235D01*
G01X105275Y34249D01*
G01X105317Y34254D01*
G01X105367Y34251D01*
G01X105411Y34241D01*
G01X105449Y34225D01*
G01X105481Y34203D01*
G01X105506Y34173D01*
G01X105526Y34136D01*
G01X105540Y34093D01*
G01X105547Y34041D01*
G01X105550Y33981D01*
G01X105546Y33914D01*
G01X105538Y33838D01*
G01X105523Y33753D01*
G01X105507Y33653D01*
G01X105500Y33559D01*
G01X105499Y33474D01*
G01X105505Y33400D01*
G01X105518Y33339D01*
G01X105538Y33293D01*
G01X105564Y33264D01*
G01X105596Y33253D01*
G01X105621Y33258D01*
G01X105645Y33272D01*
G01X105672Y33293D01*
G01X105699Y33322D01*
G01X105726Y33358D01*
G01X105753Y33400D01*
G01X105779Y33448D01*
G01X105804Y33502D01*
G01X105829Y33559D01*
G01X105852Y33621D01*
G01X105872Y33686D01*
G01X105891Y33753D01*
G01X105911Y33822D01*
G01X105936Y33887D01*
G01X105965Y33949D01*
G01X105999Y34007D01*
G01X106036Y34060D01*
G01X106076Y34108D01*
G01X106118Y34151D01*
G01X106162Y34187D01*
G01X106207Y34216D01*
G01X106253Y34238D01*
G01X106300Y34252D01*
G01X106345Y34257D01*
G01X106439Y34259D01*
G01X106507Y34265D01*
G01X106549Y34275D01*
G01X106564Y34292D01*
G01X106555Y34317D01*
G01X106520Y34351D01*
G01X106459Y34395D01*
G01X106374Y34450D01*
G01X106322Y34486D01*
G01X106278Y34522D01*
G01X106242Y34559D01*
G01X106215Y34597D01*
G01X106196Y34636D01*
G01X106184Y34677D01*
G01X106181Y34721D01*
G01X106186Y34769D01*
G01X106198Y34820D01*
G01X106218Y34874D01*
G01X106245Y34933D01*
G01X106281Y34997D01*
G01X106301Y35037D01*
G01X106320Y35083D01*
G01X106336Y35134D01*
G01X106351Y35191D01*
G01X106364Y35251D01*
G01X106374Y35316D01*
G01X106383Y35384D01*
G01X106390Y35455D01*
G01X106394Y35527D01*
G01X106396Y35602D01*
G01X106396Y35678D01*
G01X106393Y35754D01*
G01X106389Y35830D01*
G01X106382Y35906D01*
G01X106372Y35980D01*
G01X106360Y36053D01*
G01X106232Y36753D01*
G01X106078Y36103D01*
G01X106054Y36015D01*
G01X106027Y35931D01*
G01X105997Y35851D01*
G01X105964Y35776D01*
G01X105928Y35707D01*
G01X105891Y35645D01*
G01X105853Y35589D01*
G01X105814Y35542D01*
G01X105774Y35505D01*
G01X105735Y35477D01*
G01X105697Y35460D01*
G01X105660Y35454D01*
G01X105624Y35459D01*
G01X105587Y35476D01*
G01X105551Y35504D01*
G01X105516Y35541D01*
G01X105483Y35588D01*
G01X105451Y35642D01*
G01X105421Y35704D01*
G01X105394Y35774D01*
G01X105371Y35849D01*
G01X105350Y35929D01*
G01X105332Y36014D01*
G01X105320Y36103D01*
G37*

%LPC*%
G36*
G01X105607Y35248D02*
G01X105566Y35253D01*
G01X105521Y35247D01*
G01X105476Y35229D01*
G01X105432Y35201D01*
G01X105390Y35163D01*
G01X105349Y35118D01*
G01X105312Y35066D01*
G01X105278Y35010D01*
G01X105248Y34951D01*
G01X105223Y34890D01*
G01X105203Y34828D01*
G01X105189Y34767D01*
G01X105182Y34708D01*
G01X105183Y34653D01*
G01X105191Y34604D01*
G01X105208Y34560D01*
G01X105233Y34525D01*
G01X105268Y34497D01*
G01X105307Y34480D01*
G01X105349Y34473D01*
G01X105392Y34475D01*
G01X105437Y34485D01*
G01X105481Y34503D01*
G01X105526Y34528D01*
G01X105569Y34560D01*
G01X105610Y34598D01*
G01X105648Y34640D01*
G01X105683Y34687D01*
G01X105713Y34737D01*
G01X105738Y34792D01*
G01X105757Y34848D01*
G01X105769Y34906D01*
G01X105773Y34965D01*
G01X105768Y35023D01*
G01X105757Y35077D01*
G01X105737Y35126D01*
G01X105712Y35169D01*
G01X105681Y35204D01*
G01X105646Y35231D01*
G01X105607Y35248D01*
G37*

%LPD*%
G36*
G01X102498Y36641D02*
G01X102477Y36645D01*
G01X102451Y36639D01*
G01X102420Y36623D01*
G01X102385Y36598D01*
G01X102344Y36563D01*
G01X102299Y36520D01*
G01X102272Y36486D01*
G01X102247Y36440D01*
G01X102224Y36385D01*
G01X102204Y36321D01*
G01X102188Y36252D01*
G01X102176Y36179D01*
G01X102168Y36104D01*
G01X102165Y36030D01*
G01X102162Y35980D01*
G01X102152Y35928D01*
G01X102137Y35876D01*
G01X102117Y35822D01*
G01X102092Y35770D01*
G01X102062Y35718D01*
G01X102028Y35668D01*
G01X101991Y35621D01*
G01X101951Y35577D01*
G01X101907Y35536D01*
G01X101862Y35500D01*
G01X101814Y35469D01*
G01X101749Y35428D01*
G01X101697Y35390D01*
G01X101660Y35354D01*
G01X101639Y35323D01*
G01X101633Y35298D01*
G01X101644Y35278D01*
G01X101670Y35265D01*
G01X101714Y35259D01*
G01X101767Y35254D01*
G01X101813Y35242D01*
G01X101852Y35222D01*
G01X101885Y35196D01*
G01X101912Y35165D01*
G01X101933Y35129D01*
G01X101947Y35089D01*
G01X101956Y35045D01*
G01X101958Y34998D01*
G01X101955Y34949D01*
G01X101946Y34898D01*
G01X101930Y34846D01*
G01X101910Y34794D01*
G01X101884Y34742D01*
G01X101852Y34690D01*
G01X101815Y34641D01*
G01X101772Y34593D01*
G01X101725Y34548D01*
G01X101672Y34507D01*
G01X101614Y34470D01*
G01X101536Y34422D01*
G01X101478Y34380D01*
G01X101439Y34345D01*
G01X101419Y34315D01*
G01X101419Y34292D01*
G01X101439Y34275D01*
G01X101477Y34264D01*
G01X101535Y34260D01*
G01X101580Y34255D01*
G01X101618Y34245D01*
G01X101651Y34228D01*
G01X101677Y34204D01*
G01X101698Y34173D01*
G01X101712Y34136D01*
G01X101722Y34091D01*
G01X101725Y34039D01*
G01X101723Y33979D01*
G01X101715Y33912D01*
G01X101701Y33837D01*
G01X101682Y33753D01*
G01X101661Y33653D01*
G01X101648Y33559D01*
G01X101644Y33474D01*
G01X101649Y33400D01*
G01X101662Y33339D01*
G01X101683Y33293D01*
G01X101711Y33264D01*
G01X101747Y33253D01*
G01X101786Y33263D01*
G01X101825Y33289D01*
G01X101864Y33330D01*
G01X101899Y33385D01*
G01X101932Y33451D01*
G01X101961Y33528D01*
G01X101984Y33612D01*
G01X102001Y33701D01*
G01X102013Y33763D01*
G01X102030Y33823D01*
G01X102054Y33881D01*
G01X102082Y33937D01*
G01X102115Y33989D01*
G01X102151Y34038D01*
G01X102192Y34082D01*
G01X102234Y34122D01*
G01X102279Y34156D01*
G01X102326Y34184D01*
G01X102374Y34204D01*
G01X102424Y34218D01*
G01X102492Y34229D01*
G01X102550Y34233D01*
G01X102598Y34231D01*
G01X102637Y34221D01*
G01X102667Y34202D01*
G01X102688Y34173D01*
G01X102701Y34135D01*
G01X102706Y34086D01*
G01X102703Y34026D01*
G01X102693Y33954D01*
G01X102676Y33869D01*
G01X102652Y33769D01*
G01X102635Y33692D01*
G01X102621Y33620D01*
G01X102613Y33553D01*
G01X102609Y33493D01*
G01X102611Y33438D01*
G01X102616Y33391D01*
G01X102626Y33350D01*
G01X102641Y33316D01*
G01X102660Y33289D01*
G01X102684Y33269D01*
G01X102712Y33257D01*
G01X102745Y33253D01*
G01X102789Y33262D01*
G01X102831Y33285D01*
G01X102869Y33323D01*
G01X102902Y33373D01*
G01X102929Y33433D01*
G01X102949Y33502D01*
G01X102962Y33578D01*
G01X102967Y33660D01*
G01X102970Y33716D01*
G01X102978Y33772D01*
G01X102991Y33827D01*
G01X103009Y33880D01*
G01X103031Y33932D01*
G01X103057Y33981D01*
G01X103086Y34027D01*
G01X103119Y34069D01*
G01X103154Y34106D01*
G01X103191Y34137D01*
G01X103231Y34164D01*
G01X103273Y34183D01*
G01X103329Y34206D01*
G01X103377Y34230D01*
G01X103414Y34254D01*
G01X103442Y34280D01*
G01X103460Y34306D01*
G01X103469Y34336D01*
G01X103469Y34368D01*
G01X103459Y34404D01*
G01X103441Y34445D01*
G01X103413Y34491D01*
G01X103376Y34542D01*
G01X103284Y34656D01*
G01X103248Y34710D01*
G01X103222Y34759D01*
G01X103206Y34806D01*
G01X103200Y34850D01*
G01X103204Y34893D01*
G01X103220Y34935D01*
G01X103246Y34979D01*
G01X103283Y35024D01*
G01X103332Y35070D01*
G01X103392Y35121D01*
G01X103464Y35175D01*
G01X103536Y35231D01*
G01X103593Y35283D01*
G01X103636Y35331D01*
G01X103664Y35372D01*
G01X103676Y35406D01*
G01X103672Y35432D01*
G01X103651Y35448D01*
G01X103611Y35454D01*
G01X103575Y35458D01*
G01X103544Y35472D01*
G01X103517Y35495D01*
G01X103496Y35526D01*
G01X103479Y35567D01*
G01X103467Y35617D01*
G01X103460Y35676D01*
G01X103458Y35744D01*
G01X103461Y35820D01*
G01X103469Y35906D01*
G01X103482Y36000D01*
G01X103499Y36103D01*
G01X103518Y36208D01*
G01X103532Y36301D01*
G01X103541Y36381D01*
G01X103546Y36449D01*
G01X103546Y36504D01*
G01X103541Y36547D01*
G01X103532Y36578D01*
G01X103517Y36597D01*
G01X103499Y36604D01*
G01X103475Y36599D01*
G01X103447Y36582D01*
G01X103414Y36553D01*
G01X103385Y36523D01*
G01X103356Y36486D01*
G01X103327Y36445D01*
G01X103299Y36398D01*
G01X103272Y36348D01*
G01X103246Y36295D01*
G01X103221Y36240D01*
G01X103199Y36184D01*
G01X103179Y36126D01*
G01X103161Y36068D01*
G01X103146Y36011D01*
G01X103134Y35956D01*
G01X103121Y35902D01*
G01X103102Y35848D01*
G01X103077Y35796D01*
G01X103048Y35746D01*
G01X103013Y35698D01*
G01X102975Y35654D01*
G01X102934Y35614D01*
G01X102890Y35577D01*
G01X102843Y35546D01*
G01X102794Y35521D01*
G01X102744Y35501D01*
G01X102694Y35487D01*
G01X102638Y35477D01*
G01X102589Y35472D01*
G01X102546Y35470D01*
G01X102508Y35473D01*
G01X102477Y35481D01*
G01X102451Y35494D01*
G01X102431Y35514D01*
G01X102416Y35540D01*
G01X102406Y35573D01*
G01X102401Y35613D01*
G01X102400Y35661D01*
G01X102404Y35718D01*
G01X102413Y35783D01*
G01X102425Y35857D01*
G01X102441Y35941D01*
G01X102462Y36035D01*
G01X102485Y36144D01*
G01X102504Y36243D01*
G01X102519Y36330D01*
G01X102529Y36406D01*
G01X102535Y36471D01*
G01X102537Y36526D01*
G01X102534Y36570D01*
G01X102527Y36604D01*
G01X102515Y36628D01*
G01X102498Y36641D01*
G37*

%LPC*%
G36*
G01X102604Y35249D02*
G01X102566Y35253D01*
G01X102510Y35249D01*
G01X102458Y35235D01*
G01X102410Y35213D01*
G01X102368Y35183D01*
G01X102330Y35148D01*
G01X102298Y35107D01*
G01X102272Y35061D01*
G01X102251Y35012D01*
G01X102238Y34959D01*
G01X102230Y34905D01*
G01X102230Y34851D01*
G01X102237Y34796D01*
G01X102251Y34742D01*
G01X102273Y34690D01*
G01X102304Y34642D01*
G01X102343Y34596D01*
G01X102386Y34559D01*
G01X102431Y34533D01*
G01X102477Y34514D01*
G01X102524Y34504D01*
G01X102572Y34502D01*
G01X102619Y34507D01*
G01X102665Y34518D01*
G01X102710Y34536D01*
G01X102752Y34559D01*
G01X102791Y34587D01*
G01X102827Y34620D01*
G01X102858Y34657D01*
G01X102884Y34698D01*
G01X102905Y34742D01*
G01X102920Y34788D01*
G01X102928Y34836D01*
G01X102928Y34885D01*
G01X102920Y34935D01*
G01X102903Y34986D01*
G01X102877Y35036D01*
G01X102847Y35080D01*
G01X102811Y35120D01*
G01X102772Y35157D01*
G01X102731Y35190D01*
G01X102688Y35216D01*
G01X102645Y35236D01*
G01X102604Y35249D01*
G37*

%LPD*%
G36*
G01X111143Y36103D02*
G01X111076Y36753D01*
G01X110914Y36103D01*
G01X110890Y36015D01*
G01X110865Y35931D01*
G01X110837Y35851D01*
G01X110808Y35776D01*
G01X110778Y35707D01*
G01X110747Y35645D01*
G01X110716Y35589D01*
G01X110685Y35542D01*
G01X110655Y35505D01*
G01X110626Y35477D01*
G01X110599Y35460D01*
G01X110574Y35454D01*
G01X110540Y35447D01*
G01X110514Y35430D01*
G01X110494Y35402D01*
G01X110482Y35365D01*
G01X110477Y35320D01*
G01X110481Y35269D01*
G01X110492Y35212D01*
G01X110512Y35151D01*
G01X110531Y35085D01*
G01X110542Y35014D01*
G01X110545Y34940D01*
G01X110539Y34865D01*
G01X110525Y34791D01*
G01X110504Y34721D01*
G01X110476Y34657D01*
G01X110441Y34601D01*
G01X110423Y34573D01*
G01X110406Y34539D01*
G01X110392Y34501D01*
G01X110379Y34457D01*
G01X110369Y34411D01*
G01X110360Y34360D01*
G01X110353Y34306D01*
G01X110348Y34250D01*
G01X110345Y34191D01*
G01X110345Y34131D01*
G01X110346Y34069D01*
G01X110350Y34006D01*
G01X110356Y33943D01*
G01X110364Y33879D01*
G01X110374Y33816D01*
G01X110387Y33753D01*
G01X110518Y33153D01*
G01X110673Y33703D01*
G01X110696Y33778D01*
G01X110723Y33849D01*
G01X110754Y33917D01*
G01X110788Y33980D01*
G01X110825Y34039D01*
G01X110864Y34092D01*
G01X110903Y34138D01*
G01X110944Y34178D01*
G01X110986Y34210D01*
G01X111026Y34234D01*
G01X111067Y34249D01*
G01X111106Y34254D01*
G01X111146Y34249D01*
G01X111185Y34235D01*
G01X111221Y34213D01*
G01X111254Y34184D01*
G01X111285Y34146D01*
G01X111313Y34101D01*
G01X111338Y34049D01*
G01X111359Y33991D01*
G01X111377Y33927D01*
G01X111391Y33857D01*
G01X111401Y33783D01*
G01X111406Y33703D01*
G01X111427Y33153D01*
G01X111645Y33703D01*
G01X111677Y33778D01*
G01X111714Y33850D01*
G01X111754Y33918D01*
G01X111798Y33983D01*
G01X111844Y34042D01*
G01X111891Y34097D01*
G01X111939Y34145D01*
G01X111988Y34186D01*
G01X112037Y34220D01*
G01X112084Y34245D01*
G01X112131Y34262D01*
G01X112175Y34269D01*
G01X112244Y34274D01*
G01X112295Y34283D01*
G01X112329Y34293D01*
G01X112345Y34306D01*
G01X112344Y34322D01*
G01X112326Y34341D01*
G01X112290Y34362D01*
G01X112237Y34386D01*
G01X112191Y34408D01*
G01X112150Y34435D01*
G01X112114Y34467D01*
G01X112082Y34504D01*
G01X112055Y34544D01*
G01X112033Y34587D01*
G01X112015Y34632D01*
G01X112002Y34680D01*
G01X111992Y34729D01*
G01X111988Y34778D01*
G01X111987Y34829D01*
G01X111991Y34879D01*
G01X111998Y34928D01*
G01X112010Y34977D01*
G01X112026Y35023D01*
G01X112046Y35066D01*
G01X112069Y35108D01*
G01X112097Y35145D01*
G01X112127Y35179D01*
G01X112162Y35208D01*
G01X112201Y35233D01*
G01X112242Y35251D01*
G01X112288Y35264D01*
G01X112337Y35269D01*
G01X112407Y35275D01*
G01X112462Y35283D01*
G01X112500Y35295D01*
G01X112522Y35309D01*
G01X112526Y35325D01*
G01X112514Y35344D01*
G01X112484Y35364D01*
G01X112437Y35386D01*
G01X112403Y35405D01*
G01X112370Y35435D01*
G01X112338Y35475D01*
G01X112308Y35524D01*
G01X112280Y35580D01*
G01X112254Y35643D01*
G01X112231Y35713D01*
G01X112211Y35787D01*
G01X112194Y35867D01*
G01X112180Y35949D01*
G01X112171Y36034D01*
G01X112166Y36120D01*
G01X112145Y36753D01*
G01X111936Y36103D01*
G01X111906Y36015D01*
G01X111872Y35931D01*
G01X111835Y35851D01*
G01X111796Y35776D01*
G01X111755Y35707D01*
G01X111713Y35645D01*
G01X111670Y35589D01*
G01X111628Y35542D01*
G01X111585Y35505D01*
G01X111545Y35477D01*
G01X111506Y35460D01*
G01X111469Y35454D01*
G01X111433Y35459D01*
G01X111397Y35476D01*
G01X111362Y35504D01*
G01X111328Y35541D01*
G01X111296Y35588D01*
G01X111265Y35642D01*
G01X111237Y35704D01*
G01X111212Y35774D01*
G01X111189Y35849D01*
G01X111170Y35929D01*
G01X111154Y36014D01*
G01X111143Y36103D01*
G37*

%LPC*%
G36*
G01X111413Y35246D02*
G01X111377Y35252D01*
G01X111339Y35251D01*
G01X111298Y35242D01*
G01X111255Y35224D01*
G01X111211Y35198D01*
G01X111165Y35163D01*
G01X111118Y35120D01*
G01X111076Y35073D01*
G01X111042Y35022D01*
G01X111016Y34968D01*
G01X110998Y34913D01*
G01X110987Y34858D01*
G01X110982Y34802D01*
G01X110986Y34748D01*
G01X110995Y34696D01*
G01X111011Y34646D01*
G01X111033Y34600D01*
G01X111061Y34559D01*
G01X111095Y34523D01*
G01X111135Y34494D01*
G01X111180Y34472D01*
G01X111230Y34458D01*
G01X111285Y34453D01*
G01X111345Y34461D01*
G01X111402Y34485D01*
G01X111453Y34521D01*
G01X111498Y34570D01*
G01X111534Y34629D01*
G01X111562Y34697D01*
G01X111579Y34772D01*
G01X111585Y34854D01*
G01X111583Y34925D01*
G01X111575Y34990D01*
G01X111564Y35048D01*
G01X111548Y35099D01*
G01X111528Y35143D01*
G01X111504Y35180D01*
G01X111477Y35209D01*
G01X111447Y35232D01*
G01X111413Y35246D01*
G37*

%LPD*%
G36*
G01X111363Y31459D02*
G01X111346Y31463D01*
G01X111328Y31462D01*
G01X111310Y31456D01*
G01X111291Y31446D01*
G01X111272Y31431D01*
G01X111252Y31411D01*
G01X111232Y31387D01*
G01X111212Y31358D01*
G01X111191Y31323D01*
G01X111170Y31284D01*
G01X111149Y31240D01*
G01X111127Y31191D01*
G01X111105Y31137D01*
G01X111089Y31090D01*
G01X111073Y31034D01*
G01X111058Y30973D01*
G01X111044Y30906D01*
G01X111031Y30835D01*
G01X111020Y30761D01*
G01X111009Y30684D01*
G01X111001Y30606D01*
G01X110994Y30527D01*
G01X110988Y30449D01*
G01X110985Y30373D01*
G01X110984Y30300D01*
G01X110984Y29779D01*
G01X110422Y30316D01*
G01X110357Y30377D01*
G01X110294Y30433D01*
G01X110233Y30487D01*
G01X110173Y30537D01*
G01X110114Y30582D01*
G01X110057Y30624D01*
G01X110003Y30663D01*
G01X109949Y30698D01*
G01X109898Y30730D01*
G01X109849Y30757D01*
G01X109802Y30780D01*
G01X109757Y30800D01*
G01X109713Y30816D01*
G01X109673Y30829D01*
G01X109635Y30837D01*
G01X109599Y30841D01*
G01X109565Y30842D01*
G01X109534Y30839D01*
G01X109506Y30832D01*
G01X109480Y30821D01*
G01X109457Y30806D01*
G01X109438Y30787D01*
G01X109420Y30764D01*
G01X109406Y30737D01*
G01X109395Y30706D01*
G01X109387Y30671D01*
G01X109382Y30632D01*
G01X109380Y30588D01*
G01X109383Y30551D01*
G01X109390Y30511D01*
G01X109402Y30470D01*
G01X109419Y30427D01*
G01X109439Y30383D01*
G01X109464Y30338D01*
G01X109491Y30292D01*
G01X109523Y30245D01*
G01X109558Y30199D01*
G01X109596Y30152D01*
G01X109636Y30104D01*
G01X109679Y30057D01*
G01X109724Y30010D01*
G01X109772Y29964D01*
G01X109821Y29918D01*
G01X109871Y29874D01*
G01X109923Y29830D01*
G01X109977Y29788D01*
G01X110030Y29748D01*
G01X110085Y29709D01*
G01X110140Y29672D01*
G01X110196Y29638D01*
G01X110251Y29605D01*
G01X110306Y29575D01*
G01X110360Y29549D01*
G01X110414Y29525D01*
G01X110466Y29504D01*
G01X110518Y29486D01*
G01X110567Y29472D01*
G01X110616Y29462D01*
G01X110662Y29456D01*
G01X110706Y29454D01*
G01X110762Y29451D01*
G01X110820Y29445D01*
G01X110880Y29435D01*
G01X110940Y29421D01*
G01X110999Y29403D01*
G01X111058Y29383D01*
G01X111115Y29360D01*
G01X111169Y29334D01*
G01X111220Y29307D01*
G01X111266Y29277D01*
G01X111309Y29246D01*
G01X111345Y29213D01*
G01X111368Y29192D01*
G01X111389Y29176D01*
G01X111409Y29163D01*
G01X111427Y29156D01*
G01X111445Y29153D01*
G01X111461Y29155D01*
G01X111476Y29163D01*
G01X111490Y29176D01*
G01X111503Y29193D01*
G01X111515Y29217D01*
G01X111526Y29247D01*
G01X111535Y29282D01*
G01X111544Y29323D01*
G01X111551Y29370D01*
G01X111559Y29424D01*
G01X111564Y29484D01*
G01X111570Y29551D01*
G01X111574Y29624D01*
G01X111577Y29704D01*
G01X111580Y29791D01*
G01X111582Y29886D01*
G01X111584Y29987D01*
G01X111585Y30097D01*
G01X111585Y30213D01*
G01X111584Y30311D01*
G01X111583Y30403D01*
G01X111581Y30493D01*
G01X111577Y30579D01*
G01X111573Y30661D01*
G01X111568Y30740D01*
G01X111562Y30814D01*
G01X111555Y30886D01*
G01X111547Y30952D01*
G01X111538Y31016D01*
G01X111529Y31075D01*
G01X111519Y31129D01*
G01X111508Y31181D01*
G01X111497Y31227D01*
G01X111484Y31271D01*
G01X111471Y31309D01*
G01X111457Y31343D01*
G01X111443Y31374D01*
G01X111428Y31400D01*
G01X111413Y31421D01*
G01X111397Y31438D01*
G01X111381Y31450D01*
G01X111363Y31459D01*
G37*

%LPD*%
G36*
G01X106421Y31453D02*
G01X106289Y31454D01*
G01X106170Y31453D01*
G01X106058Y31452D01*
G01X105952Y31450D01*
G01X105853Y31447D01*
G01X105759Y31443D01*
G01X105671Y31438D01*
G01X105590Y31432D01*
G01X105513Y31426D01*
G01X105442Y31417D01*
G01X105376Y31408D01*
G01X105315Y31398D01*
G01X105259Y31386D01*
G01X105208Y31373D01*
G01X105160Y31360D01*
G01X105118Y31344D01*
G01X105078Y31327D01*
G01X105043Y31309D01*
G01X105012Y31289D01*
G01X104985Y31268D01*
G01X104960Y31245D01*
G01X104939Y31220D01*
G01X104921Y31194D01*
G01X104905Y31167D01*
G01X104892Y31137D01*
G01X104875Y31090D01*
G01X104860Y31040D01*
G01X104845Y30986D01*
G01X104832Y30930D01*
G01X104819Y30871D01*
G01X104809Y30810D01*
G01X104799Y30748D01*
G01X104790Y30683D01*
G01X104782Y30617D01*
G01X104776Y30550D01*
G01X104771Y30482D01*
G01X104767Y30413D01*
G01X104763Y30343D01*
G01X104761Y30273D01*
G01X104759Y30133D01*
G01X104760Y30063D01*
G01X104762Y29994D01*
G01X104765Y29926D01*
G01X104769Y29858D01*
G01X104779Y29728D01*
G01X104785Y29666D01*
G01X104793Y29605D01*
G01X104801Y29547D01*
G01X104810Y29491D01*
G01X104820Y29438D01*
G01X104831Y29388D01*
G01X104843Y29341D01*
G01X104855Y29298D01*
G01X104869Y29258D01*
G01X104883Y29222D01*
G01X104898Y29190D01*
G01X104913Y29162D01*
G01X104929Y29140D01*
G01X104946Y29121D01*
G01X104964Y29109D01*
G01X104982Y29101D01*
G01X105001Y29098D01*
G01X105021Y29102D01*
G01X105050Y29116D01*
G01X105078Y29137D01*
G01X105105Y29165D01*
G01X105131Y29200D01*
G01X105155Y29240D01*
G01X105179Y29286D01*
G01X105200Y29338D01*
G01X105221Y29393D01*
G01X105240Y29453D01*
G01X105257Y29517D01*
G01X105274Y29583D01*
G01X105288Y29653D01*
G01X105301Y29724D01*
G01X105312Y29797D01*
G01X105322Y29871D01*
G01X105330Y29946D01*
G01X105336Y30021D01*
G01X105340Y30096D01*
G01X105343Y30170D01*
G01X105343Y30243D01*
G01X105342Y30314D01*
G01X105338Y30383D01*
G01X105332Y30450D01*
G01X105325Y30513D01*
G01X105315Y30572D01*
G01X105304Y30628D01*
G01X105289Y30678D01*
G01X105273Y30724D01*
G01X105254Y30764D01*
G01X105233Y30798D01*
G01X105210Y30826D01*
G01X105184Y30846D01*
G01X105170Y30857D01*
G01X105164Y30866D01*
G01X105166Y30875D01*
G01X105176Y30884D01*
G01X105192Y30891D01*
G01X105216Y30898D01*
G01X105247Y30903D01*
G01X105284Y30908D01*
G01X105327Y30912D01*
G01X105376Y30915D01*
G01X105431Y30918D01*
G01X105491Y30919D01*
G01X105628Y30919D01*
G01X105703Y30917D01*
G01X105783Y30915D01*
G01X105867Y30911D01*
G01X105955Y30906D01*
G01X106047Y30901D01*
G01X106142Y30895D01*
G01X106257Y30887D01*
G01X106365Y30880D01*
G01X106465Y30874D01*
G01X106560Y30870D01*
G01X106648Y30868D01*
G01X106731Y30866D01*
G01X106807Y30866D01*
G01X106877Y30868D01*
G01X106942Y30871D01*
G01X107003Y30876D01*
G01X107058Y30882D01*
G01X107109Y30890D01*
G01X107155Y30900D01*
G01X107197Y30911D01*
G01X107235Y30925D01*
G01X107269Y30939D01*
G01X107300Y30957D01*
G01X107328Y30975D01*
G01X107353Y30996D01*
G01X107375Y31019D01*
G01X107394Y31044D01*
G01X107412Y31071D01*
G01X107427Y31100D01*
G01X107440Y31131D01*
G01X107452Y31165D01*
G01X107461Y31196D01*
G01X107466Y31224D01*
G01X107467Y31251D01*
G01X107465Y31275D01*
G01X107458Y31298D01*
G01X107447Y31318D01*
G01X107431Y31337D01*
G01X107410Y31354D01*
G01X107383Y31370D01*
G01X107351Y31383D01*
G01X107313Y31396D01*
G01X107268Y31406D01*
G01X107218Y31416D01*
G01X107160Y31424D01*
G01X107095Y31431D01*
G01X107023Y31437D01*
G01X106943Y31442D01*
G01X106856Y31446D01*
G01X106760Y31449D01*
G01X106656Y31451D01*
G01X106543Y31453D01*
G01X106421Y31453D01*
G37*

%LPD*%
G36*
G01X108891Y31398D02*
G01X108868Y31401D01*
G01X108844Y31400D01*
G01X108819Y31394D01*
G01X108795Y31383D01*
G01X108769Y31368D01*
G01X108743Y31348D01*
G01X108716Y31323D01*
G01X108705Y31309D01*
G01X108693Y31287D01*
G01X108683Y31259D01*
G01X108673Y31225D01*
G01X108662Y31185D01*
G01X108653Y31140D01*
G01X108644Y31089D01*
G01X108635Y31033D01*
G01X108627Y30973D01*
G01X108619Y30909D01*
G01X108612Y30840D01*
G01X108605Y30769D01*
G01X108599Y30694D01*
G01X108594Y30615D01*
G01X108590Y30535D01*
G01X108586Y30452D01*
G01X108583Y30367D01*
G01X108581Y30281D01*
G01X108579Y30193D01*
G01X108579Y30025D01*
G01X108581Y29949D01*
G01X108583Y29877D01*
G01X108587Y29807D01*
G01X108591Y29741D01*
G01X108596Y29678D01*
G01X108602Y29619D01*
G01X108609Y29562D01*
G01X108617Y29508D01*
G01X108625Y29458D01*
G01X108634Y29411D01*
G01X108644Y29367D01*
G01X108654Y29326D01*
G01X108665Y29288D01*
G01X108676Y29253D01*
G01X108688Y29221D01*
G01X108701Y29193D01*
G01X108713Y29168D01*
G01X108726Y29146D01*
G01X108740Y29127D01*
G01X108754Y29111D01*
G01X108768Y29098D01*
G01X108782Y29088D01*
G01X108797Y29082D01*
G01X108812Y29078D01*
G01X108827Y29078D01*
G01X108841Y29080D01*
G01X108856Y29086D01*
G01X108872Y29095D01*
G01X108886Y29107D01*
G01X108902Y29122D01*
G01X108916Y29140D01*
G01X108931Y29161D01*
G01X108946Y29186D01*
G01X108961Y29213D01*
G01X108975Y29244D01*
G01X108989Y29277D01*
G01X109002Y29314D01*
G01X109016Y29353D01*
G01X109029Y29396D01*
G01X109041Y29442D01*
G01X109054Y29491D01*
G01X109065Y29543D01*
G01X109076Y29598D01*
G01X109087Y29656D01*
G01X109097Y29717D01*
G01X109106Y29781D01*
G01X109115Y29848D01*
G01X109123Y29918D01*
G01X109130Y29991D01*
G01X109136Y30068D01*
G01X109142Y30147D01*
G01X109147Y30232D01*
G01X109150Y30316D01*
G01X109152Y30396D01*
G01X109153Y30474D01*
G01X109152Y30550D01*
G01X109150Y30623D01*
G01X109146Y30693D01*
G01X109141Y30761D01*
G01X109135Y30825D01*
G01X109128Y30887D01*
G01X109119Y30946D01*
G01X109109Y31001D01*
G01X109099Y31053D01*
G01X109087Y31102D01*
G01X109074Y31147D01*
G01X109060Y31189D01*
G01X109044Y31228D01*
G01X109029Y31263D01*
G01X109011Y31294D01*
G01X108994Y31321D01*
G01X108974Y31345D01*
G01X108955Y31365D01*
G01X108934Y31380D01*
G01X108913Y31391D01*
G01X108891Y31398D01*
G37*

%LPD*%
G36*
G01X121070Y31421D02*
G01X120979Y31422D01*
G01X120891Y31421D01*
G01X120806Y31419D01*
G01X120723Y31416D01*
G01X120644Y31413D01*
G01X120569Y31409D01*
G01X120497Y31405D01*
G01X120429Y31399D01*
G01X120366Y31394D01*
G01X120306Y31386D01*
G01X120251Y31379D01*
G01X120202Y31371D01*
G01X120157Y31363D01*
G01X120117Y31353D01*
G01X120083Y31343D01*
G01X120055Y31333D01*
G01X120032Y31322D01*
G01X120016Y31310D01*
G01X120007Y31298D01*
G01X120003Y31285D01*
G01X120006Y31259D01*
G01X120014Y31233D01*
G01X120027Y31208D01*
G01X120046Y31184D01*
G01X120069Y31160D01*
G01X120097Y31137D01*
G01X120129Y31115D01*
G01X120165Y31093D01*
G01X120205Y31073D01*
G01X120248Y31053D01*
G01X120295Y31034D01*
G01X120345Y31016D01*
G01X120398Y30999D01*
G01X120453Y30983D01*
G01X120511Y30967D01*
G01X120571Y30953D01*
G01X120633Y30939D01*
G01X120696Y30927D01*
G01X120761Y30916D01*
G01X120828Y30905D01*
G01X120895Y30896D01*
G01X120963Y30887D01*
G01X121032Y30880D01*
G01X121101Y30874D01*
G01X121170Y30869D01*
G01X121239Y30865D01*
G01X121308Y30862D01*
G01X121442Y30860D01*
G01X121508Y30861D01*
G01X121573Y30863D01*
G01X121636Y30866D01*
G01X121697Y30871D01*
G01X121756Y30876D01*
G01X121813Y30884D01*
G01X121867Y30892D01*
G01X121919Y30902D01*
G01X121968Y30913D01*
G01X122013Y30926D01*
G01X122055Y30939D01*
G01X122094Y30955D01*
G01X122128Y30971D01*
G01X122159Y30990D01*
G01X122185Y31010D01*
G01X122206Y31031D01*
G01X122223Y31053D01*
G01X122234Y31078D01*
G01X122240Y31104D01*
G01X122244Y31123D01*
G01X122249Y31131D01*
G01X122255Y31128D01*
G01X122263Y31115D01*
G01X122270Y31091D01*
G01X122279Y31057D01*
G01X122288Y31014D01*
G01X122298Y30961D01*
G01X122309Y30900D01*
G01X122320Y30831D01*
G01X122331Y30755D01*
G01X122342Y30670D01*
G01X122355Y30579D01*
G01X122367Y30482D01*
G01X122378Y30378D01*
G01X122391Y30269D01*
G01X122400Y30187D01*
G01X122410Y30107D01*
G01X122421Y30030D01*
G01X122432Y29956D01*
G01X122443Y29885D01*
G01X122455Y29817D01*
G01X122468Y29752D01*
G01X122481Y29690D01*
G01X122494Y29630D01*
G01X122507Y29574D01*
G01X122521Y29521D01*
G01X122535Y29470D01*
G01X122550Y29422D01*
G01X122564Y29377D01*
G01X122579Y29335D01*
G01X122594Y29296D01*
G01X122609Y29260D01*
G01X122624Y29227D01*
G01X122640Y29196D01*
G01X122655Y29169D01*
G01X122670Y29145D01*
G01X122685Y29123D01*
G01X122701Y29105D01*
G01X122715Y29089D01*
G01X122730Y29077D01*
G01X122745Y29067D01*
G01X122760Y29061D01*
G01X122774Y29057D01*
G01X122788Y29057D01*
G01X122803Y29059D01*
G01X122816Y29064D01*
G01X122830Y29073D01*
G01X122842Y29084D01*
G01X122855Y29098D01*
G01X122867Y29116D01*
G01X122879Y29136D01*
G01X122890Y29159D01*
G01X122901Y29186D01*
G01X122910Y29215D01*
G01X122920Y29248D01*
G01X122929Y29283D01*
G01X122937Y29322D01*
G01X122945Y29364D01*
G01X122952Y29408D01*
G01X122958Y29456D01*
G01X122964Y29506D01*
G01X122968Y29560D01*
G01X122972Y29617D01*
G01X122975Y29677D01*
G01X122977Y29740D01*
G01X122978Y29806D01*
G01X122979Y29876D01*
G01X122978Y29948D01*
G01X122976Y30023D01*
G01X122974Y30102D01*
G01X122970Y30184D01*
G01X122909Y31353D01*
G01X121456Y31412D01*
G01X121357Y31416D01*
G01X121259Y31418D01*
G01X121164Y31421D01*
G01X121070Y31421D01*
G37*

%LPD*%
G36*
G01X102213Y32449D02*
G01X102181Y32453D01*
G01X102138Y32446D01*
G01X102097Y32423D01*
G01X102060Y32387D01*
G01X102028Y32340D01*
G01X102002Y32283D01*
G01X101982Y32218D01*
G01X101969Y32145D01*
G01X101964Y32068D01*
G01X101962Y32013D01*
G01X101954Y31955D01*
G01X101942Y31895D01*
G01X101925Y31834D01*
G01X101905Y31773D01*
G01X101880Y31711D01*
G01X101852Y31651D01*
G01X101822Y31592D01*
G01X101789Y31537D01*
G01X101753Y31485D01*
G01X101716Y31437D01*
G01X101677Y31395D01*
G01X101611Y31323D01*
G01X101562Y31255D01*
G01X101528Y31190D01*
G01X101510Y31128D01*
G01X101507Y31069D01*
G01X101520Y31012D01*
G01X101549Y30957D01*
G01X101593Y30904D01*
G01X101638Y30852D01*
G01X101667Y30798D01*
G01X101680Y30743D01*
G01X101679Y30687D01*
G01X101663Y30629D01*
G01X101631Y30569D01*
G01X101583Y30506D01*
G01X101520Y30442D01*
G01X101492Y30412D01*
G01X101465Y30377D01*
G01X101439Y30338D01*
G01X101416Y30296D01*
G01X101395Y30250D01*
G01X101377Y30201D01*
G01X101360Y30149D01*
G01X101346Y30096D01*
G01X101334Y30039D01*
G01X101325Y29981D01*
G01X101318Y29922D01*
G01X101314Y29862D01*
G01X101313Y29802D01*
G01X101314Y29740D01*
G01X101318Y29679D01*
G01X101326Y29618D01*
G01X101339Y29537D01*
G01X101354Y29462D01*
G01X101371Y29394D01*
G01X101389Y29332D01*
G01X101409Y29276D01*
G01X101429Y29227D01*
G01X101451Y29184D01*
G01X101473Y29148D01*
G01X101496Y29119D01*
G01X101519Y29096D01*
G01X101543Y29080D01*
G01X101567Y29071D01*
G01X101590Y29068D01*
G01X101614Y29073D01*
G01X101637Y29084D01*
G01X101660Y29102D01*
G01X101681Y29127D01*
G01X101702Y29159D01*
G01X101722Y29199D01*
G01X101741Y29245D01*
G01X101758Y29299D01*
G01X101774Y29359D01*
G01X101788Y29427D01*
G01X101800Y29501D01*
G01X101813Y29563D01*
G01X101830Y29623D01*
G01X101854Y29681D01*
G01X101882Y29736D01*
G01X101915Y29789D01*
G01X101951Y29838D01*
G01X101991Y29882D01*
G01X102034Y29922D01*
G01X102079Y29956D01*
G01X102125Y29983D01*
G01X102174Y30004D01*
G01X102223Y30017D01*
G01X102292Y30029D01*
G01X102350Y30033D01*
G01X102398Y30031D01*
G01X102437Y30020D01*
G01X102467Y30002D01*
G01X102488Y29974D01*
G01X102500Y29936D01*
G01X102505Y29886D01*
G01X102502Y29826D01*
G01X102492Y29754D01*
G01X102475Y29668D01*
G01X102452Y29570D01*
G01X102434Y29492D01*
G01X102421Y29419D01*
G01X102413Y29353D01*
G01X102409Y29292D01*
G01X102410Y29238D01*
G01X102416Y29191D01*
G01X102426Y29150D01*
G01X102440Y29116D01*
G01X102460Y29089D01*
G01X102484Y29069D01*
G01X102512Y29057D01*
G01X102544Y29053D01*
G01X102589Y29061D01*
G01X102630Y29084D01*
G01X102668Y29120D01*
G01X102701Y29168D01*
G01X102728Y29226D01*
G01X102749Y29292D01*
G01X102762Y29365D01*
G01X102767Y29443D01*
G01X102770Y29498D01*
G01X102779Y29554D01*
G01X102794Y29611D01*
G01X102814Y29668D01*
G01X102840Y29724D01*
G01X102869Y29779D01*
G01X102903Y29831D01*
G01X102940Y29881D01*
G01X102981Y29927D01*
G01X103024Y29970D01*
G01X103070Y30006D01*
G01X103117Y30037D01*
G01X103183Y30079D01*
G01X103234Y30117D01*
G01X103271Y30153D01*
G01X103292Y30184D01*
G01X103298Y30209D01*
G01X103288Y30229D01*
G01X103261Y30242D01*
G01X103217Y30248D01*
G01X103165Y30253D01*
G01X103119Y30265D01*
G01X103079Y30285D01*
G01X103046Y30311D01*
G01X103019Y30342D01*
G01X102998Y30378D01*
G01X102984Y30418D01*
G01X102975Y30462D01*
G01X102973Y30509D01*
G01X102976Y30558D01*
G01X102986Y30609D01*
G01X103001Y30661D01*
G01X103022Y30713D01*
G01X103048Y30765D01*
G01X103080Y30816D01*
G01X103117Y30866D01*
G01X103159Y30914D01*
G01X103207Y30959D01*
G01X103259Y31000D01*
G01X103318Y31037D01*
G01X103392Y31084D01*
G01X103449Y31124D01*
G01X103487Y31160D01*
G01X103507Y31190D01*
G01X103509Y31214D01*
G01X103491Y31231D01*
G01X103456Y31243D01*
G01X103402Y31247D01*
G01X103357Y31252D01*
G01X103319Y31264D01*
G01X103287Y31283D01*
G01X103261Y31311D01*
G01X103241Y31346D01*
G01X103227Y31391D01*
G01X103220Y31444D01*
G01X103218Y31506D01*
G01X103222Y31577D01*
G01X103231Y31659D01*
G01X103247Y31751D01*
G01X103267Y31853D01*
G01X103284Y31937D01*
G01X103296Y32016D01*
G01X103305Y32091D01*
G01X103309Y32160D01*
G01X103310Y32224D01*
G01X103307Y32281D01*
G01X103299Y32331D01*
G01X103288Y32374D01*
G01X103274Y32408D01*
G01X103255Y32432D01*
G01X103233Y32448D01*
G01X103208Y32453D01*
G01X103181Y32448D01*
G01X103153Y32432D01*
G01X103124Y32406D01*
G01X103095Y32371D01*
G01X103066Y32328D01*
G01X103038Y32277D01*
G01X103010Y32220D01*
G01X102983Y32156D01*
G01X102959Y32086D01*
G01X102935Y32012D01*
G01X102914Y31935D01*
G01X102897Y31853D01*
G01X102876Y31764D01*
G01X102852Y31682D01*
G01X102824Y31605D01*
G01X102793Y31535D01*
G01X102759Y31471D01*
G01X102722Y31416D01*
G01X102682Y31368D01*
G01X102641Y31328D01*
G01X102596Y31296D01*
G01X102551Y31272D01*
G01X102503Y31258D01*
G01X102455Y31253D01*
G01X102396Y31256D01*
G01X102345Y31265D01*
G01X102304Y31281D01*
G01X102270Y31304D01*
G01X102244Y31336D01*
G01X102226Y31376D01*
G01X102215Y31427D01*
G01X102212Y31488D01*
G01X102215Y31561D01*
G01X102226Y31645D01*
G01X102242Y31743D01*
G01X102265Y31853D01*
G01X102283Y31945D01*
G01X102297Y32029D01*
G01X102306Y32106D01*
G01X102310Y32177D01*
G01X102310Y32240D01*
G01X102305Y32295D01*
G01X102296Y32343D01*
G01X102282Y32382D01*
G01X102263Y32413D01*
G01X102240Y32435D01*
G01X102213Y32449D01*
G37*

%LPC*%
G36*
G01X102409Y31046D02*
G01X102355Y31046D01*
G01X102300Y31035D01*
G01X102245Y31015D01*
G01X102193Y30985D01*
G01X102143Y30945D01*
G01X102096Y30895D01*
G01X102054Y30836D01*
G01X102032Y30788D01*
G01X102020Y30733D01*
G01X102018Y30675D01*
G01X102027Y30615D01*
G01X102045Y30554D01*
G01X102072Y30494D01*
G01X102107Y30439D01*
G01X102151Y30388D01*
G01X102213Y30331D01*
G01X102270Y30292D01*
G01X102322Y30272D01*
G01X102371Y30269D01*
G01X102418Y30285D01*
G01X102464Y30320D01*
G01X102512Y30374D01*
G01X102561Y30446D01*
G01X102595Y30507D01*
G01X102623Y30570D01*
G01X102644Y30634D01*
G01X102658Y30697D01*
G01X102665Y30756D01*
G01X102665Y30809D01*
G01X102657Y30856D01*
G01X102641Y30894D01*
G01X102603Y30945D01*
G01X102560Y30986D01*
G01X102513Y31016D01*
G01X102462Y31036D01*
G01X102409Y31046D01*
G37*

%LPD*%
G36*
G01X121232Y29217D02*
G01X121154Y29217D01*
G01X121077Y29216D01*
G01X121001Y29214D01*
G01X120928Y29211D01*
G01X120856Y29207D01*
G01X120788Y29202D01*
G01X120722Y29195D01*
G01X120659Y29187D01*
G01X120601Y29179D01*
G01X120546Y29169D01*
G01X120496Y29157D01*
G01X120451Y29145D01*
G01X120410Y29130D01*
G01X120376Y29116D01*
G01X120347Y29099D01*
G01X120325Y29081D01*
G01X120309Y29062D01*
G01X120289Y29017D01*
G01X120281Y28971D01*
G01X120285Y28925D01*
G01X120302Y28880D01*
G01X120329Y28838D01*
G01X120366Y28799D01*
G01X120413Y28766D01*
G01X120468Y28739D01*
G01X120509Y28726D01*
G01X120555Y28713D01*
G01X120604Y28703D01*
G01X120658Y28694D01*
G01X120716Y28686D01*
G01X120778Y28679D01*
G01X120842Y28674D01*
G01X120910Y28671D01*
G01X120979Y28668D01*
G01X121052Y28667D01*
G01X121125Y28667D01*
G01X121200Y28668D01*
G01X121276Y28670D01*
G01X121353Y28674D01*
G01X121429Y28678D01*
G01X121507Y28684D01*
G01X121583Y28690D01*
G01X121660Y28698D01*
G01X121734Y28706D01*
G01X121808Y28715D01*
G01X121880Y28726D01*
G01X121949Y28736D01*
G01X122016Y28748D01*
G01X122081Y28761D01*
G01X122142Y28773D01*
G01X122200Y28788D01*
G01X122254Y28802D01*
G01X122304Y28816D01*
G01X122348Y28832D01*
G01X122389Y28848D01*
G01X122424Y28865D01*
G01X122454Y28882D01*
G01X122477Y28899D01*
G01X122494Y28917D01*
G01X122505Y28935D01*
G01X122508Y28954D01*
G01X122505Y28973D01*
G01X122494Y28993D01*
G01X122476Y29012D01*
G01X122451Y29030D01*
G01X122421Y29048D01*
G01X122384Y29064D01*
G01X122342Y29080D01*
G01X122296Y29095D01*
G01X122244Y29110D01*
G01X122188Y29123D01*
G01X122128Y29136D01*
G01X122064Y29147D01*
G01X121997Y29158D01*
G01X121928Y29169D01*
G01X121856Y29178D01*
G01X121782Y29186D01*
G01X121628Y29200D01*
G01X121470Y29210D01*
G01X121391Y29213D01*
G01X121311Y29215D01*
G01X121232Y29217D01*
G37*

%LPD*%
G36*
G01X119132Y28850D02*
G01X119126Y28854D01*
G01X119106Y28847D01*
G01X119077Y28831D01*
G01X119043Y28805D01*
G01X119003Y28770D01*
G01X118958Y28728D01*
G01X118911Y28679D01*
G01X118862Y28625D01*
G01X118813Y28568D01*
G01X118791Y28539D01*
G01X118771Y28505D01*
G01X118752Y28467D01*
G01X118735Y28425D01*
G01X118719Y28380D01*
G01X118704Y28331D01*
G01X118691Y28280D01*
G01X118680Y28225D01*
G01X118670Y28168D01*
G01X118660Y28108D01*
G01X118653Y28046D01*
G01X118647Y27983D01*
G01X118642Y27918D01*
G01X118639Y27852D01*
G01X118635Y27716D01*
G01X118636Y27647D01*
G01X118640Y27509D01*
G01X118644Y27440D01*
G01X118649Y27372D01*
G01X118663Y27238D01*
G01X118672Y27173D01*
G01X118682Y27109D01*
G01X118692Y27046D01*
G01X118705Y26986D01*
G01X118717Y26928D01*
G01X118731Y26873D01*
G01X118747Y26820D01*
G01X118762Y26771D01*
G01X118780Y26725D01*
G01X118798Y26681D01*
G01X118817Y26643D01*
G01X118837Y26608D01*
G01X118858Y26577D01*
G01X118880Y26551D01*
G01X118903Y26529D01*
G01X118927Y26513D01*
G01X118951Y26503D01*
G01X118977Y26496D01*
G01X119002Y26496D01*
G01X119025Y26501D01*
G01X119047Y26513D01*
G01X119067Y26530D01*
G01X119085Y26554D01*
G01X119102Y26584D01*
G01X119118Y26621D01*
G01X119132Y26665D01*
G01X119145Y26716D01*
G01X119156Y26773D01*
G01X119166Y26838D01*
G01X119174Y26911D01*
G01X119182Y26991D01*
G01X119188Y27078D01*
G01X119193Y27174D01*
G01X119197Y27277D01*
G01X119199Y27389D01*
G01X119201Y27508D01*
G01X119201Y27736D01*
G01X119200Y27834D01*
G01X119199Y27929D01*
G01X119197Y28020D01*
G01X119195Y28109D01*
G01X119193Y28195D01*
G01X119190Y28276D01*
G01X119187Y28354D01*
G01X119183Y28427D01*
G01X119179Y28496D01*
G01X119175Y28559D01*
G01X119170Y28618D01*
G01X119165Y28671D01*
G01X119160Y28717D01*
G01X119155Y28758D01*
G01X119150Y28791D01*
G01X119144Y28818D01*
G01X119138Y28837D01*
G01X119132Y28850D01*
G37*

%LPD*%
G36*
G01X108747Y28737D02*
G01X108725Y28742D01*
G01X108705Y28741D01*
G01X108687Y28735D01*
G01X108670Y28724D01*
G01X108656Y28705D01*
G01X108643Y28681D01*
G01X108631Y28650D01*
G01X108621Y28612D01*
G01X108612Y28568D01*
G01X108605Y28515D01*
G01X108598Y28455D01*
G01X108593Y28387D01*
G01X108589Y28310D01*
G01X108585Y28225D01*
G01X108583Y28131D01*
G01X108581Y28028D01*
G01X108580Y27916D01*
G01X108579Y27793D01*
G01X108579Y27552D01*
G01X108580Y27447D01*
G01X108582Y27350D01*
G01X108585Y27257D01*
G01X108588Y27171D01*
G01X108592Y27091D01*
G01X108597Y27016D01*
G01X108603Y26946D01*
G01X108610Y26882D01*
G01X108618Y26823D01*
G01X108626Y26769D01*
G01X108636Y26720D01*
G01X108646Y26677D01*
G01X108657Y26638D01*
G01X108670Y26605D01*
G01X108683Y26576D01*
G01X108697Y26551D01*
G01X108713Y26531D01*
G01X108730Y26516D01*
G01X108747Y26505D01*
G01X108766Y26498D01*
G01X108786Y26495D01*
G01X108807Y26497D01*
G01X108829Y26503D01*
G01X108858Y26515D01*
G01X108885Y26533D01*
G01X108911Y26556D01*
G01X108935Y26585D01*
G01X108958Y26618D01*
G01X108980Y26656D01*
G01X109001Y26698D01*
G01X109020Y26744D01*
G01X109038Y26794D01*
G01X109055Y26847D01*
G01X109070Y26903D01*
G01X109084Y26963D01*
G01X109096Y27024D01*
G01X109107Y27088D01*
G01X109117Y27154D01*
G01X109125Y27222D01*
G01X109132Y27291D01*
G01X109138Y27362D01*
G01X109142Y27433D01*
G01X109145Y27505D01*
G01X109146Y27577D01*
G01X109146Y27650D01*
G01X109145Y27722D01*
G01X109141Y27794D01*
G01X109137Y27865D01*
G01X109131Y27935D01*
G01X109124Y28003D01*
G01X109115Y28070D01*
G01X109104Y28135D01*
G01X109092Y28198D01*
G01X109079Y28258D01*
G01X109064Y28316D01*
G01X109047Y28370D01*
G01X109029Y28422D01*
G01X109010Y28470D01*
G01X108989Y28514D01*
G01X108966Y28553D01*
G01X108942Y28589D01*
G01X108916Y28620D01*
G01X108889Y28645D01*
G01X108856Y28672D01*
G01X108825Y28695D01*
G01X108797Y28713D01*
G01X108771Y28728D01*
G01X108747Y28737D01*
G37*

%LPD*%
G36*
G01X111381Y28695D02*
G01X111361Y28700D01*
G01X111339Y28698D01*
G01X111316Y28689D01*
G01X111290Y28674D01*
G01X111263Y28652D01*
G01X111234Y28625D01*
G01X111211Y28599D01*
G01X111188Y28568D01*
G01X111167Y28533D01*
G01X111147Y28494D01*
G01X111128Y28453D01*
G01X111110Y28408D01*
G01X111093Y28359D01*
G01X111078Y28308D01*
G01X111064Y28254D01*
G01X111051Y28198D01*
G01X111040Y28140D01*
G01X111029Y28080D01*
G01X111021Y28018D01*
G01X111012Y27955D01*
G01X111006Y27891D01*
G01X111001Y27825D01*
G01X110997Y27759D01*
G01X110994Y27692D01*
G01X110993Y27625D01*
G01X110993Y27558D01*
G01X110994Y27492D01*
G01X110997Y27425D01*
G01X111001Y27359D01*
G01X111006Y27294D01*
G01X111013Y27230D01*
G01X111021Y27167D01*
G01X111030Y27106D01*
G01X111041Y27046D01*
G01X111053Y26988D01*
G01X111066Y26933D01*
G01X111082Y26880D01*
G01X111097Y26830D01*
G01X111115Y26782D01*
G01X111134Y26738D01*
G01X111155Y26697D01*
G01X111177Y26659D01*
G01X111202Y26621D01*
G01X111226Y26586D01*
G01X111250Y26556D01*
G01X111273Y26529D01*
G01X111294Y26506D01*
G01X111315Y26488D01*
G01X111336Y26473D01*
G01X111355Y26462D01*
G01X111373Y26455D01*
G01X111390Y26452D01*
G01X111407Y26453D01*
G01X111423Y26458D01*
G01X111438Y26466D01*
G01X111452Y26479D01*
G01X111466Y26495D01*
G01X111478Y26516D01*
G01X111490Y26541D01*
G01X111501Y26569D01*
G01X111510Y26601D01*
G01X111519Y26637D01*
G01X111528Y26677D01*
G01X111535Y26721D01*
G01X111541Y26769D01*
G01X111547Y26821D01*
G01X111551Y26876D01*
G01X111555Y26935D01*
G01X111559Y26999D01*
G01X111561Y27066D01*
G01X111562Y27137D01*
G01X111562Y27290D01*
G01X111560Y27373D01*
G01X111558Y27460D01*
G01X111554Y27550D01*
G01X111550Y27645D01*
G01X111546Y27743D01*
G01X111538Y27873D01*
G01X111531Y27994D01*
G01X111522Y28103D01*
G01X111514Y28202D01*
G01X111505Y28292D01*
G01X111495Y28372D01*
G01X111484Y28442D01*
G01X111473Y28504D01*
G01X111460Y28556D01*
G01X111447Y28600D01*
G01X111433Y28636D01*
G01X111417Y28663D01*
G01X111400Y28683D01*
G01X111381Y28695D01*
G37*

%LPD*%
G36*
G01X116410Y31451D02*
G01X116381Y31454D01*
G01X116374Y31451D01*
G01X116367Y31445D01*
G01X116360Y31435D01*
G01X116354Y31421D01*
G01X116346Y31403D01*
G01X116340Y31380D01*
G01X116333Y31355D01*
G01X116327Y31326D01*
G01X116321Y31292D01*
G01X116314Y31256D01*
G01X116308Y31216D01*
G01X116302Y31174D01*
G01X116297Y31127D01*
G01X116291Y31078D01*
G01X116285Y31025D01*
G01X116280Y30969D01*
G01X116275Y30911D01*
G01X116269Y30850D01*
G01X116265Y30786D01*
G01X116260Y30719D01*
G01X116255Y30650D01*
G01X116251Y30578D01*
G01X116246Y30504D01*
G01X116243Y30427D01*
G01X116239Y30349D01*
G01X116235Y30268D01*
G01X116232Y30185D01*
G01X116229Y30100D01*
G01X116226Y30013D01*
G01X116223Y29924D01*
G01X116220Y29834D01*
G01X116218Y29742D01*
G01X116216Y29648D01*
G01X116214Y29553D01*
G01X116213Y29456D01*
G01X116211Y29358D01*
G01X116211Y29258D01*
G01X116210Y29158D01*
G01X116209Y29056D01*
G01X116209Y28840D01*
G01X116210Y28730D01*
G01X116210Y28621D01*
G01X116211Y28516D01*
G01X116212Y28414D01*
G01X116214Y28314D01*
G01X116215Y28216D01*
G01X116217Y28121D01*
G01X116219Y28029D01*
G01X116222Y27939D01*
G01X116225Y27852D01*
G01X116228Y27768D01*
G01X116231Y27686D01*
G01X116234Y27607D01*
G01X116238Y27531D01*
G01X116242Y27457D01*
G01X116246Y27385D01*
G01X116250Y27317D01*
G01X116255Y27251D01*
G01X116260Y27187D01*
G01X116265Y27126D01*
G01X116271Y27068D01*
G01X116277Y27013D01*
G01X116282Y26960D01*
G01X116289Y26909D01*
G01X116296Y26861D01*
G01X116302Y26816D01*
G01X116309Y26773D01*
G01X116316Y26733D01*
G01X116324Y26696D01*
G01X116332Y26661D01*
G01X116340Y26629D01*
G01X116348Y26599D01*
G01X116357Y26572D01*
G01X116366Y26547D01*
G01X116375Y26525D01*
G01X116385Y26506D01*
G01X116394Y26489D01*
G01X116404Y26475D01*
G01X116415Y26463D01*
G01X116425Y26455D01*
G01X116435Y26448D01*
G01X116447Y26444D01*
G01X116458Y26443D01*
G01X116469Y26444D01*
G01X116481Y26448D01*
G01X116493Y26454D01*
G01X116505Y26463D01*
G01X116518Y26475D01*
G01X116531Y26489D01*
G01X116544Y26506D01*
G01X116558Y26524D01*
G01X116571Y26546D01*
G01X116585Y26571D01*
G01X116599Y26598D01*
G01X116614Y26627D01*
G01X116629Y26659D01*
G01X116644Y26693D01*
G01X116659Y26730D01*
G01X116675Y26770D01*
G01X116691Y26817D01*
G01X116707Y26868D01*
G01X116721Y26921D01*
G01X116734Y26978D01*
G01X116746Y27036D01*
G01X116756Y27097D01*
G01X116765Y27160D01*
G01X116773Y27225D01*
G01X116779Y27291D01*
G01X116784Y27359D01*
G01X116788Y27426D01*
G01X116791Y27495D01*
G01X116792Y27564D01*
G01X116793Y27632D01*
G01X116792Y27701D01*
G01X116790Y27769D01*
G01X116787Y27837D01*
G01X116782Y27903D01*
G01X116777Y27968D01*
G01X116770Y28031D01*
G01X116762Y28092D01*
G01X116754Y28151D01*
G01X116744Y28208D01*
G01X116733Y28262D01*
G01X116720Y28313D01*
G01X116707Y28361D01*
G01X116692Y28405D01*
G01X116677Y28445D01*
G01X116661Y28482D01*
G01X116643Y28514D01*
G01X116625Y28541D01*
G01X116605Y28564D01*
G01X116590Y28581D01*
G01X116583Y28598D01*
G01X116582Y28614D01*
G01X116588Y28630D01*
G01X116600Y28644D01*
G01X116619Y28657D01*
G01X116645Y28670D01*
G01X116677Y28682D01*
G01X116715Y28694D01*
G01X116760Y28704D01*
G01X116811Y28713D01*
G01X116868Y28721D01*
G01X116932Y28729D01*
G01X117001Y28735D01*
G01X117076Y28741D01*
G01X117157Y28745D01*
G01X117245Y28749D01*
G01X117337Y28751D01*
G01X117436Y28753D01*
G01X117539Y28754D01*
G01X117645Y28754D01*
G01X117747Y28756D01*
G01X117844Y28760D01*
G01X117937Y28764D01*
G01X118025Y28770D01*
G01X118109Y28777D01*
G01X118187Y28786D01*
G01X118261Y28795D01*
G01X118330Y28806D01*
G01X118395Y28819D01*
G01X118454Y28832D01*
G01X118507Y28846D01*
G01X118557Y28862D01*
G01X118600Y28879D01*
G01X118639Y28897D01*
G01X118672Y28916D01*
G01X118699Y28936D01*
G01X118722Y28958D01*
G01X118738Y28980D01*
G01X118749Y29003D01*
G01X118757Y29035D01*
G01X118757Y29064D01*
G01X118751Y29091D01*
G01X118737Y29116D01*
G01X118716Y29139D01*
G01X118688Y29159D01*
G01X118652Y29178D01*
G01X118608Y29194D01*
G01X118557Y29208D01*
G01X118498Y29220D01*
G01X118431Y29231D01*
G01X118356Y29239D01*
G01X118272Y29245D01*
G01X118181Y29250D01*
G01X118081Y29252D01*
G01X117972Y29253D01*
G01X117110Y29253D01*
G01X118199Y30354D01*
G01X118286Y30442D01*
G01X118368Y30525D01*
G01X118445Y30605D01*
G01X118517Y30680D01*
G01X118584Y30751D01*
G01X118646Y30819D01*
G01X118703Y30882D01*
G01X118756Y30940D01*
G01X118804Y30996D01*
G01X118847Y31048D01*
G01X118885Y31096D01*
G01X118919Y31141D01*
G01X118949Y31182D01*
G01X118975Y31220D01*
G01X118996Y31255D01*
G01X119012Y31286D01*
G01X119025Y31315D01*
G01X119034Y31340D01*
G01X119038Y31363D01*
G01X119038Y31383D01*
G01X119034Y31400D01*
G01X119027Y31415D01*
G01X119015Y31427D01*
G01X119000Y31437D01*
G01X118981Y31444D01*
G01X118958Y31449D01*
G01X118932Y31453D01*
G01X118902Y31454D01*
G01X118873Y31451D01*
G01X118841Y31446D01*
G01X118806Y31436D01*
G01X118768Y31424D01*
G01X118727Y31407D01*
G01X118684Y31387D01*
G01X118638Y31364D01*
G01X118589Y31338D01*
G01X118538Y31309D01*
G01X118486Y31278D01*
G01X118432Y31243D01*
G01X118376Y31206D01*
G01X118319Y31167D01*
G01X118261Y31125D01*
G01X118202Y31082D01*
G01X118142Y31036D01*
G01X118081Y30988D01*
G01X117959Y30888D01*
G01X117897Y30835D01*
G01X117836Y30781D01*
G01X117775Y30726D01*
G01X117715Y30669D01*
G01X117656Y30612D01*
G01X117568Y30526D01*
G01X117486Y30447D01*
G01X117411Y30373D01*
G01X117341Y30306D01*
G01X117277Y30244D01*
G01X117218Y30189D01*
G01X117164Y30139D01*
G01X117115Y30096D01*
G01X117070Y30058D01*
G01X117030Y30025D01*
G01X116994Y29998D01*
G01X116962Y29976D01*
G01X116933Y29959D01*
G01X116908Y29948D01*
G01X116886Y29942D01*
G01X116868Y29941D01*
G01X116852Y29945D01*
G01X116838Y29954D01*
G01X116828Y29968D01*
G01X116818Y29986D01*
G01X116811Y30010D01*
G01X116806Y30038D01*
G01X116802Y30070D01*
G01X116800Y30106D01*
G01X116798Y30147D01*
G01X116797Y30193D01*
G01X116797Y30295D01*
G01X116796Y30375D01*
G01X116792Y30453D01*
G01X116788Y30530D01*
G01X116781Y30605D01*
G01X116774Y30677D01*
G01X116764Y30748D01*
G01X116753Y30816D01*
G01X116740Y30882D01*
G01X116726Y30945D01*
G01X116710Y31004D01*
G01X116693Y31062D01*
G01X116675Y31116D01*
G01X116656Y31166D01*
G01X116635Y31213D01*
G01X116614Y31256D01*
G01X116591Y31296D01*
G01X116568Y31332D01*
G01X116543Y31363D01*
G01X116518Y31390D01*
G01X116492Y31412D01*
G01X116465Y31430D01*
G01X116438Y31443D01*
G01X116410Y31451D01*
G37*

%LPD*%
G36*
G01X115215Y31451D02*
G01X115207Y31454D01*
G01X115170Y31447D01*
G01X115131Y31429D01*
G01X115090Y31399D01*
G01X115050Y31361D01*
G01X115011Y31314D01*
G01X114974Y31260D01*
G01X114942Y31201D01*
G01X114914Y31137D01*
G01X114897Y31090D01*
G01X114881Y31040D01*
G01X114867Y30986D01*
G01X114854Y30929D01*
G01X114843Y30870D01*
G01X114833Y30809D01*
G01X114823Y30746D01*
G01X114816Y30682D01*
G01X114809Y30616D01*
G01X114804Y30549D01*
G01X114800Y30481D01*
G01X114797Y30412D01*
G01X114796Y30344D01*
G01X114795Y30274D01*
G01X114796Y30206D01*
G01X114798Y30138D01*
G01X114801Y30071D01*
G01X114806Y30005D01*
G01X114811Y29940D01*
G01X114818Y29876D01*
G01X114825Y29815D01*
G01X114835Y29756D01*
G01X114845Y29699D01*
G01X114856Y29645D01*
G01X114868Y29594D01*
G01X114881Y29546D01*
G01X114896Y29502D01*
G01X114911Y29462D01*
G01X114928Y29426D01*
G01X114945Y29394D01*
G01X114964Y29366D01*
G01X114983Y29343D01*
G01X114998Y29326D01*
G01X115006Y29310D01*
G01X115007Y29295D01*
G01X115002Y29281D01*
G01X114990Y29268D01*
G01X114972Y29256D01*
G01X114947Y29246D01*
G01X114916Y29237D01*
G01X114879Y29228D01*
G01X114836Y29221D01*
G01X114787Y29216D01*
G01X114732Y29212D01*
G01X114671Y29208D01*
G01X114603Y29207D01*
G01X114530Y29206D01*
G01X114452Y29207D01*
G01X114367Y29209D01*
G01X114277Y29212D01*
G01X114182Y29216D01*
G01X114081Y29222D01*
G01X112988Y29290D01*
G01X112988Y30151D01*
G01X112987Y30256D01*
G01X112983Y30356D01*
G01X112978Y30449D01*
G01X112970Y30537D01*
G01X112959Y30618D01*
G01X112946Y30694D01*
G01X112931Y30763D01*
G01X112914Y30827D01*
G01X112894Y30884D01*
G01X112872Y30936D01*
G01X112847Y30982D01*
G01X112820Y31022D01*
G01X112790Y31057D01*
G01X112758Y31085D01*
G01X112724Y31109D01*
G01X112687Y31126D01*
G01X112652Y31138D01*
G01X112620Y31145D01*
G01X112590Y31148D01*
G01X112562Y31145D01*
G01X112537Y31137D01*
G01X112515Y31123D01*
G01X112494Y31104D01*
G01X112476Y31077D01*
G01X112460Y31044D01*
G01X112446Y31003D01*
G01X112433Y30956D01*
G01X112422Y30900D01*
G01X112413Y30836D01*
G01X112405Y30764D01*
G01X112399Y30683D01*
G01X112395Y30593D01*
G01X112391Y30494D01*
G01X112389Y30385D01*
G01X112387Y30265D01*
G01X112387Y30135D01*
G01X112388Y30035D01*
G01X112389Y29939D01*
G01X112392Y29848D01*
G01X112396Y29762D01*
G01X112401Y29682D01*
G01X112406Y29606D01*
G01X112414Y29536D01*
G01X112422Y29471D01*
G01X112431Y29412D01*
G01X112440Y29359D01*
G01X112451Y29310D01*
G01X112463Y29269D01*
G01X112475Y29232D01*
G01X112489Y29202D01*
G01X112503Y29178D01*
G01X112519Y29160D01*
G01X112535Y29149D01*
G01X112552Y29144D01*
G01X112569Y29145D01*
G01X112587Y29153D01*
G01X112627Y29172D01*
G01X112665Y29176D01*
G01X112699Y29166D01*
G01X112729Y29144D01*
G01X112753Y29110D01*
G01X112772Y29066D01*
G01X112784Y29011D01*
G01X112788Y28948D01*
G01X112789Y28914D01*
G01X112792Y28883D01*
G01X112798Y28855D01*
G01X112807Y28828D01*
G01X112818Y28804D01*
G01X112833Y28782D01*
G01X112852Y28762D01*
G01X112874Y28744D01*
G01X112901Y28728D01*
G01X112932Y28714D01*
G01X112968Y28702D01*
G01X113008Y28692D01*
G01X113055Y28683D01*
G01X113106Y28676D01*
G01X113163Y28671D01*
G01X113226Y28667D01*
G01X113296Y28665D01*
G01X113372Y28664D01*
G01X113455Y28664D01*
G01X113545Y28666D01*
G01X113642Y28669D01*
G01X113747Y28674D01*
G01X113860Y28679D01*
G01X113981Y28686D01*
G01X114091Y28692D01*
G01X114196Y28696D01*
G01X114294Y28699D01*
G01X114387Y28701D01*
G01X114473Y28702D01*
G01X114553Y28701D01*
G01X114627Y28699D01*
G01X114694Y28696D01*
G01X114755Y28692D01*
G01X114810Y28685D01*
G01X114859Y28679D01*
G01X114900Y28671D01*
G01X114935Y28662D01*
G01X114963Y28651D01*
G01X114983Y28639D01*
G01X114998Y28627D01*
G01X115005Y28612D01*
G01X115005Y28597D01*
G01X114998Y28581D01*
G01X114983Y28564D01*
G01X114962Y28539D01*
G01X114942Y28511D01*
G01X114923Y28478D01*
G01X114906Y28442D01*
G01X114890Y28401D01*
G01X114876Y28358D01*
G01X114863Y28312D01*
G01X114851Y28262D01*
G01X114841Y28210D01*
G01X114832Y28155D01*
G01X114823Y28098D01*
G01X114817Y28039D01*
G01X114811Y27978D01*
G01X114807Y27915D01*
G01X114804Y27851D01*
G01X114802Y27786D01*
G01X114801Y27719D01*
G01X114801Y27652D01*
G01X114803Y27585D01*
G01X114805Y27517D01*
G01X114808Y27448D01*
G01X114813Y27380D01*
G01X114818Y27313D01*
G01X114824Y27246D01*
G01X114832Y27179D01*
G01X114840Y27114D01*
G01X114849Y27050D01*
G01X114859Y26987D01*
G01X114870Y26926D01*
G01X114882Y26866D01*
G01X114894Y26809D01*
G01X114907Y26754D01*
G01X114921Y26702D01*
G01X114936Y26652D01*
G01X114952Y26605D01*
G01X114968Y26561D01*
G01X114985Y26521D01*
G01X115002Y26484D01*
G01X115021Y26452D01*
G01X115039Y26423D01*
G01X115059Y26398D01*
G01X115078Y26378D01*
G01X115099Y26362D01*
G01X115120Y26352D01*
G01X115141Y26347D01*
G01X115163Y26347D01*
G01X115186Y26352D01*
G01X115209Y26363D01*
G01X115216Y26370D01*
G01X115224Y26381D01*
G01X115231Y26396D01*
G01X115239Y26415D01*
G01X115246Y26437D01*
G01X115253Y26463D01*
G01X115260Y26492D01*
G01X115266Y26525D01*
G01X115273Y26561D01*
G01X115279Y26601D01*
G01X115285Y26643D01*
G01X115290Y26688D01*
G01X115296Y26737D01*
G01X115301Y26788D01*
G01X115307Y26842D01*
G01X115312Y26898D01*
G01X115317Y26958D01*
G01X115321Y27019D01*
G01X115326Y27083D01*
G01X115330Y27149D01*
G01X115334Y27217D01*
G01X115338Y27287D01*
G01X115342Y27359D01*
G01X115345Y27433D01*
G01X115348Y27508D01*
G01X115352Y27585D01*
G01X115354Y27664D01*
G01X115357Y27744D01*
G01X115360Y27825D01*
G01X115362Y27908D01*
G01X115364Y27992D01*
G01X115367Y28077D01*
G01X115368Y28163D01*
G01X115370Y28249D01*
G01X115371Y28336D01*
G01X115372Y28424D01*
G01X115375Y28691D01*
G01X115375Y28781D01*
G01X115376Y28870D01*
G01X115376Y29050D01*
G01X115375Y29228D01*
G01X115373Y29406D01*
G01X115372Y29494D01*
G01X115371Y29581D01*
G01X115369Y29667D01*
G01X115368Y29753D01*
G01X115364Y29921D01*
G01X115361Y30003D01*
G01X115359Y30084D01*
G01X115356Y30164D01*
G01X115354Y30243D01*
G01X115351Y30320D01*
G01X115348Y30395D01*
G01X115344Y30469D01*
G01X115341Y30540D01*
G01X115337Y30610D01*
G01X115333Y30677D01*
G01X115329Y30743D01*
G01X115325Y30806D01*
G01X115320Y30867D01*
G01X115316Y30926D01*
G01X115311Y30982D01*
G01X115306Y31035D01*
G01X115300Y31086D01*
G01X115295Y31134D01*
G01X115289Y31179D01*
G01X115284Y31221D01*
G01X115278Y31259D01*
G01X115272Y31295D01*
G01X115265Y31327D01*
G01X115258Y31356D01*
G01X115252Y31381D01*
G01X115245Y31403D01*
G01X115237Y31421D01*
G01X115230Y31435D01*
G01X115223Y31445D01*
G01X115215Y31451D01*
G37*

%LPD*%
G36*
G01X122780Y28852D02*
G01X122755Y28853D01*
G01X122729Y28848D01*
G01X122702Y28839D01*
G01X122673Y28825D01*
G01X122642Y28805D01*
G01X122610Y28782D01*
G01X122577Y28754D01*
G01X122542Y28720D01*
G01X122528Y28702D01*
G01X122515Y28675D01*
G01X122502Y28639D01*
G01X122490Y28596D01*
G01X122479Y28546D01*
G01X122467Y28489D01*
G01X122457Y28425D01*
G01X122448Y28357D01*
G01X122439Y28283D01*
G01X122431Y28205D01*
G01X122425Y28123D01*
G01X122419Y28037D01*
G01X122414Y27948D01*
G01X122411Y27857D01*
G01X122409Y27764D01*
G01X122408Y27670D01*
G01X122409Y26754D01*
G01X121183Y26823D01*
G01X121067Y26829D01*
G01X120958Y26834D01*
G01X120856Y26838D01*
G01X120761Y26841D01*
G01X120673Y26843D01*
G01X120516Y26843D01*
G01X120447Y26841D01*
G01X120384Y26838D01*
G01X120326Y26834D01*
G01X120275Y26828D01*
G01X120229Y26822D01*
G01X120188Y26813D01*
G01X120153Y26803D01*
G01X120122Y26792D01*
G01X120097Y26780D01*
G01X120076Y26766D01*
G01X120059Y26750D01*
G01X120047Y26733D01*
G01X120040Y26714D01*
G01X120036Y26694D01*
G01X120036Y26672D01*
G01X120039Y26648D01*
G01X120046Y26622D01*
G01X120056Y26600D01*
G01X120072Y26577D01*
G01X120093Y26555D01*
G01X120118Y26535D01*
G01X120149Y26514D01*
G01X120183Y26494D01*
G01X120222Y26476D01*
G01X120265Y26458D01*
G01X120311Y26441D01*
G01X120362Y26424D01*
G01X120415Y26409D01*
G01X120471Y26394D01*
G01X120531Y26380D01*
G01X120593Y26367D01*
G01X120657Y26355D01*
G01X120723Y26344D01*
G01X120792Y26333D01*
G01X120863Y26324D01*
G01X120935Y26316D01*
G01X121008Y26308D01*
G01X121083Y26301D01*
G01X121158Y26296D01*
G01X121234Y26291D01*
G01X121310Y26288D01*
G01X121387Y26285D01*
G01X121464Y26284D01*
G01X121540Y26283D01*
G01X121616Y26284D01*
G01X121692Y26286D01*
G01X121767Y26288D01*
G01X121840Y26292D01*
G01X121913Y26297D01*
G01X121984Y26303D01*
G01X122053Y26311D01*
G01X122120Y26319D01*
G01X122185Y26329D01*
G01X122248Y26339D01*
G01X122308Y26352D01*
G01X122366Y26365D01*
G01X122420Y26380D01*
G01X122471Y26395D01*
G01X122519Y26412D01*
G01X122563Y26430D01*
G01X122602Y26450D01*
G01X122643Y26473D01*
G01X122681Y26496D01*
G01X122716Y26521D01*
G01X122748Y26547D01*
G01X122779Y26575D01*
G01X122807Y26604D01*
G01X122833Y26636D01*
G01X122856Y26670D01*
G01X122878Y26707D01*
G01X122897Y26747D01*
G01X122915Y26790D01*
G01X122931Y26837D01*
G01X122945Y26887D01*
G01X122958Y26941D01*
G01X122969Y27000D01*
G01X122978Y27063D01*
G01X122986Y27131D01*
G01X122993Y27204D01*
G01X122998Y27282D01*
G01X123002Y27366D01*
G01X123006Y27455D01*
G01X123008Y27551D01*
G01X123009Y27652D01*
G01X123009Y27866D01*
G01X123007Y27966D01*
G01X123005Y28061D01*
G01X123001Y28150D01*
G01X122996Y28233D01*
G01X122990Y28312D01*
G01X122983Y28384D01*
G01X122975Y28452D01*
G01X122966Y28514D01*
G01X122955Y28570D01*
G01X122943Y28621D01*
G01X122930Y28668D01*
G01X122916Y28709D01*
G01X122900Y28744D01*
G01X122883Y28775D01*
G01X122865Y28800D01*
G01X122846Y28821D01*
G01X122825Y28836D01*
G01X122803Y28846D01*
G01X122780Y28852D01*
G37*

%LPD*%
G36*
G01X106360Y29248D02*
G01X106208Y29248D01*
G01X106134Y29247D01*
G01X106060Y29244D01*
G01X105988Y29241D01*
G01X105917Y29236D01*
G01X105849Y29230D01*
G01X105783Y29223D01*
G01X105719Y29215D01*
G01X105658Y29206D01*
G01X105600Y29196D01*
G01X105546Y29184D01*
G01X105495Y29172D01*
G01X105449Y29158D01*
G01X105407Y29144D01*
G01X105369Y29127D01*
G01X105336Y29111D01*
G01X105309Y29092D01*
G01X105287Y29073D01*
G01X105271Y29052D01*
G01X105256Y29025D01*
G01X105245Y28998D01*
G01X105239Y28973D01*
G01X105236Y28948D01*
G01X105238Y28924D01*
G01X105244Y28901D01*
G01X105254Y28879D01*
G01X105268Y28859D01*
G01X105286Y28838D01*
G01X105307Y28820D01*
G01X105332Y28801D01*
G01X105361Y28784D01*
G01X105394Y28768D01*
G01X105430Y28754D01*
G01X105470Y28739D01*
G01X105513Y28727D01*
G01X105560Y28715D01*
G01X105609Y28704D01*
G01X105662Y28695D01*
G01X105719Y28687D01*
G01X105778Y28680D01*
G01X105840Y28674D01*
G01X105906Y28669D01*
G01X105975Y28666D01*
G01X106046Y28663D01*
G01X106120Y28662D01*
G01X106197Y28663D01*
G01X106277Y28664D01*
G01X106359Y28667D01*
G01X106445Y28671D01*
G01X106532Y28676D01*
G01X106622Y28683D01*
G01X107476Y28754D01*
G01X107411Y27753D01*
G01X107346Y26754D01*
G01X106135Y26823D01*
G01X106021Y26829D01*
G01X105913Y26834D01*
G01X105813Y26838D01*
G01X105719Y26841D01*
G01X105632Y26843D01*
G01X105477Y26843D01*
G01X105409Y26841D01*
G01X105347Y26838D01*
G01X105290Y26834D01*
G01X105239Y26828D01*
G01X105194Y26822D01*
G01X105154Y26813D01*
G01X105119Y26803D01*
G01X105089Y26792D01*
G01X105064Y26779D01*
G01X105043Y26766D01*
G01X105027Y26750D01*
G01X105015Y26733D01*
G01X105007Y26714D01*
G01X105003Y26694D01*
G01X105003Y26672D01*
G01X105007Y26648D01*
G01X105013Y26622D01*
G01X105024Y26601D01*
G01X105038Y26579D01*
G01X105057Y26558D01*
G01X105081Y26538D01*
G01X105109Y26518D01*
G01X105141Y26499D01*
G01X105177Y26480D01*
G01X105217Y26462D01*
G01X105260Y26445D01*
G01X105307Y26428D01*
G01X105356Y26412D01*
G01X105409Y26396D01*
G01X105464Y26382D01*
G01X105522Y26368D01*
G01X105582Y26355D01*
G01X105645Y26343D01*
G01X105709Y26331D01*
G01X105775Y26320D01*
G01X105844Y26311D01*
G01X105913Y26301D01*
G01X105984Y26293D01*
G01X106055Y26286D01*
G01X106128Y26280D01*
G01X106201Y26275D01*
G01X106275Y26271D01*
G01X106348Y26268D01*
G01X106423Y26266D01*
G01X106497Y26265D01*
G01X106570Y26265D01*
G01X106644Y26266D01*
G01X106717Y26268D01*
G01X106788Y26271D01*
G01X106859Y26276D01*
G01X106929Y26282D01*
G01X106997Y26289D01*
G01X107063Y26298D01*
G01X107128Y26307D01*
G01X107191Y26318D01*
G01X107252Y26330D01*
G01X107310Y26344D01*
G01X107361Y26357D01*
G01X107408Y26371D01*
G01X107451Y26386D01*
G01X107491Y26402D01*
G01X107528Y26421D01*
G01X107561Y26441D01*
G01X107591Y26463D01*
G01X107618Y26489D01*
G01X107643Y26518D01*
G01X107665Y26551D01*
G01X107685Y26587D01*
G01X107702Y26629D01*
G01X107717Y26675D01*
G01X107729Y26727D01*
G01X107740Y26783D01*
G01X107750Y26846D01*
G01X107757Y26916D01*
G01X107763Y26993D01*
G01X107768Y27077D01*
G01X107772Y27168D01*
G01X107774Y27267D01*
G01X107776Y27375D01*
G01X107777Y27492D01*
G01X107777Y27617D01*
G01X107776Y27697D01*
G01X107775Y27776D01*
G01X107772Y27854D01*
G01X107768Y27933D01*
G01X107764Y28009D01*
G01X107758Y28085D01*
G01X107752Y28160D01*
G01X107744Y28233D01*
G01X107736Y28304D01*
G01X107727Y28373D01*
G01X107717Y28440D01*
G01X107706Y28505D01*
G01X107695Y28566D01*
G01X107684Y28625D01*
G01X107671Y28681D01*
G01X107658Y28734D01*
G01X107644Y28783D01*
G01X107630Y28829D01*
G01X107615Y28871D01*
G01X107600Y28908D01*
G01X107585Y28941D01*
G01X107569Y28970D01*
G01X107553Y28994D01*
G01X107537Y29014D01*
G01X107512Y29035D01*
G01X107482Y29055D01*
G01X107447Y29075D01*
G01X107407Y29093D01*
G01X107363Y29110D01*
G01X107314Y29126D01*
G01X107262Y29142D01*
G01X107206Y29156D01*
G01X107147Y29170D01*
G01X107084Y29182D01*
G01X107019Y29193D01*
G01X106952Y29204D01*
G01X106882Y29213D01*
G01X106811Y29221D01*
G01X106738Y29228D01*
G01X106663Y29234D01*
G01X106588Y29239D01*
G01X106513Y29243D01*
G01X106436Y29246D01*
G01X106360Y29248D01*
G37*

%LPD*%
G36*
G01X100189Y27603D02*
G01X100098Y28354D01*
G01X99822Y27689D01*
G01X99792Y27619D01*
G01X99761Y27554D01*
G01X99729Y27493D01*
G01X99697Y27437D01*
G01X99664Y27385D01*
G01X99631Y27339D01*
G01X99598Y27297D01*
G01X99565Y27259D01*
G01X99532Y27226D01*
G01X99499Y27197D01*
G01X99467Y27174D01*
G01X99436Y27154D01*
G01X99405Y27140D01*
G01X99374Y27129D01*
G01X99345Y27124D01*
G01X99317Y27123D01*
G01X99290Y27126D01*
G01X99265Y27135D01*
G01X99241Y27147D01*
G01X99218Y27164D01*
G01X99197Y27186D01*
G01X99179Y27212D01*
G01X99162Y27243D01*
G01X99147Y27278D01*
G01X99135Y27317D01*
G01X99125Y27362D01*
G01X99118Y27410D01*
G01X99113Y27464D01*
G01X99111Y27521D01*
G01X99112Y27584D01*
G01X99116Y27650D01*
G01X99123Y27721D01*
G01X99134Y27817D01*
G01X99141Y27903D01*
G01X99147Y27979D01*
G01X99148Y28045D01*
G01X99147Y28102D01*
G01X99142Y28148D01*
G01X99133Y28186D01*
G01X99122Y28213D01*
G01X99106Y28232D01*
G01X99088Y28242D01*
G01X99065Y28243D01*
G01X99038Y28235D01*
G01X99007Y28219D01*
G01X98973Y28194D01*
G01X98934Y28161D01*
G01X98892Y28120D01*
G01X98865Y28086D01*
G01X98840Y28040D01*
G01X98817Y27984D01*
G01X98797Y27921D01*
G01X98781Y27852D01*
G01X98768Y27779D01*
G01X98760Y27704D01*
G01X98758Y27630D01*
G01X98754Y27580D01*
G01X98745Y27528D01*
G01X98730Y27475D01*
G01X98710Y27423D01*
G01X98684Y27370D01*
G01X98655Y27318D01*
G01X98621Y27269D01*
G01X98584Y27221D01*
G01X98543Y27177D01*
G01X98500Y27137D01*
G01X98455Y27100D01*
G01X98407Y27069D01*
G01X98341Y27028D01*
G01X98290Y26989D01*
G01X98253Y26954D01*
G01X98232Y26923D01*
G01X98226Y26898D01*
G01X98236Y26878D01*
G01X98263Y26865D01*
G01X98307Y26860D01*
G01X98359Y26854D01*
G01X98405Y26841D01*
G01X98445Y26822D01*
G01X98478Y26797D01*
G01X98505Y26765D01*
G01X98526Y26729D01*
G01X98540Y26689D01*
G01X98549Y26645D01*
G01X98551Y26598D01*
G01X98548Y26549D01*
G01X98538Y26498D01*
G01X98523Y26446D01*
G01X98503Y26394D01*
G01X98477Y26342D01*
G01X98445Y26291D01*
G01X98407Y26241D01*
G01X98365Y26193D01*
G01X98318Y26148D01*
G01X98265Y26107D01*
G01X98207Y26070D01*
G01X98129Y26021D01*
G01X98071Y25980D01*
G01X98032Y25945D01*
G01X98012Y25915D01*
G01X98012Y25892D01*
G01X98031Y25875D01*
G01X98070Y25864D01*
G01X98128Y25859D01*
G01X98173Y25855D01*
G01X98211Y25845D01*
G01X98243Y25828D01*
G01X98270Y25804D01*
G01X98291Y25773D01*
G01X98305Y25735D01*
G01X98314Y25691D01*
G01X98318Y25638D01*
G01X98315Y25579D01*
G01X98307Y25511D01*
G01X98294Y25437D01*
G01X98275Y25353D01*
G01X98253Y25253D01*
G01X98240Y25159D01*
G01X98236Y25075D01*
G01X98239Y25000D01*
G01X98251Y24939D01*
G01X98270Y24893D01*
G01X98297Y24864D01*
G01X98331Y24854D01*
G01X98357Y24858D01*
G01X98384Y24871D01*
G01X98412Y24893D01*
G01X98440Y24922D01*
G01X98469Y24958D01*
G01X98497Y25000D01*
G01X98525Y25049D01*
G01X98551Y25101D01*
G01X98577Y25159D01*
G01X98600Y25221D01*
G01X98621Y25286D01*
G01X98640Y25353D01*
G01X98659Y25421D01*
G01X98684Y25486D01*
G01X98714Y25548D01*
G01X98747Y25605D01*
G01X98783Y25659D01*
G01X98822Y25707D01*
G01X98864Y25749D01*
G01X98907Y25785D01*
G01X98952Y25814D01*
G01X98996Y25836D01*
G01X99041Y25849D01*
G01X99086Y25853D01*
G01X99140Y25851D01*
G01X99188Y25842D01*
G01X99229Y25826D01*
G01X99263Y25805D01*
G01X99290Y25776D01*
G01X99312Y25740D01*
G01X99326Y25697D01*
G01X99335Y25645D01*
G01X99337Y25586D01*
G01X99334Y25517D01*
G01X99325Y25440D01*
G01X99310Y25353D01*
G01X99294Y25253D01*
G01X99285Y25159D01*
G01X99282Y25075D01*
G01X99287Y25000D01*
G01X99297Y24939D01*
G01X99314Y24893D01*
G01X99337Y24864D01*
G01X99365Y24854D01*
G01X99398Y24864D01*
G01X99434Y24893D01*
G01X99471Y24939D01*
G01X99509Y25000D01*
G01X99546Y25075D01*
G01X99581Y25159D01*
G01X99613Y25253D01*
G01X99642Y25353D01*
G01X99660Y25421D01*
G01X99681Y25486D01*
G01X99704Y25548D01*
G01X99728Y25605D01*
G01X99754Y25659D01*
G01X99780Y25707D01*
G01X99807Y25749D01*
G01X99834Y25785D01*
G01X99861Y25814D01*
G01X99887Y25836D01*
G01X99913Y25849D01*
G01X99937Y25853D01*
G01X99969Y25863D01*
G01X99994Y25893D01*
G01X100014Y25939D01*
G01X100027Y26000D01*
G01X100034Y26074D01*
G01X100033Y26159D01*
G01X100025Y26253D01*
G01X100010Y26354D01*
G01X99994Y26454D01*
G01X99987Y26548D01*
G01X99987Y26633D01*
G01X99995Y26707D01*
G01X100011Y26768D01*
G01X100034Y26814D01*
G01X100062Y26843D01*
G01X100097Y26854D01*
G01X100121Y26860D01*
G01X100143Y26881D01*
G01X100161Y26913D01*
G01X100177Y26956D01*
G01X100190Y27010D01*
G01X100200Y27074D01*
G01X100207Y27146D01*
G01X100210Y27226D01*
G01X100210Y27312D01*
G01X100207Y27405D01*
G01X100200Y27502D01*
G01X100189Y27603D01*
G37*

%LPC*%
G36*
G01X99419Y26838D02*
G01X99380Y26842D01*
G01X99338Y26839D01*
G01X99292Y26826D01*
G01X99243Y26805D01*
G01X99192Y26776D01*
G01X99139Y26737D01*
G01X99085Y26691D01*
G01X99030Y26635D01*
G01X98973Y26571D01*
G01X98920Y26502D01*
G01X98881Y26438D01*
G01X98857Y26380D01*
G01X98847Y26326D01*
G01X98851Y26278D01*
G01X98869Y26234D01*
G01X98902Y26195D01*
G01X98948Y26160D01*
G01X99001Y26132D01*
G01X99055Y26113D01*
G01X99109Y26102D01*
G01X99162Y26100D01*
G01X99214Y26105D01*
G01X99265Y26117D01*
G01X99313Y26137D01*
G01X99359Y26163D01*
G01X99402Y26196D01*
G01X99440Y26234D01*
G01X99474Y26278D01*
G01X99503Y26326D01*
G01X99527Y26380D01*
G01X99545Y26438D01*
G01X99556Y26500D01*
G01X99560Y26565D01*
G01X99556Y26630D01*
G01X99547Y26686D01*
G01X99531Y26733D01*
G01X99510Y26772D01*
G01X99484Y26803D01*
G01X99454Y26825D01*
G01X99419Y26838D01*
G37*

%LPD*%
G36*
G01X101923Y27703D02*
G01X101856Y28354D01*
G01X101694Y27703D01*
G01X101671Y27616D01*
G01X101645Y27531D01*
G01X101618Y27451D01*
G01X101590Y27376D01*
G01X101561Y27307D01*
G01X101531Y27244D01*
G01X101501Y27189D01*
G01X101472Y27143D01*
G01X101443Y27105D01*
G01X101416Y27077D01*
G01X101390Y27059D01*
G01X101366Y27053D01*
G01X101335Y27045D01*
G01X101311Y27020D01*
G01X101292Y26982D01*
G01X101282Y26930D01*
G01X101278Y26868D01*
G01X101281Y26796D01*
G01X101292Y26717D01*
G01X101311Y26633D01*
G01X101329Y26546D01*
G01X101339Y26459D01*
G01X101340Y26376D01*
G01X101334Y26298D01*
G01X101319Y26227D01*
G01X101297Y26166D01*
G01X101269Y26117D01*
G01X101233Y26083D01*
G01X101209Y26060D01*
G01X101188Y26027D01*
G01X101170Y25985D01*
G01X101156Y25936D01*
G01X101146Y25879D01*
G01X101138Y25815D01*
G01X101134Y25747D01*
G01X101134Y25673D01*
G01X101138Y25597D01*
G01X101146Y25517D01*
G01X101157Y25436D01*
G01X101172Y25353D01*
G01X101298Y24754D01*
G01X101453Y25304D01*
G01X101472Y25367D01*
G01X101493Y25427D01*
G01X101516Y25483D01*
G01X101540Y25535D01*
G01X101565Y25583D01*
G01X101592Y25626D01*
G01X101619Y25666D01*
G01X101647Y25702D01*
G01X101676Y25734D01*
G01X101705Y25762D01*
G01X101735Y25786D01*
G01X101765Y25806D01*
G01X101794Y25821D01*
G01X101824Y25833D01*
G01X101854Y25841D01*
G01X101883Y25844D01*
G01X101911Y25844D01*
G01X101939Y25839D01*
G01X101966Y25830D01*
G01X101991Y25818D01*
G01X102016Y25800D01*
G01X102040Y25780D01*
G01X102061Y25755D01*
G01X102081Y25725D01*
G01X102100Y25692D01*
G01X102116Y25655D01*
G01X102131Y25613D01*
G01X102143Y25567D01*
G01X102152Y25517D01*
G01X102159Y25463D01*
G01X102164Y25404D01*
G01X102165Y25342D01*
G01X102169Y25239D01*
G01X102180Y25149D01*
G01X102199Y25073D01*
G01X102223Y25013D01*
G01X102252Y24969D01*
G01X102286Y24944D01*
G01X102324Y24938D01*
G01X102365Y24954D01*
G01X102406Y24986D01*
G01X102443Y25032D01*
G01X102478Y25089D01*
G01X102507Y25155D01*
G01X102531Y25227D01*
G01X102550Y25305D01*
G01X102562Y25385D01*
G01X102566Y25465D01*
G01X102569Y25522D01*
G01X102578Y25574D01*
G01X102591Y25624D01*
G01X102611Y25670D01*
G01X102635Y25713D01*
G01X102663Y25750D01*
G01X102696Y25783D01*
G01X102733Y25812D01*
G01X102774Y25835D01*
G01X102818Y25852D01*
G01X102866Y25864D01*
G01X102916Y25869D01*
G01X102987Y25875D01*
G01X103042Y25883D01*
G01X103080Y25894D01*
G01X103101Y25909D01*
G01X103106Y25925D01*
G01X103094Y25944D01*
G01X103064Y25964D01*
G01X103017Y25986D01*
G01X102966Y26010D01*
G01X102921Y26039D01*
G01X102882Y26072D01*
G01X102849Y26108D01*
G01X102822Y26147D01*
G01X102802Y26190D01*
G01X102787Y26234D01*
G01X102778Y26281D01*
G01X102775Y26328D01*
G01X102778Y26378D01*
G01X102787Y26427D01*
G01X102801Y26478D01*
G01X102821Y26527D01*
G01X102847Y26577D01*
G01X102878Y26625D01*
G01X102915Y26672D01*
G01X102958Y26717D01*
G01X103005Y26760D01*
G01X103059Y26800D01*
G01X103117Y26837D01*
G01X103196Y26886D01*
G01X103256Y26928D01*
G01X103295Y26964D01*
G01X103315Y26993D01*
G01X103314Y27016D01*
G01X103293Y27032D01*
G01X103253Y27043D01*
G01X103192Y27048D01*
G01X103146Y27052D01*
G01X103106Y27064D01*
G01X103072Y27083D01*
G01X103044Y27110D01*
G01X103023Y27146D01*
G01X103007Y27190D01*
G01X102998Y27243D01*
G01X102995Y27305D01*
G01X102997Y27377D01*
G01X103004Y27459D01*
G01X103018Y27551D01*
G01X103037Y27654D01*
G01X103052Y27734D01*
G01X103062Y27813D01*
G01X103069Y27886D01*
G01X103073Y27956D01*
G01X103073Y28019D01*
G01X103069Y28077D01*
G01X103062Y28128D01*
G01X103052Y28171D01*
G01X103038Y28206D01*
G01X103021Y28232D01*
G01X103001Y28248D01*
G01X102978Y28254D01*
G01X102952Y28248D01*
G01X102926Y28232D01*
G01X102898Y28206D01*
G01X102869Y28171D01*
G01X102841Y28128D01*
G01X102812Y28077D01*
G01X102784Y28019D01*
G01X102757Y27956D01*
G01X102732Y27886D01*
G01X102708Y27813D01*
G01X102686Y27734D01*
G01X102666Y27654D01*
G01X102649Y27581D01*
G01X102629Y27512D01*
G01X102609Y27449D01*
G01X102587Y27391D01*
G01X102563Y27337D01*
G01X102539Y27288D01*
G01X102514Y27244D01*
G01X102487Y27205D01*
G01X102460Y27171D01*
G01X102432Y27142D01*
G01X102404Y27117D01*
G01X102375Y27098D01*
G01X102346Y27083D01*
G01X102318Y27073D01*
G01X102289Y27067D01*
G01X102260Y27067D01*
G01X102231Y27072D01*
G01X102203Y27081D01*
G01X102176Y27094D01*
G01X102149Y27113D01*
G01X102122Y27137D01*
G01X102097Y27164D01*
G01X102073Y27197D01*
G01X102050Y27235D01*
G01X102028Y27277D01*
G01X102008Y27324D01*
G01X101989Y27375D01*
G01X101972Y27432D01*
G01X101957Y27493D01*
G01X101944Y27558D01*
G01X101932Y27629D01*
G01X101923Y27703D01*
G37*

%LPC*%
G36*
G01X102200Y26847D02*
G01X102159Y26854D01*
G01X102114Y26847D01*
G01X102069Y26829D01*
G01X102025Y26800D01*
G01X101982Y26763D01*
G01X101942Y26717D01*
G01X101905Y26666D01*
G01X101870Y26610D01*
G01X101840Y26551D01*
G01X101816Y26489D01*
G01X101796Y26428D01*
G01X101782Y26367D01*
G01X101775Y26308D01*
G01X101775Y26253D01*
G01X101784Y26203D01*
G01X101800Y26160D01*
G01X101826Y26125D01*
G01X101861Y26097D01*
G01X101900Y26080D01*
G01X101941Y26073D01*
G01X101985Y26075D01*
G01X102029Y26085D01*
G01X102074Y26103D01*
G01X102118Y26128D01*
G01X102162Y26160D01*
G01X102203Y26197D01*
G01X102241Y26240D01*
G01X102276Y26287D01*
G01X102306Y26337D01*
G01X102331Y26391D01*
G01X102350Y26448D01*
G01X102361Y26506D01*
G01X102365Y26565D01*
G01X102361Y26623D01*
G01X102349Y26677D01*
G01X102330Y26726D01*
G01X102305Y26769D01*
G01X102274Y26804D01*
G01X102239Y26831D01*
G01X102200Y26847D01*
G37*

%LPD*%
G54D10*
G01X116775Y909D02*
G01X116793Y842D01*
G01X116833Y791D01*
G01X116892Y759D01*
G01X116959Y752D01*
G01X117024Y769D01*
G01X117078Y808D01*
G01X117111Y863D01*
G01X117119Y897D01*
G01X117120Y935D01*
G01X114314Y942D02*
G01X114319Y874D01*
G01X114348Y816D01*
G01X114400Y773D01*
G01X114433Y760D01*
G01X114469Y753D01*
G01X114536Y758D01*
G01X114596Y787D01*
G01X114637Y837D01*
G01X114657Y902D01*
G01X116502Y4031D02*
G01X116484Y4128D01*
G01X116451Y4211D01*
G01X116400Y4291D01*
G01X116340Y4355D01*
G01X116271Y4408D01*
G01X116186Y4451D01*
G01X116101Y4477D01*
G01X116010Y4486D01*
G01X115430Y4486D02*
G01X115340Y4478D01*
G01X115254Y4454D01*
G01X115168Y4412D01*
G01X115098Y4360D01*
G01X115033Y4291D01*
G01X114986Y4217D01*
G01X114951Y4135D01*
G01X114931Y4039D01*
G01X116775Y909D02*
G01X116502Y4031D01*
G01X114658Y909D02*
G01X114931Y4031D01*
G01X118447Y4237D02*
G01X118441Y4237D01*
G01X118447Y753D02*
G01X118508Y759D01*
G01X118563Y787D01*
G01X118608Y831D01*
G01X118636Y887D01*
G01X118641Y948D01*
G01X117619Y4237D02*
G01X117613Y4237D01*
G01X117419Y948D02*
G01X117430Y887D01*
G01X117458Y831D01*
G01X117502Y787D01*
G01X117558Y759D01*
G01X118447Y753D01*
G01X118547Y4225D02*
G01X118510Y4234D01*
G01X118470Y4236D01*
G01X118432Y4228D01*
G01X118401Y4214D01*
G01X118371Y4188D01*
G01X118353Y4162D01*
G01X118338Y4128D01*
G01X118330Y4085D01*
G01X118641Y948D02*
G01X118641Y4081D01*
G01X118630Y4136D01*
G01X118597Y4192D01*
G01X118547Y4225D01*
G01X117730Y4081D02*
G01X117718Y4142D01*
G01X117686Y4192D01*
G01X117637Y4225D01*
G01X117579Y4237D01*
G01X117548Y4235D01*
G01X117517Y4227D01*
G01X117467Y4195D01*
G01X117434Y4147D01*
G01X117419Y4087D01*
G01X117419Y948D02*
G01X117419Y4081D01*
G01X118080Y1365D02*
G01X118124Y1367D01*
G01X118173Y1379D01*
G01X118213Y1400D01*
G01X118252Y1430D01*
G01X118283Y1468D01*
G01X118306Y1508D01*
G01X118323Y1557D01*
G01X118330Y1605D01*
G01X118330Y1609D02*
G01X118330Y4081D01*
G01X117730Y4081D02*
G01X117730Y1609D01*
G01X117764Y1487D01*
G01X117808Y1437D01*
G01X117858Y1398D01*
G01X117919Y1370D01*
G01X117980Y1365D01*
G01X117980Y1365D02*
G01X118080Y1365D01*
G01X117730Y1926D02*
G01X118330Y1926D01*
G01X113453Y1365D02*
G01X113499Y1368D01*
G01X113543Y1381D01*
G01X113587Y1405D01*
G01X113624Y1434D01*
G01X113656Y1472D01*
G01X113680Y1512D01*
G01X113697Y1559D01*
G01X113703Y1605D01*
G01X113103Y1609D02*
G01X113109Y1561D01*
G01X113125Y1512D01*
G01X113150Y1468D01*
G01X113181Y1430D01*
G01X113217Y1402D01*
G01X113260Y1379D01*
G01X113305Y1367D01*
G01X113348Y1364D01*
G01X113103Y4081D02*
G01X113090Y4142D01*
G01X113058Y4192D01*
G01X113009Y4225D01*
G01X112952Y4237D01*
G01X112920Y4235D01*
G01X112890Y4227D01*
G01X112839Y4195D01*
G01X112806Y4147D01*
G01X112792Y4087D01*
G01X114869Y5231D02*
G01X114808Y5220D01*
G01X114758Y5198D01*
G01X114714Y5153D01*
G01X114680Y5098D01*
G01X114669Y5042D01*
G01X113814Y753D02*
G01X112986Y753D01*
G01X113703Y1926D02*
G01X113103Y1926D01*
G01X113453Y1365D02*
G01X113353Y1365D01*
G01X112792Y948D02*
G01X112797Y887D01*
G01X112825Y831D01*
G01X112869Y787D01*
G01X112925Y759D01*
G01X112986Y753D01*
G01X113814Y753D02*
G01X113875Y759D01*
G01X113931Y787D01*
G01X113975Y831D01*
G01X114003Y887D01*
G01X114014Y948D01*
G01X113103Y1609D02*
G01X113103Y4081D01*
G01X113703Y1609D02*
G01X113703Y4081D01*
G01X112792Y948D02*
G01X112792Y4081D01*
G01X114014Y4081D02*
G01X114001Y4142D01*
G01X113969Y4192D01*
G01X113920Y4225D01*
G01X113863Y4237D01*
G01X113831Y4235D01*
G01X113801Y4227D01*
G01X113751Y4195D01*
G01X113717Y4147D01*
G01X113703Y4087D01*
G01X114314Y942D02*
G01X114669Y5048D01*
G01X116763Y5042D02*
G01X116753Y5098D01*
G01X116719Y5153D01*
G01X116675Y5198D01*
G01X116625Y5220D01*
G01X116563Y5231D01*
G01X112616Y8914D02*
G01X113517Y8914D01*
G01X117916Y8914D02*
G01X118816Y8914D01*
G01X119452Y-246D02*
G01X119452Y1053D01*
G01X111980Y-246D02*
G01X111980Y1053D01*
G01X119452Y4253D02*
G01X119452Y6553D01*
G01X111980Y4253D02*
G01X111980Y6553D01*
G01X117119Y942D02*
G01X116758Y5048D01*
G01X114869Y5231D02*
G01X116563Y5231D01*
G01X114014Y948D02*
G01X114014Y4081D01*
G01X116502Y3726D02*
G01X114931Y3726D01*
G01X111980Y-246D02*
G01X119452Y-246D01*
G01X116003Y4486D02*
G01X115430Y4486D01*
G01X64073Y13925D02*
G01X64200Y13671D01*
G01X67121Y13671D01*
G01X67629Y13925D01*
G01X67502Y14179D01*
G01X64454Y14179D01*
G01X64073Y13925D01*
G01X68645Y17481D02*
G01X68391Y17354D01*
G01X67883Y14306D01*
G01X68137Y13925D01*
G01X68391Y14052D01*
G01X68899Y16973D01*
G01X68645Y17481D01*
G01X65089Y17989D02*
G01X65216Y17735D01*
G01X68137Y17735D01*
G01X68645Y17989D01*
G01X68518Y18243D01*
G01X65470Y18243D01*
G01X65089Y17989D01*
G01X63819Y14941D02*
G01X64327Y17862D01*
G01X64581Y17989D01*
G01X64835Y17608D01*
G01X64327Y14560D01*
G01X64073Y14433D01*
G01X63819Y14941D01*
G01X68645Y18751D02*
G01X69153Y21672D01*
G01X69407Y21799D01*
G01X69661Y21418D01*
G01X69153Y18370D01*
G01X68899Y18243D01*
G01X68645Y18751D01*
G01X64581Y18751D02*
G01X65089Y21672D01*
G01X65343Y21799D01*
G01X65597Y21418D01*
G01X65089Y18370D01*
G01X64835Y18243D01*
G01X64581Y18751D01*
G01X65978Y22307D02*
G01X69026Y22307D01*
G01X69153Y22053D01*
G01X68645Y21799D01*
G01X65724Y21799D01*
G01X65597Y22053D01*
G01X65978Y22307D01*
G01X55183Y13925D02*
G01X55310Y13671D01*
G01X58231Y13671D01*
G01X58739Y13925D01*
G01X58612Y14179D01*
G01X55564Y14179D01*
G01X55183Y13925D01*
G01X59755Y17481D02*
G01X59501Y17354D01*
G01X58993Y14306D01*
G01X59247Y13925D01*
G01X59501Y14052D01*
G01X60009Y16973D01*
G01X59755Y17481D01*
G01X56199Y17989D02*
G01X56326Y17735D01*
G01X59247Y17735D01*
G01X59755Y17989D01*
G01X59628Y18243D01*
G01X56580Y18243D01*
G01X56199Y17989D01*
G01X54929Y14941D02*
G01X55437Y17862D01*
G01X55691Y17989D01*
G01X55945Y17608D01*
G01X55437Y14560D01*
G01X55183Y14433D01*
G01X54929Y14941D01*
G01X59755Y18751D02*
G01X60263Y21672D01*
G01X60517Y21799D01*
G01X60771Y21418D01*
G01X60263Y18370D01*
G01X60009Y18243D01*
G01X59755Y18751D01*
G01X55691Y18751D02*
G01X56199Y21672D01*
G01X56453Y21799D01*
G01X56707Y21418D01*
G01X56199Y18370D01*
G01X55945Y18243D01*
G01X55691Y18751D01*
G01X57088Y22307D02*
G01X60136Y22307D01*
G01X60263Y22053D01*
G01X59755Y21799D01*
G01X56834Y21799D01*
G01X56707Y22053D01*
G01X57088Y22307D01*
G01X72963Y13925D02*
G01X73090Y13671D01*
G01X76011Y13671D01*
G01X76519Y13925D01*
G01X76392Y14179D01*
G01X73344Y14179D01*
G01X72963Y13925D01*
G01X77535Y17481D02*
G01X77281Y17354D01*
G01X76773Y14306D01*
G01X77027Y13925D01*
G01X77281Y14052D01*
G01X77789Y16973D01*
G01X77535Y17481D01*
G01X73979Y17989D02*
G01X74106Y17735D01*
G01X77027Y17735D01*
G01X77535Y17989D01*
G01X77408Y18243D01*
G01X74360Y18243D01*
G01X73979Y17989D01*
G01X72709Y14941D02*
G01X73217Y17862D01*
G01X73471Y17989D01*
G01X73725Y17608D01*
G01X73217Y14560D01*
G01X72963Y14433D01*
G01X72709Y14941D01*
G01X77535Y18751D02*
G01X78043Y21672D01*
G01X78297Y21799D01*
G01X78551Y21418D01*
G01X78043Y18370D01*
G01X77789Y18243D01*
G01X77535Y18751D01*
G01X73471Y18751D02*
G01X73979Y21672D01*
G01X74233Y21799D01*
G01X74487Y21418D01*
G01X73979Y18370D01*
G01X73725Y18243D01*
G01X73471Y18751D01*
G01X74868Y22307D02*
G01X77916Y22307D01*
G01X78043Y22053D01*
G01X77535Y21799D01*
G01X74614Y21799D01*
G01X74487Y22053D01*
G01X74868Y22307D01*
G01X81690Y13797D02*
G01X81817Y13543D01*
G01X84738Y13543D01*
G01X85246Y13797D01*
G01X85119Y14051D01*
G01X82071Y14051D01*
G01X81690Y13797D01*
G01X86262Y17353D02*
G01X86008Y17226D01*
G01X85500Y14178D01*
G01X85754Y13797D01*
G01X86008Y13924D01*
G01X86516Y16845D01*
G01X86262Y17353D01*
G01X82706Y17861D02*
G01X82833Y17607D01*
G01X85754Y17607D01*
G01X86262Y17861D01*
G01X86135Y18115D01*
G01X83087Y18115D01*
G01X82706Y17861D01*
G01X81436Y14813D02*
G01X81944Y17734D01*
G01X82198Y17861D01*
G01X82452Y17480D01*
G01X81944Y14432D01*
G01X81690Y14305D01*
G01X81436Y14813D01*
G01X86262Y18623D02*
G01X86770Y21544D01*
G01X87024Y21671D01*
G01X87278Y21290D01*
G01X86770Y18242D01*
G01X86516Y18115D01*
G01X86262Y18623D01*
G01X82198Y18623D02*
G01X82706Y21544D01*
G01X82960Y21671D01*
G01X83214Y21290D01*
G01X82706Y18242D01*
G01X82452Y18115D01*
G01X82198Y18623D01*
G01X83595Y22179D02*
G01X86643Y22179D01*
G01X86770Y21925D01*
G01X86262Y21671D01*
G01X83341Y21671D01*
G01X83214Y21925D01*
G01X83595Y22179D01*
G01X45989Y27299D02*
G01X96290Y27299D01*
G01X96290Y8299D01*
G01X45989Y8299D01*
G01X45989Y27299D01*
G01X125800Y42540D02*
G01X138400Y42540D01*
G01X138399Y42540D02*
G01X138399Y23540D01*
G01X138399Y23539D02*
G01X125800Y23539D01*
G01X125800Y23539D02*
G01X125800Y42539D01*
G54D22*
G01X129600Y33239D02*
G01X134600Y33239D01*
G01X130400Y37939D02*
G01X135400Y37939D01*
G01X129300Y37839D02*
G01X128599Y33440D01*
G01X136450Y37739D02*
G01X135749Y33340D01*
G01X129074Y27640D02*
G01X134074Y27640D01*
G01X128775Y32239D02*
G01X128074Y27840D01*
G01X135925Y32139D02*
G01X135224Y27740D01*
G54D10*
G01X98455Y12937D02*
G01X99243Y12937D01*
G01X98835Y12499D02*
G01X98835Y13337D01*
G01X106329Y7349D02*
G01X107117Y7349D01*
G01X106709Y6911D02*
G01X106709Y7749D01*
G01X111409Y14969D02*
G01X112197Y14969D01*
G01X111789Y14531D02*
G01X111789Y15369D01*
G01X121152Y12415D02*
G01X121152Y13786D01*
G01X121228Y12338D02*
G01X120365Y12338D01*
G01X121228Y13862D02*
G01X120365Y13862D01*
G01X120365Y12338D02*
G01X120365Y13862D01*
G01X23794Y13151D02*
G01X23794Y11780D01*
G01X23718Y13227D02*
G01X24581Y13227D01*
G01X23718Y11703D02*
G01X24581Y11703D01*
G01X24581Y13227D02*
G01X24581Y11703D01*
G01X24505Y7208D02*
G01X24505Y8579D01*
G01X24581Y7131D02*
G01X23718Y7131D01*
G01X24581Y8655D02*
G01X23718Y8655D01*
G01X23718Y7131D02*
G01X23718Y8655D01*
G01X25039Y8909D02*
G01X26887Y8909D01*
G01X26887Y11449D01*
G01X25039Y11449D01*
G01X23515Y11449D02*
G01X21657Y11449D01*
G01X21657Y8909D01*
G01X23515Y8909D01*
G01X105430Y10941D02*
G01X105430Y9093D01*
G01X107970Y9093D01*
G01X107970Y10941D01*
G01X107970Y12465D02*
G01X107970Y14324D01*
G01X105430Y14324D01*
G01X105430Y12465D01*
G01X15340Y51454D02*
G01X15340Y53470D01*
G01X50740Y53470D01*
G01X50740Y48169D01*
G01X15340Y48169D01*
G01X15340Y50184D01*
G01X121838Y11945D02*
G01X121838Y10472D01*
G01X123565Y11945D02*
G01X123565Y10472D01*
G01X123565Y11945D02*
G01X121838Y11945D01*
G01X121838Y9887D02*
G01X121838Y8719D01*
G01X123565Y9862D02*
G01X123565Y8719D01*
G01X123565Y8719D02*
G01X123210Y8363D01*
G01X122194Y8363D01*
G01X121838Y8719D01*
G54D30*
G01X123108Y10256D02*
G01X122321Y10256D01*
G01X122709Y10256D02*
G01X122709Y10080D01*
G54D10*
G01X55140Y61739D02*
G01X87139Y61739D01*
G01X55135Y29740D02*
G01X55135Y61739D01*
G01X87137Y29737D02*
G01X55137Y29737D01*
G01X87142Y61737D02*
G01X87142Y29737D01*
G01X10865Y23235D02*
G01X9494Y23235D01*
G01X10942Y23311D02*
G01X10942Y22448D01*
G01X9418Y23311D02*
G01X9418Y22448D01*
G01X10942Y22448D02*
G01X9418Y22448D01*
G01X5785Y23235D02*
G01X4414Y23235D01*
G01X5862Y23311D02*
G01X5862Y22448D01*
G01X4338Y23311D02*
G01X4338Y22448D01*
G01X5862Y22448D02*
G01X4338Y22448D01*
G01X122700Y54119D02*
G01X122700Y47520D01*
G01X90700Y54119D02*
G01X90700Y51836D01*
G01X90700Y47520D02*
G01X90700Y49804D01*
G01X90700Y54119D02*
G01X91720Y54119D01*
G01X93739Y54119D02*
G01X94260Y54119D01*
G01X96279Y54119D02*
G01X96800Y54119D01*
G01X98819Y54119D02*
G01X99340Y54119D01*
G01X101359Y54119D02*
G01X101880Y54119D01*
G01X103899Y54119D02*
G01X104420Y54119D01*
G01X106439Y54119D02*
G01X106960Y54119D01*
G01X108979Y54119D02*
G01X109500Y54119D01*
G01X111519Y54119D02*
G01X112040Y54119D01*
G01X114059Y54119D02*
G01X114580Y54119D01*
G01X116599Y54119D02*
G01X117120Y54119D01*
G01X119139Y54119D02*
G01X119660Y54119D01*
G01X121679Y54119D02*
G01X122700Y54119D01*
G01X122700Y47520D02*
G01X121679Y47520D01*
G01X119660Y47520D02*
G01X119139Y47520D01*
G01X117120Y47520D02*
G01X116599Y47520D01*
G01X114580Y47520D02*
G01X114059Y47520D01*
G01X112040Y47520D02*
G01X111519Y47520D01*
G01X109500Y47520D02*
G01X108979Y47520D01*
G01X106960Y47520D02*
G01X106439Y47520D01*
G01X104420Y47520D02*
G01X103899Y47520D01*
G01X101880Y47520D02*
G01X101359Y47520D01*
G01X99340Y47520D02*
G01X98819Y47520D01*
G01X96800Y47520D02*
G01X96279Y47520D01*
G01X94260Y47520D02*
G01X93739Y47520D01*
G01X91720Y47520D02*
G01X90700Y47520D01*
G01X28732Y13181D02*
G01X33283Y13181D01*
G01X33904Y11250D02*
G01X33904Y9109D01*
G01X33211Y7282D02*
G01X28804Y7282D01*
G01X28106Y9110D02*
G01X28106Y11249D01*
G01X28478Y41121D02*
G01X33029Y41121D01*
G01X33650Y39190D02*
G01X33650Y37049D01*
G01X32957Y35222D02*
G01X28550Y35222D01*
G01X27852Y37050D02*
G01X27852Y39189D01*
G01X20985Y33501D02*
G01X25536Y33501D01*
G01X26157Y31570D02*
G01X26157Y29429D01*
G01X25464Y27602D02*
G01X21057Y27602D01*
G01X20359Y29430D02*
G01X20359Y31569D01*
G01X28732Y26389D02*
G01X33283Y26389D01*
G01X33904Y24458D02*
G01X33904Y22317D01*
G01X33211Y20490D02*
G01X28804Y20490D01*
G01X28106Y22318D02*
G01X28106Y24457D01*
G01X36225Y33501D02*
G01X40776Y33501D01*
G01X41397Y31570D02*
G01X41397Y29429D01*
G01X40704Y27602D02*
G01X36297Y27602D01*
G01X35599Y29430D02*
G01X35599Y31569D01*
G01X10640Y28700D02*
G01X4440Y28700D01*
G01X10890Y28000D02*
G01X4390Y28000D01*
G01X4440Y32299D02*
G01X10840Y32299D01*
G01X4390Y32999D02*
G01X10890Y32999D01*
G01X7386Y31134D02*
G01X7386Y29864D01*
G01X7386Y29864D02*
G01X7894Y29864D01*
G01X7894Y29864D02*
G01X7894Y31134D01*
G01X7894Y31134D02*
G01X7386Y31134D01*
G01X7005Y31134D02*
G01X7005Y30499D01*
G01X7005Y30499D02*
G01X7005Y29864D01*
G01X7005Y30499D02*
G01X6624Y30499D01*
G01X8275Y31134D02*
G01X8275Y30499D01*
G01X8275Y30499D02*
G01X8275Y29864D01*
G01X8275Y30499D02*
G01X8656Y30499D01*
G54D33*
G01X95292Y44972D02*
G01X95107Y45158D01*
G01X94830Y45249D01*
G01X94462Y45249D01*
G01X94185Y45158D01*
G01X94000Y44972D01*
G01X94000Y44787D01*
G01X94091Y44604D01*
G01X94185Y44510D01*
G01X94368Y44419D01*
G01X94924Y44233D01*
G01X95107Y44142D01*
G01X95201Y44050D01*
G01X95292Y43865D01*
G01X95292Y43588D01*
G01X95107Y43403D01*
G01X94830Y43311D01*
G01X94462Y43311D01*
G01X94185Y43403D01*
G01X94000Y43588D01*
G01X95902Y44604D02*
G01X95902Y43311D01*
G01X95902Y44233D02*
G01X96179Y44510D01*
G01X96364Y44604D01*
G01X96641Y44604D01*
G01X96827Y44510D01*
G01X96918Y44233D01*
G01X96918Y43311D01*
G01X98635Y44604D02*
G01X98635Y43311D01*
G01X98635Y44327D02*
G01X98452Y44510D01*
G01X98267Y44604D01*
G01X97990Y44604D01*
G01X97804Y44510D01*
G01X97619Y44327D01*
G01X97528Y44050D01*
G01X97528Y43865D01*
G01X97619Y43588D01*
G01X97804Y43403D01*
G01X97990Y43311D01*
G01X98267Y43311D01*
G01X98452Y43403D01*
G01X98635Y43588D01*
G01X99245Y45249D02*
G01X99245Y43311D01*
G01X100169Y44604D02*
G01X99245Y43680D01*
G01X99615Y44050D02*
G01X100261Y43311D01*
G01X100870Y44050D02*
G01X101980Y44050D01*
G01X101980Y44233D01*
G01X101886Y44419D01*
G01X101795Y44510D01*
G01X101609Y44604D01*
G01X101332Y44604D01*
G01X101150Y44510D01*
G01X100964Y44327D01*
G01X100870Y44050D01*
G01X100870Y43865D01*
G01X100964Y43588D01*
G01X101150Y43403D01*
G01X101332Y43311D01*
G01X101609Y43311D01*
G01X101795Y43403D01*
G01X101980Y43588D01*
G01X103974Y44787D02*
G01X103883Y44972D01*
G01X103697Y45158D01*
G01X103512Y45249D01*
G01X103144Y45249D01*
G01X102958Y45158D01*
G01X102775Y44972D01*
G01X102681Y44787D01*
G01X102590Y44510D01*
G01X102590Y44050D01*
G01X102681Y43771D01*
G01X102775Y43588D01*
G01X102958Y43403D01*
G01X103144Y43311D01*
G01X103512Y43311D01*
G01X103697Y43403D01*
G01X103883Y43588D01*
G01X103974Y43771D01*
G01X103974Y44050D01*
G01X103512Y44050D02*
G01X103974Y44050D01*
G01X105694Y44604D02*
G01X105694Y43311D01*
G01X105694Y44327D02*
G01X105508Y44510D01*
G01X105323Y44604D01*
G01X105046Y44604D01*
G01X104861Y44510D01*
G01X104678Y44327D01*
G01X104584Y44050D01*
G01X104584Y43865D01*
G01X104678Y43588D01*
G01X104861Y43403D01*
G01X105046Y43311D01*
G01X105323Y43311D01*
G01X105508Y43403D01*
G01X105694Y43588D01*
G01X106303Y44604D02*
G01X106303Y43311D01*
G01X106303Y44233D02*
G01X106580Y44510D01*
G01X106763Y44604D01*
G01X107042Y44604D01*
G01X107225Y44510D01*
G01X107319Y44233D01*
G01X107319Y43311D01*
G01X107319Y44233D02*
G01X107596Y44510D01*
G01X107779Y44604D01*
G01X108058Y44604D01*
G01X108241Y44510D01*
G01X108335Y44233D01*
G01X108335Y43311D01*
G01X108945Y44050D02*
G01X110052Y44050D01*
G01X110052Y44233D01*
G01X109961Y44419D01*
G01X109867Y44510D01*
G01X109684Y44604D01*
G01X109405Y44604D01*
G01X109222Y44510D01*
G01X109036Y44327D01*
G01X108945Y44050D01*
G01X108945Y43865D01*
G01X109036Y43588D01*
G01X109222Y43403D01*
G01X109405Y43311D01*
G01X109684Y43311D01*
G01X109867Y43403D01*
G01X110052Y43588D01*
G01X112176Y44787D02*
G01X112176Y44881D01*
G01X112270Y45066D01*
G01X112361Y45158D01*
G01X112547Y45249D01*
G01X112915Y45249D01*
G01X113100Y45158D01*
G01X113192Y45066D01*
G01X113286Y44881D01*
G01X113286Y44696D01*
G01X113192Y44510D01*
G01X113009Y44233D01*
G01X112084Y43311D01*
G01X113377Y43311D01*
G01X114540Y45249D02*
G01X114264Y45158D01*
G01X114078Y44881D01*
G01X113987Y44419D01*
G01X113987Y44142D01*
G01X114078Y43680D01*
G01X114264Y43403D01*
G01X114540Y43311D01*
G01X114726Y43311D01*
G01X115003Y43403D01*
G01X115188Y43680D01*
G01X115280Y44142D01*
G01X115280Y44419D01*
G01X115188Y44881D01*
G01X115003Y45158D01*
G01X114726Y45249D01*
G01X114540Y45249D01*
G01X115983Y44787D02*
G01X115983Y44881D01*
G01X116075Y45066D01*
G01X116166Y45158D01*
G01X116352Y45249D01*
G01X116720Y45249D01*
G01X116905Y45158D01*
G01X116999Y45066D01*
G01X117091Y44881D01*
G01X117091Y44696D01*
G01X116999Y44510D01*
G01X116814Y44233D01*
G01X115889Y43311D01*
G01X117182Y43311D01*
G01X118345Y45249D02*
G01X118069Y45158D01*
G01X117886Y44881D01*
G01X117792Y44419D01*
G01X117792Y44142D01*
G01X117886Y43680D01*
G01X118069Y43403D01*
G01X118345Y43311D01*
G01X118531Y43311D01*
G01X118808Y43403D01*
G01X118993Y43680D01*
G01X119085Y44142D01*
G01X119085Y44419D01*
G01X118993Y44881D01*
G01X118808Y45158D01*
G01X118531Y45249D01*
G01X118345Y45249D01*
G54D34*
G01X109181Y5215D02*
G01X109077Y5162D01*
G01X108973Y5058D01*
G01X108922Y4956D01*
G01X108922Y4748D01*
G01X108973Y4644D01*
G01X109077Y4540D01*
G01X109181Y4486D01*
G01X109339Y4435D01*
G01X109598Y4435D01*
G01X109753Y4486D01*
G01X109857Y4540D01*
G01X109961Y4644D01*
G01X110012Y4748D01*
G01X110012Y4956D01*
G01X109961Y5058D01*
G01X109857Y5162D01*
G01X109753Y5215D01*
G01X108922Y5558D02*
G01X110012Y5558D01*
G01X108922Y5558D02*
G01X110012Y6285D01*
G01X108922Y6285D02*
G01X110012Y6285D01*
G01X109130Y6627D02*
G01X109077Y6732D01*
G01X108922Y6887D01*
G01X110012Y6887D01*
G01X71013Y28224D02*
G01X71013Y27134D01*
G01X71013Y27134D02*
G01X71635Y27134D01*
G01X71978Y28224D02*
G01X71978Y27134D01*
G01X71978Y28224D02*
G01X72653Y28224D01*
G01X71978Y27705D02*
G01X72394Y27705D01*
G01X71978Y27134D02*
G01X72653Y27134D01*
G01X72996Y28224D02*
G01X72996Y27134D01*
G01X72996Y28224D02*
G01X73362Y28224D01*
G01X73517Y28173D01*
G01X73621Y28069D01*
G01X73672Y27965D01*
G01X73725Y27807D01*
G01X73725Y27548D01*
G01X73672Y27393D01*
G01X73621Y27289D01*
G01X73517Y27185D01*
G01X73362Y27134D01*
G01X72996Y27134D01*
G01X74068Y28015D02*
G01X74172Y28069D01*
G01X74327Y28224D01*
G01X74327Y27134D01*
G01X132100Y43845D02*
G01X132100Y42755D01*
G01X132100Y42755D02*
G01X132722Y42755D01*
G01X133065Y43845D02*
G01X133065Y42755D01*
G01X133065Y43845D02*
G01X133740Y43845D01*
G01X133065Y43326D02*
G01X133481Y43326D01*
G01X133065Y42755D02*
G01X133740Y42755D01*
G01X134083Y43845D02*
G01X134083Y42755D01*
G01X134083Y43845D02*
G01X134449Y43845D01*
G01X134604Y43794D01*
G01X134708Y43690D01*
G01X134759Y43586D01*
G01X134812Y43428D01*
G01X134812Y43169D01*
G01X134759Y43014D01*
G01X134708Y42910D01*
G01X134604Y42806D01*
G01X134449Y42755D01*
G01X134083Y42755D01*
G01X135673Y43845D02*
G01X135155Y43118D01*
G01X135935Y43118D01*
G01X135673Y43845D02*
G01X135673Y42755D01*
G01X99605Y14133D02*
G01X99552Y14237D01*
G01X99448Y14341D01*
G01X99346Y14392D01*
G01X99138Y14392D01*
G01X99034Y14341D01*
G01X98930Y14237D01*
G01X98876Y14133D01*
G01X98826Y13976D01*
G01X98826Y13716D01*
G01X98876Y13562D01*
G01X98930Y13457D01*
G01X99034Y13353D01*
G01X99138Y13302D01*
G01X99346Y13302D01*
G01X99448Y13353D01*
G01X99552Y13457D01*
G01X99605Y13562D01*
G01X100052Y14392D02*
G01X100624Y14392D01*
G01X100311Y13976D01*
G01X100466Y13976D01*
G01X100570Y13925D01*
G01X100624Y13874D01*
G01X100675Y13716D01*
G01X100675Y13612D01*
G01X100624Y13457D01*
G01X100520Y13353D01*
G01X100362Y13302D01*
G01X100207Y13302D01*
G01X100052Y13353D01*
G01X99999Y13404D01*
G01X99948Y13508D01*
G01X107479Y8545D02*
G01X107426Y8649D01*
G01X107322Y8753D01*
G01X107220Y8804D01*
G01X107012Y8804D01*
G01X106908Y8753D01*
G01X106804Y8649D01*
G01X106750Y8545D01*
G01X106700Y8388D01*
G01X106700Y8128D01*
G01X106750Y7974D01*
G01X106804Y7869D01*
G01X106908Y7765D01*
G01X107012Y7714D01*
G01X107220Y7714D01*
G01X107322Y7765D01*
G01X107426Y7869D01*
G01X107479Y7974D01*
G01X108340Y8804D02*
G01X107822Y8078D01*
G01X108602Y8078D01*
G01X108340Y8804D02*
G01X108340Y7714D01*
G01X112559Y16165D02*
G01X112506Y16269D01*
G01X112402Y16373D01*
G01X112300Y16424D01*
G01X112092Y16424D01*
G01X111988Y16373D01*
G01X111884Y16269D01*
G01X111830Y16165D01*
G01X111780Y16008D01*
G01X111780Y15748D01*
G01X111830Y15594D01*
G01X111884Y15489D01*
G01X111988Y15385D01*
G01X112092Y15334D01*
G01X112300Y15334D01*
G01X112402Y15385D01*
G01X112506Y15489D01*
G01X112559Y15594D01*
G01X112902Y16216D02*
G01X113006Y16269D01*
G01X113161Y16424D01*
G01X113161Y15334D01*
G01X113817Y16424D02*
G01X113659Y16373D01*
G01X113558Y16216D01*
G01X113504Y15957D01*
G01X113504Y15802D01*
G01X113558Y15540D01*
G01X113659Y15385D01*
G01X113817Y15334D01*
G01X113921Y15334D01*
G01X114076Y15385D01*
G01X114180Y15540D01*
G01X114231Y15802D01*
G01X114231Y15957D01*
G01X114180Y16216D01*
G01X114076Y16373D01*
G01X113921Y16424D01*
G01X113817Y16424D01*
G01X119908Y15270D02*
G01X119908Y14180D01*
G01X119908Y15270D02*
G01X120375Y15270D01*
G01X120530Y15219D01*
G01X120583Y15166D01*
G01X120634Y15061D01*
G01X120634Y14957D01*
G01X120583Y14853D01*
G01X120530Y14802D01*
G01X120375Y14751D01*
G01X119908Y14751D01*
G01X120271Y14751D02*
G01X120634Y14180D01*
G01X121238Y15270D02*
G01X121081Y15219D01*
G01X121030Y15115D01*
G01X121030Y15011D01*
G01X121081Y14906D01*
G01X121185Y14853D01*
G01X121393Y14802D01*
G01X121548Y14751D01*
G01X121652Y14647D01*
G01X121706Y14543D01*
G01X121706Y14386D01*
G01X121652Y14282D01*
G01X121602Y14231D01*
G01X121444Y14180D01*
G01X121238Y14180D01*
G01X121081Y14231D01*
G01X121030Y14282D01*
G01X120977Y14386D01*
G01X120977Y14543D01*
G01X121030Y14647D01*
G01X121134Y14751D01*
G01X121289Y14802D01*
G01X121498Y14853D01*
G01X121602Y14906D01*
G01X121652Y15011D01*
G01X121652Y15115D01*
G01X121602Y15219D01*
G01X121444Y15270D01*
G01X121238Y15270D01*
G01X19324Y12984D02*
G01X19324Y11894D01*
G01X19324Y12984D02*
G01X19791Y12984D01*
G01X19946Y12933D01*
G01X19999Y12880D01*
G01X20050Y12775D01*
G01X20050Y12671D01*
G01X19999Y12567D01*
G01X19946Y12516D01*
G01X19791Y12465D01*
G01X19324Y12465D01*
G01X19687Y12465D02*
G01X20050Y11894D01*
G01X20393Y12775D02*
G01X20497Y12829D01*
G01X20654Y12984D01*
G01X20654Y11894D01*
G01X21102Y12984D02*
G01X21673Y12984D01*
G01X21361Y12567D01*
G01X21516Y12567D01*
G01X21620Y12516D01*
G01X21673Y12465D01*
G01X21724Y12308D01*
G01X21724Y12204D01*
G01X21673Y12049D01*
G01X21569Y11945D01*
G01X21411Y11894D01*
G01X21256Y11894D01*
G01X21102Y11945D01*
G01X21048Y11996D01*
G01X20997Y12100D01*
G01X19324Y8412D02*
G01X19324Y7322D01*
G01X19324Y8412D02*
G01X19791Y8412D01*
G01X19946Y8361D01*
G01X19999Y8308D01*
G01X20050Y8203D01*
G01X20050Y8099D01*
G01X19999Y7995D01*
G01X19946Y7944D01*
G01X19791Y7893D01*
G01X19324Y7893D01*
G01X19687Y7893D02*
G01X20050Y7322D01*
G01X20393Y8203D02*
G01X20497Y8257D01*
G01X20654Y8412D01*
G01X20654Y7322D01*
G01X21516Y8412D02*
G01X20997Y7685D01*
G01X21775Y7685D01*
G01X21516Y8412D02*
G01X21516Y7322D01*
G01X19976Y10439D02*
G01X19923Y10543D01*
G01X19819Y10647D01*
G01X19717Y10698D01*
G01X19509Y10698D01*
G01X19405Y10647D01*
G01X19301Y10543D01*
G01X19247Y10439D01*
G01X19197Y10281D01*
G01X19197Y10022D01*
G01X19247Y9867D01*
G01X19301Y9763D01*
G01X19405Y9659D01*
G01X19509Y9608D01*
G01X19717Y9608D01*
G01X19819Y9659D01*
G01X19923Y9763D01*
G01X19976Y9867D01*
G01X20319Y10489D02*
G01X20423Y10543D01*
G01X20578Y10698D01*
G01X20578Y9608D01*
G01X20921Y10489D02*
G01X21025Y10543D01*
G01X21180Y10698D01*
G01X21180Y9608D01*
G01X106590Y15392D02*
G01X106537Y15496D01*
G01X106433Y15600D01*
G01X106331Y15651D01*
G01X106123Y15651D01*
G01X106019Y15600D01*
G01X105915Y15496D01*
G01X105861Y15392D01*
G01X105811Y15234D01*
G01X105811Y14975D01*
G01X105861Y14820D01*
G01X105915Y14716D01*
G01X106019Y14612D01*
G01X106123Y14561D01*
G01X106331Y14561D01*
G01X106433Y14612D01*
G01X106537Y14716D01*
G01X106590Y14820D01*
G01X107609Y15287D02*
G01X107555Y15132D01*
G01X107451Y15028D01*
G01X107296Y14975D01*
G01X107246Y14975D01*
G01X107088Y15028D01*
G01X106984Y15132D01*
G01X106933Y15287D01*
G01X106933Y15338D01*
G01X106984Y15496D01*
G01X107088Y15600D01*
G01X107246Y15651D01*
G01X107296Y15651D01*
G01X107451Y15600D01*
G01X107555Y15496D01*
G01X107609Y15287D01*
G01X107609Y15028D01*
G01X107555Y14767D01*
G01X107451Y14612D01*
G01X107296Y14561D01*
G01X107192Y14561D01*
G01X107037Y14612D01*
G01X106984Y14716D01*
G01X32786Y56799D02*
G01X32786Y56019D01*
G01X32836Y55864D01*
G01X32940Y55760D01*
G01X33098Y55709D01*
G01X33202Y55709D01*
G01X33357Y55760D01*
G01X33461Y55864D01*
G01X33512Y56019D01*
G01X33512Y56799D01*
G01X33855Y56590D02*
G01X33959Y56644D01*
G01X34116Y56799D01*
G01X34116Y55709D01*
G01X123834Y8528D02*
G01X124924Y8528D01*
G01X124924Y8528D02*
G01X124924Y9151D01*
G01X123834Y9494D02*
G01X124924Y9494D01*
G01X123834Y9494D02*
G01X123834Y10169D01*
G01X124353Y9494D02*
G01X124353Y9910D01*
G01X124924Y9494D02*
G01X124924Y10169D01*
G01X123834Y10512D02*
G01X124924Y10512D01*
G01X123834Y10512D02*
G01X123834Y10878D01*
G01X123885Y11033D01*
G01X123989Y11137D01*
G01X124094Y11188D01*
G01X124251Y11241D01*
G01X124510Y11241D01*
G01X124665Y11188D01*
G01X124769Y11137D01*
G01X124873Y11033D01*
G01X124924Y10878D01*
G01X124924Y10512D01*
G01X123834Y11688D02*
G01X123834Y12260D01*
G01X124251Y11947D01*
G01X124251Y12102D01*
G01X124302Y12206D01*
G01X124353Y12260D01*
G01X124510Y12310D01*
G01X124614Y12310D01*
G01X124769Y12260D01*
G01X124873Y12156D01*
G01X124924Y11998D01*
G01X124924Y11843D01*
G01X124873Y11688D01*
G01X124823Y11635D01*
G01X124718Y11584D01*
G01X70886Y62895D02*
G01X70886Y61805D01*
G01X70886Y61805D02*
G01X71508Y61805D01*
G01X71851Y62895D02*
G01X71851Y61805D01*
G01X71851Y62895D02*
G01X72526Y62895D01*
G01X71851Y62376D02*
G01X72267Y62376D01*
G01X71851Y61805D02*
G01X72526Y61805D01*
G01X72869Y62895D02*
G01X72869Y61805D01*
G01X72869Y62895D02*
G01X73235Y62895D01*
G01X73390Y62844D01*
G01X73494Y62740D01*
G01X73545Y62636D01*
G01X73598Y62478D01*
G01X73598Y62219D01*
G01X73545Y62064D01*
G01X73494Y61960D01*
G01X73390Y61856D01*
G01X73235Y61805D01*
G01X72869Y61805D01*
G01X73992Y62636D02*
G01X73992Y62686D01*
G01X74045Y62791D01*
G01X74096Y62844D01*
G01X74200Y62895D01*
G01X74408Y62895D01*
G01X74513Y62844D01*
G01X74563Y62791D01*
G01X74617Y62686D01*
G01X74617Y62582D01*
G01X74563Y62478D01*
G01X74459Y62323D01*
G01X73941Y61805D01*
G01X74668Y61805D01*
G54D33*
G01X59456Y34703D02*
G01X59641Y34795D01*
G01X59918Y35071D01*
G01X59918Y33133D01*
G01X82778Y35163D02*
G01X82501Y35071D01*
G01X82407Y34886D01*
G01X82407Y34703D01*
G01X82501Y34518D01*
G01X82684Y34424D01*
G01X83055Y34332D01*
G01X83332Y34241D01*
G01X83517Y34055D01*
G01X83608Y33870D01*
G01X83608Y33593D01*
G01X83517Y33408D01*
G01X83423Y33316D01*
G01X83146Y33225D01*
G01X82778Y33225D01*
G01X82501Y33316D01*
G01X82407Y33408D01*
G01X82316Y33593D01*
G01X82316Y33870D01*
G01X82407Y34055D01*
G01X82592Y34241D01*
G01X82869Y34332D01*
G01X83240Y34424D01*
G01X83423Y34518D01*
G01X83517Y34703D01*
G01X83517Y34886D01*
G01X83423Y35071D01*
G01X83146Y35163D01*
G01X82778Y35163D01*
G01X83263Y57540D02*
G01X83169Y57263D01*
G01X82986Y57078D01*
G01X82709Y56987D01*
G01X82615Y56987D01*
G01X82338Y57078D01*
G01X82153Y57263D01*
G01X82062Y57540D01*
G01X82062Y57632D01*
G01X82153Y57909D01*
G01X82338Y58094D01*
G01X82615Y58185D01*
G01X82709Y58185D01*
G01X82986Y58094D01*
G01X83169Y57909D01*
G01X83263Y57540D01*
G01X83263Y57078D01*
G01X83169Y56616D01*
G01X82986Y56339D01*
G01X82709Y56247D01*
G01X82524Y56247D01*
G01X82247Y56339D01*
G01X82153Y56524D01*
G01X58440Y57563D02*
G01X58625Y57655D01*
G01X58902Y57931D01*
G01X58902Y55993D01*
G01X60619Y57655D02*
G01X60527Y57840D01*
G01X60251Y57931D01*
G01X60065Y57931D01*
G01X59788Y57840D01*
G01X59603Y57563D01*
G01X59511Y57101D01*
G01X59511Y56639D01*
G01X59603Y56270D01*
G01X59788Y56085D01*
G01X60065Y55993D01*
G01X60157Y55993D01*
G01X60433Y56085D01*
G01X60619Y56270D01*
G01X60713Y56547D01*
G01X60713Y56639D01*
G01X60619Y56915D01*
G01X60433Y57101D01*
G01X60157Y57192D01*
G01X60065Y57192D01*
G01X59788Y57101D01*
G01X59603Y56915D01*
G01X59511Y56639D01*
G54D34*
G01X10115Y20188D02*
G01X10061Y20293D01*
G01X9957Y20397D01*
G01X9856Y20447D01*
G01X9647Y20447D01*
G01X9543Y20397D01*
G01X9439Y20293D01*
G01X9386Y20188D01*
G01X9335Y20031D01*
G01X9335Y19772D01*
G01X9386Y19617D01*
G01X9439Y19513D01*
G01X9543Y19409D01*
G01X9647Y19358D01*
G01X9856Y19358D01*
G01X9957Y19409D01*
G01X10061Y19513D01*
G01X10115Y19617D01*
G01X10458Y20239D02*
G01X10562Y20293D01*
G01X10717Y20447D01*
G01X10717Y19358D01*
G01X4863Y20218D02*
G01X4810Y20322D01*
G01X4706Y20426D01*
G01X4604Y20477D01*
G01X4396Y20477D01*
G01X4292Y20426D01*
G01X4188Y20322D01*
G01X4134Y20218D01*
G01X4084Y20060D01*
G01X4084Y19801D01*
G01X4134Y19646D01*
G01X4188Y19542D01*
G01X4292Y19438D01*
G01X4396Y19387D01*
G01X4604Y19387D01*
G01X4706Y19438D01*
G01X4810Y19542D01*
G01X4863Y19646D01*
G01X5257Y20218D02*
G01X5257Y20268D01*
G01X5310Y20373D01*
G01X5361Y20426D01*
G01X5465Y20477D01*
G01X5674Y20477D01*
G01X5778Y20426D01*
G01X5828Y20373D01*
G01X5882Y20268D01*
G01X5882Y20164D01*
G01X5828Y20060D01*
G01X5724Y19905D01*
G01X5206Y19387D01*
G01X5933Y19387D01*
G01X106700Y56799D02*
G01X106700Y56020D01*
G01X106750Y55865D01*
G01X106854Y55761D01*
G01X107012Y55710D01*
G01X107116Y55710D01*
G01X107271Y55761D01*
G01X107375Y55865D01*
G01X107426Y56020D01*
G01X107426Y56799D01*
G01X107873Y56799D02*
G01X108444Y56799D01*
G01X108135Y56383D01*
G01X108290Y56383D01*
G01X108394Y56332D01*
G01X108444Y56281D01*
G01X108498Y56124D01*
G01X108498Y56020D01*
G01X108444Y55865D01*
G01X108340Y55761D01*
G01X108185Y55710D01*
G01X108030Y55710D01*
G01X107873Y55761D01*
G01X107822Y55811D01*
G01X107769Y55915D01*
G01X30806Y14853D02*
G01X30806Y13763D01*
G01X31532Y14853D02*
G01X30806Y14126D01*
G01X31065Y14385D02*
G01X31532Y13763D01*
G01X31875Y14853D02*
G01X31875Y13763D01*
G01X31875Y14853D02*
G01X32551Y14853D01*
G01X31875Y14334D02*
G01X32291Y14334D01*
G01X31875Y13763D02*
G01X32551Y13763D01*
G01X32893Y14853D02*
G01X33310Y14334D01*
G01X33310Y13763D01*
G01X33727Y14853D02*
G01X33310Y14334D01*
G01X34069Y14644D02*
G01X34171Y14698D01*
G01X34329Y14853D01*
G01X34329Y13763D01*
G01X30552Y42793D02*
G01X30552Y41703D01*
G01X31278Y42793D02*
G01X30552Y42066D01*
G01X30811Y42325D02*
G01X31278Y41703D01*
G01X31621Y42793D02*
G01X31621Y41703D01*
G01X31621Y42793D02*
G01X32297Y42793D01*
G01X31621Y42274D02*
G01X32037Y42274D01*
G01X31621Y41703D02*
G01X32297Y41703D01*
G01X32639Y42793D02*
G01X33056Y42274D01*
G01X33056Y41703D01*
G01X33473Y42793D02*
G01X33056Y42274D01*
G01X33866Y42534D02*
G01X33866Y42584D01*
G01X33917Y42688D01*
G01X33970Y42742D01*
G01X34075Y42793D01*
G01X34283Y42793D01*
G01X34387Y42742D01*
G01X34438Y42688D01*
G01X34489Y42584D01*
G01X34489Y42480D01*
G01X34438Y42376D01*
G01X34334Y42221D01*
G01X33815Y41703D01*
G01X34542Y41703D01*
G01X23059Y35173D02*
G01X23059Y34083D01*
G01X23785Y35173D02*
G01X23059Y34446D01*
G01X23318Y34705D02*
G01X23785Y34083D01*
G01X24128Y35173D02*
G01X24128Y34083D01*
G01X24128Y35173D02*
G01X24804Y35173D01*
G01X24128Y34654D02*
G01X24544Y34654D01*
G01X24128Y34083D02*
G01X24804Y34083D01*
G01X25146Y35173D02*
G01X25563Y34654D01*
G01X25563Y34083D01*
G01X25980Y35173D02*
G01X25563Y34654D01*
G01X26424Y35173D02*
G01X26996Y35173D01*
G01X26686Y34756D01*
G01X26841Y34756D01*
G01X26945Y34705D01*
G01X26996Y34654D01*
G01X27049Y34497D01*
G01X27049Y34393D01*
G01X26996Y34238D01*
G01X26894Y34134D01*
G01X26737Y34083D01*
G01X26582Y34083D01*
G01X26424Y34134D01*
G01X26373Y34185D01*
G01X26322Y34289D01*
G01X30806Y28061D02*
G01X30806Y26971D01*
G01X31532Y28061D02*
G01X30806Y27334D01*
G01X31065Y27593D02*
G01X31532Y26971D01*
G01X31875Y28061D02*
G01X31875Y26971D01*
G01X31875Y28061D02*
G01X32551Y28061D01*
G01X31875Y27542D02*
G01X32291Y27542D01*
G01X31875Y26971D02*
G01X32551Y26971D01*
G01X32893Y28061D02*
G01X33310Y27542D01*
G01X33310Y26971D01*
G01X33727Y28061D02*
G01X33310Y27542D01*
G01X34588Y28061D02*
G01X34069Y27334D01*
G01X34847Y27334D01*
G01X34588Y28061D02*
G01X34588Y26971D01*
G01X38299Y35173D02*
G01X38299Y34083D01*
G01X39025Y35173D02*
G01X38299Y34446D01*
G01X38558Y34705D02*
G01X39025Y34083D01*
G01X39368Y35173D02*
G01X39368Y34083D01*
G01X39368Y35173D02*
G01X40044Y35173D01*
G01X39368Y34654D02*
G01X39784Y34654D01*
G01X39368Y34083D02*
G01X40044Y34083D01*
G01X40386Y35173D02*
G01X40803Y34654D01*
G01X40803Y34083D01*
G01X41220Y35173D02*
G01X40803Y34654D01*
G01X42185Y35173D02*
G01X41664Y35173D01*
G01X41613Y34705D01*
G01X41664Y34756D01*
G01X41822Y34809D01*
G01X41977Y34809D01*
G01X42134Y34756D01*
G01X42236Y34654D01*
G01X42289Y34497D01*
G01X42289Y34393D01*
G01X42236Y34238D01*
G01X42134Y34134D01*
G01X41977Y34083D01*
G01X41822Y34083D01*
G01X41664Y34134D01*
G01X41613Y34185D01*
G01X41562Y34289D01*
G01X7386Y34193D02*
G01X8112Y33103D01*
G01X8112Y34193D02*
G01X7386Y33103D01*
G01X8455Y33984D02*
G01X8559Y34038D01*
G01X8716Y34193D01*
G01X8716Y33103D01*
G54D10*
G75*
G01X69481Y13921D02*
G03X69486Y13921I3J-250D01*
G01*
G75*
G01X60591Y13921D02*
G03X60596Y13921I3J-250D01*
G01*
G75*
G01X78371Y13921D02*
G03X78376Y13921I3J-250D01*
G01*
G75*
G01X87098Y13792D02*
G03X87103Y13792I3J-250D01*
G01*
G54D31*
G75*
G01X15100Y47020D02*
G03X15100Y47023I150J1D01*
G01*
G54D10*
G75*
G01X15339Y50185D02*
G03X15339Y51455I0J635D01*
G01*
G54D32*
G75*
G01X16040Y49169D02*
G03X16040Y49174I300J3D01*
G01*
G54D10*
G75*
G01X90700Y51837D02*
G02X90700Y49805I0J-1016D01*
G01*
G75*
G01X10890Y33000D02*
G02X10891Y28001I-7J-2500D01*
G01*
G75*
G01X4390Y28000D02*
G02X4389Y32999I7J2500D01*
G01*
G75*
G01X10840Y32300D02*
G02X10640Y28699I-107J-1800D01*
G01*
G75*
G01X4440Y28700D02*
G02X4440Y32301I0J1800D01*
G01*
G75*
G01X137332Y27740D02*
G03X137332Y27740I-532J0D01*
G01*
G75*
G01X100326Y10687D02*
G03X100326Y10687I-1500J0D01*
G01*
G75*
G01X108200Y5099D02*
G03X108200Y5099I-1500J0D01*
G01*
G75*
G01X113280Y12719D02*
G03X113280Y12719I-1500J0D01*
G01*
G75*
G01X58948Y55138D02*
G03X58948Y55138I-1016J0D01*
G01*
G75*
G01X58948Y58948D02*
G03X58948Y58948I-1016J0D01*
G01*
G75*
G01X58948Y51328D02*
G03X58948Y51328I-1016J0D01*
G01*
G75*
G01X58948Y47518D02*
G03X58948Y47518I-1016J0D01*
G01*
G75*
G01X58948Y43962D02*
G03X58948Y43962I-1016J0D01*
G01*
G75*
G01X58948Y40152D02*
G03X58948Y40152I-1016J0D01*
G01*
G75*
G01X58948Y36342D02*
G03X58948Y36342I-1016J0D01*
G01*
G75*
G01X58948Y32532D02*
G03X58948Y32532I-1016J0D01*
G01*
G75*
G01X62758Y55138D02*
G03X62758Y55138I-1016J0D01*
G01*
G75*
G01X62758Y58948D02*
G03X62758Y58948I-1016J0D01*
G01*
G75*
G01X62758Y51328D02*
G03X62758Y51328I-1016J0D01*
G01*
G75*
G01X62758Y47518D02*
G03X62758Y47518I-1016J0D01*
G01*
G75*
G01X62758Y43962D02*
G03X62758Y43962I-1016J0D01*
G01*
G75*
G01X62758Y40152D02*
G03X62758Y40152I-1016J0D01*
G01*
G75*
G01X62758Y36342D02*
G03X62758Y36342I-1016J0D01*
G01*
G75*
G01X62758Y32532D02*
G03X62758Y32532I-1016J0D01*
G01*
G75*
G01X66568Y55138D02*
G03X66568Y55138I-1016J0D01*
G01*
G75*
G01X66568Y58948D02*
G03X66568Y58948I-1016J0D01*
G01*
G75*
G01X66568Y51328D02*
G03X66568Y51328I-1016J0D01*
G01*
G75*
G01X66568Y47518D02*
G03X66568Y47518I-1016J0D01*
G01*
G75*
G01X66568Y43962D02*
G03X66568Y43962I-1016J0D01*
G01*
G75*
G01X66568Y40152D02*
G03X66568Y40152I-1016J0D01*
G01*
G75*
G01X66568Y36342D02*
G03X66568Y36342I-1016J0D01*
G01*
G75*
G01X66568Y32532D02*
G03X66568Y32532I-1016J0D01*
G01*
G75*
G01X70378Y55138D02*
G03X70378Y55138I-1016J0D01*
G01*
G75*
G01X70378Y58948D02*
G03X70378Y58948I-1016J0D01*
G01*
G75*
G01X70378Y51328D02*
G03X70378Y51328I-1016J0D01*
G01*
G75*
G01X70378Y47518D02*
G03X70378Y47518I-1016J0D01*
G01*
G75*
G01X70378Y43962D02*
G03X70378Y43962I-1016J0D01*
G01*
G75*
G01X70378Y40152D02*
G03X70378Y40152I-1016J0D01*
G01*
G75*
G01X70378Y36342D02*
G03X70378Y36342I-1016J0D01*
G01*
G75*
G01X70378Y32532D02*
G03X70378Y32532I-1016J0D01*
G01*
G75*
G01X74188Y55138D02*
G03X74188Y55138I-1016J0D01*
G01*
G75*
G01X74188Y58948D02*
G03X74188Y58948I-1016J0D01*
G01*
G75*
G01X74188Y51328D02*
G03X74188Y51328I-1016J0D01*
G01*
G75*
G01X74188Y47518D02*
G03X74188Y47518I-1016J0D01*
G01*
G75*
G01X74188Y43962D02*
G03X74188Y43962I-1016J0D01*
G01*
G75*
G01X74188Y40152D02*
G03X74188Y40152I-1016J0D01*
G01*
G75*
G01X74188Y36342D02*
G03X74188Y36342I-1016J0D01*
G01*
G75*
G01X74188Y32532D02*
G03X74188Y32532I-1016J0D01*
G01*
G75*
G01X77998Y55138D02*
G03X77998Y55138I-1016J0D01*
G01*
G75*
G01X77998Y58948D02*
G03X77998Y58948I-1016J0D01*
G01*
G75*
G01X77998Y51328D02*
G03X77998Y51328I-1016J0D01*
G01*
G75*
G01X77998Y47518D02*
G03X77998Y47518I-1016J0D01*
G01*
G75*
G01X77998Y43962D02*
G03X77998Y43962I-1016J0D01*
G01*
G75*
G01X77998Y40152D02*
G03X77998Y40152I-1016J0D01*
G01*
G75*
G01X77998Y36342D02*
G03X77998Y36342I-1016J0D01*
G01*
G75*
G01X77998Y32532D02*
G03X77998Y32532I-1016J0D01*
G01*
G75*
G01X81808Y55138D02*
G03X81808Y55138I-1016J0D01*
G01*
G75*
G01X81808Y58948D02*
G03X81808Y58948I-1016J0D01*
G01*
G75*
G01X81808Y51328D02*
G03X81808Y51328I-1016J0D01*
G01*
G75*
G01X81808Y47518D02*
G03X81808Y47518I-1016J0D01*
G01*
G75*
G01X81808Y43962D02*
G03X81808Y43962I-1016J0D01*
G01*
G75*
G01X81808Y40152D02*
G03X81808Y40152I-1016J0D01*
G01*
G75*
G01X81808Y36342D02*
G03X81808Y36342I-1016J0D01*
G01*
G75*
G01X81808Y32532D02*
G03X81808Y32532I-1016J0D01*
G01*
G75*
G01X85618Y55138D02*
G03X85618Y55138I-1016J0D01*
G01*
G75*
G01X85618Y58948D02*
G03X85618Y58948I-1016J0D01*
G01*
G75*
G01X85618Y51328D02*
G03X85618Y51328I-1016J0D01*
G01*
G75*
G01X85618Y47518D02*
G03X85618Y47518I-1016J0D01*
G01*
G75*
G01X85618Y43962D02*
G03X85618Y43962I-1016J0D01*
G01*
G75*
G01X85618Y40152D02*
G03X85618Y40152I-1016J0D01*
G01*
G75*
G01X85618Y36342D02*
G03X85618Y36342I-1016J0D01*
G01*
G75*
G01X85618Y32532D02*
G03X85618Y32532I-1016J0D01*
G01*
G75*
G01X32712Y10228D02*
G03X32712Y10228I-1750J0D01*
G01*
G75*
G01X31712Y10228D02*
G03X31712Y10228I-749J0D01*
G01*
G75*
G01X32458Y38168D02*
G03X32458Y38168I-1750J0D01*
G01*
G75*
G01X31458Y38168D02*
G03X31458Y38168I-749J0D01*
G01*
G75*
G01X24965Y30548D02*
G03X24965Y30548I-1750J0D01*
G01*
G75*
G01X23965Y30548D02*
G03X23965Y30548I-749J0D01*
G01*
G75*
G01X32712Y23436D02*
G03X32712Y23436I-1750J0D01*
G01*
G75*
G01X31712Y23436D02*
G03X31712Y23436I-749J0D01*
G01*
G75*
G01X40205Y30548D02*
G03X40205Y30548I-1750J0D01*
G01*
G75*
G01X39205Y30548D02*
G03X39205Y30548I-749J0D01*
G01*

%LPD*%
G36*
G01X100326Y10637D02*
G01X97326Y10637D01*
G01X97331Y10581D01*
G01X97337Y10526D01*
G01X97346Y10471D01*
G01X97357Y10416D01*
G01X97370Y10362D01*
G01X97385Y10309D01*
G01X97402Y10255D01*
G01X97421Y10203D01*
G01X97442Y10151D01*
G01X97465Y10100D01*
G01X97490Y10050D01*
G01X97516Y10001D01*
G01X97545Y9953D01*
G01X97575Y9906D01*
G01X97606Y9861D01*
G01X97640Y9816D01*
G01X97675Y9773D01*
G01X97712Y9731D01*
G01X97750Y9690D01*
G01X97790Y9651D01*
G01X97831Y9613D01*
G01X97873Y9577D01*
G01X97917Y9543D01*
G01X97962Y9510D01*
G01X98008Y9479D01*
G01X98056Y9449D01*
G01X98104Y9421D01*
G01X98153Y9396D01*
G01X98204Y9372D01*
G01X98255Y9350D01*
G01X98307Y9329D01*
G01X98359Y9311D01*
G01X98413Y9295D01*
G01X98467Y9280D01*
G01X98521Y9268D01*
G01X98576Y9258D01*
G01X98631Y9250D01*
G01X98686Y9243D01*
G01X98742Y9239D01*
G01X98798Y9237D01*
G01X98853Y9237D01*
G01X98909Y9239D01*
G01X98965Y9243D01*
G01X99020Y9250D01*
G01X99075Y9258D01*
G01X99130Y9268D01*
G01X99184Y9280D01*
G01X99238Y9295D01*
G01X99292Y9311D01*
G01X99344Y9329D01*
G01X99396Y9350D01*
G01X99447Y9372D01*
G01X99498Y9396D01*
G01X99547Y9421D01*
G01X99596Y9449D01*
G01X99643Y9479D01*
G01X99689Y9510D01*
G01X99734Y9543D01*
G01X99778Y9577D01*
G01X99820Y9613D01*
G01X99862Y9651D01*
G01X99901Y9690D01*
G01X99939Y9731D01*
G01X99976Y9773D01*
G01X100011Y9816D01*
G01X100045Y9861D01*
G01X100076Y9906D01*
G01X100107Y9953D01*
G01X100135Y10001D01*
G01X100161Y10050D01*
G01X100186Y10100D01*
G01X100209Y10151D01*
G01X100230Y10203D01*
G01X100249Y10255D01*
G01X100266Y10308D01*
G01X100281Y10362D01*
G01X100294Y10416D01*
G01X100305Y10471D01*
G01X100314Y10526D01*
G01X100321Y10581D01*
G01X100326Y10637D01*
G37*

%LPD*%
G36*
G01X108200Y5049D02*
G01X105200Y5049D01*
G01X105205Y4993D01*
G01X105211Y4938D01*
G01X105220Y4883D01*
G01X105231Y4828D01*
G01X105244Y4774D01*
G01X105259Y4721D01*
G01X105276Y4667D01*
G01X105295Y4615D01*
G01X105316Y4563D01*
G01X105339Y4512D01*
G01X105364Y4462D01*
G01X105390Y4413D01*
G01X105419Y4365D01*
G01X105449Y4318D01*
G01X105480Y4273D01*
G01X105514Y4228D01*
G01X105549Y4185D01*
G01X105586Y4143D01*
G01X105624Y4102D01*
G01X105664Y4063D01*
G01X105705Y4025D01*
G01X105747Y3989D01*
G01X105791Y3955D01*
G01X105836Y3922D01*
G01X105882Y3891D01*
G01X105930Y3861D01*
G01X105978Y3833D01*
G01X106027Y3808D01*
G01X106078Y3784D01*
G01X106129Y3762D01*
G01X106181Y3741D01*
G01X106233Y3723D01*
G01X106287Y3707D01*
G01X106341Y3692D01*
G01X106395Y3680D01*
G01X106450Y3670D01*
G01X106505Y3662D01*
G01X106560Y3655D01*
G01X106616Y3651D01*
G01X106672Y3649D01*
G01X106727Y3649D01*
G01X106783Y3651D01*
G01X106839Y3655D01*
G01X106894Y3662D01*
G01X106949Y3670D01*
G01X107004Y3680D01*
G01X107058Y3692D01*
G01X107112Y3707D01*
G01X107166Y3723D01*
G01X107218Y3741D01*
G01X107270Y3762D01*
G01X107321Y3784D01*
G01X107372Y3808D01*
G01X107421Y3833D01*
G01X107470Y3861D01*
G01X107517Y3891D01*
G01X107563Y3922D01*
G01X107608Y3955D01*
G01X107652Y3989D01*
G01X107694Y4025D01*
G01X107736Y4063D01*
G01X107775Y4102D01*
G01X107813Y4143D01*
G01X107850Y4185D01*
G01X107885Y4228D01*
G01X107919Y4273D01*
G01X107950Y4318D01*
G01X107981Y4365D01*
G01X108009Y4413D01*
G01X108035Y4462D01*
G01X108060Y4512D01*
G01X108083Y4563D01*
G01X108104Y4615D01*
G01X108123Y4667D01*
G01X108140Y4720D01*
G01X108155Y4774D01*
G01X108168Y4828D01*
G01X108179Y4883D01*
G01X108188Y4938D01*
G01X108195Y4993D01*
G01X108200Y5049D01*
G37*

%LPD*%
G36*
G01X113280Y12669D02*
G01X110280Y12669D01*
G01X110285Y12613D01*
G01X110291Y12558D01*
G01X110300Y12503D01*
G01X110311Y12448D01*
G01X110324Y12394D01*
G01X110339Y12341D01*
G01X110356Y12287D01*
G01X110375Y12235D01*
G01X110396Y12183D01*
G01X110419Y12132D01*
G01X110444Y12082D01*
G01X110470Y12033D01*
G01X110499Y11985D01*
G01X110529Y11938D01*
G01X110560Y11893D01*
G01X110594Y11848D01*
G01X110629Y11805D01*
G01X110666Y11763D01*
G01X110704Y11722D01*
G01X110744Y11683D01*
G01X110785Y11645D01*
G01X110827Y11609D01*
G01X110871Y11575D01*
G01X110916Y11542D01*
G01X110962Y11511D01*
G01X111010Y11481D01*
G01X111058Y11453D01*
G01X111107Y11428D01*
G01X111158Y11404D01*
G01X111209Y11382D01*
G01X111261Y11361D01*
G01X111313Y11343D01*
G01X111367Y11327D01*
G01X111421Y11312D01*
G01X111475Y11300D01*
G01X111530Y11290D01*
G01X111585Y11282D01*
G01X111640Y11275D01*
G01X111696Y11271D01*
G01X111752Y11269D01*
G01X111807Y11269D01*
G01X111863Y11271D01*
G01X111919Y11275D01*
G01X111974Y11282D01*
G01X112029Y11290D01*
G01X112084Y11300D01*
G01X112138Y11312D01*
G01X112192Y11327D01*
G01X112246Y11343D01*
G01X112298Y11361D01*
G01X112350Y11382D01*
G01X112401Y11404D01*
G01X112452Y11428D01*
G01X112501Y11453D01*
G01X112550Y11481D01*
G01X112597Y11511D01*
G01X112643Y11542D01*
G01X112688Y11575D01*
G01X112732Y11609D01*
G01X112774Y11645D01*
G01X112816Y11683D01*
G01X112855Y11722D01*
G01X112893Y11763D01*
G01X112930Y11805D01*
G01X112965Y11848D01*
G01X112999Y11893D01*
G01X113030Y11938D01*
G01X113061Y11985D01*
G01X113089Y12033D01*
G01X113115Y12082D01*
G01X113140Y12132D01*
G01X113163Y12183D01*
G01X113184Y12235D01*
G01X113203Y12287D01*
G01X113220Y12340D01*
G01X113235Y12394D01*
G01X113248Y12448D01*
G01X113259Y12503D01*
G01X113268Y12558D01*
G01X113275Y12613D01*
G01X113280Y12669D01*
G37*
M00*
M02*
