;Layer: Drill PTH
;EasyEDA v6.3.22, 2020-04-19T15:25:33+02:00
;9585e20cbaa244c19a7501b8b38ea314,91c4fea8558b4139a52e513319813ad2,10
;Gerber Generator version 0.2
M48
METRIC,LZ,000.000
;Holesize 1 = 0.305 METRIC
T01C0.305
;Holesize 2 = 0.306 METRIC
T02C0.306
;Holesize 3 = 0.701 METRIC
T03C0.701
;Holesize 4 = 0.762 METRIC
T04C0.762
;Holesize 5 = 0.901 METRIC
T05C0.901
;Holesize 6 = 0.915 METRIC
T06C0.915
;Holesize 7 = 1.000 METRIC
T07C1.000
;Holesize 8 = 1.200 METRIC
T08C1.200
%
G05
G90
T01
X+127020Y+035579
X+055900Y+012719
X+076220Y+012719
X+060980Y+012719
X+053360Y+022752
X+053360Y+017672
X+053360Y+012592
X+041803Y+024149
X+043200Y+024149
X+044470Y+024149
X+091587Y+025419
X+086380Y+022879
X+091460Y+027959
X+083840Y+025419
X+015387Y+048406
X+019070Y+049168
X+022880Y+049168
X+015387Y+050819
X+019070Y+050819
X+022880Y+050819
X+069870Y+053359
X+099080Y+052089
X+088920Y+049422
X+104160Y+049422
X+074823Y+045739
X+087015Y+045739
X+090063Y+052978
X+114320Y+041929
X+099080Y+039389
X+109240Y+038119
X+111780Y+049295
X+094000Y+036849
X+121940Y+045739
X+116860Y+052216
X+119400Y+010179
X+071140Y+029737
X+076220Y+029737
X+091841Y+023895
X+098953Y+016910
X+100604Y+015386
T02
X+104160Y+030499
X+099080Y+030499
X+094000Y+030499
X+106700Y+033039
X+101620Y+033039
X+096540Y+033039
X+091460Y+033039
X+017800Y+015259
X+017800Y+010179
X+015260Y+007639
X+012720Y+010179
X+010180Y+012719
X+015260Y+012719
X+012720Y+015259
X+007640Y+015259
X+134640Y+033039
X+127020Y+030499
X+132100Y+030499
X+137180Y+030499
X+137180Y+035579
X+132100Y+035579
T03
X+098826Y+009937
X+098826Y+011438
X+106700Y+004349
X+106700Y+005850
X+111780Y+011969
X+111780Y+013470
T04
X+064790Y+010179
X+067330Y+010179
X+069870Y+010179
X+072410Y+010179
X+074950Y+010179
X+077490Y+010179
X+077490Y+025419
X+074950Y+025419
X+072410Y+025419
X+069870Y+025419
T05
X+016530Y+046820
X+019070Y+046820
X+021610Y+046820
X+024150Y+046820
X+026690Y+046820
X+029230Y+046820
X+031770Y+046820
X+034310Y+046820
X+036850Y+046820
X+039390Y+046820
X+041930Y+046820
X+044470Y+046820
X+047010Y+046820
X+049550Y+046820
X+016530Y+054819
X+019070Y+054819
X+021610Y+054819
X+024150Y+054819
X+026690Y+054819
X+029230Y+054819
X+031770Y+054819
X+034310Y+054819
X+036850Y+054819
X+039390Y+054819
X+041930Y+054819
X+044470Y+054819
X+047010Y+054819
X+049550Y+054819
X+005201Y+030499
X+010078Y+030499
T06
X+067330Y+025419
X+064790Y+025419
X+127020Y+025419
X+129560Y+025419
X+132100Y+025419
X+134640Y+025419
X+137180Y+025419
X+137180Y+040659
X+134640Y+040659
X+132100Y+040659
X+129560Y+040659
X+127020Y+040659
T07
X+062250Y+033741
X+064790Y+033741
X+067330Y+033741
X+069870Y+033741
X+072410Y+033741
X+074950Y+033741
X+077490Y+033741
X+080030Y+033741
X+080030Y+057738
X+077490Y+057738
X+074950Y+057738
X+072410Y+057738
X+069870Y+057738
X+067330Y+057738
X+064790Y+057738
X+062250Y+057738
T08
X+092730Y+047009
X+095270Y+047009
X+107970Y+047009
X+110510Y+047009
X+097810Y+047009
X+100350Y+047009
X+105430Y+047009
X+102890Y+047009
X+113050Y+047009
X+115590Y+047009
X+118130Y+047009
X+120670Y+047009
X+120670Y+054629
X+118130Y+054629
X+115590Y+054629
X+113050Y+054629
X+110510Y+054629
X+107970Y+054629
X+105430Y+054629
X+102890Y+054629
X+100350Y+054629
X+097810Y+054629
X+095270Y+054629
X+092730Y+054629
X+027758Y+012429
X+034257Y+012429
X+034257Y+007930
X+027758Y+007930
X+027504Y+040369
X+034003Y+040369
X+034003Y+035870
X+027504Y+035870
X+020011Y+032749
X+026510Y+032749
X+026510Y+028250
X+020011Y+028250
X+027758Y+025637
X+034257Y+025637
X+034257Y+021138
X+027758Y+021138
X+035251Y+032749
X+041750Y+032749
X+041750Y+028250
X+035251Y+028250
M30
