G04 Layer: TopSolderMaskLayer*
G04 EasyEDA v6.3.22, 2020-04-19T15:25:33+02:00*
G04 9585e20cbaa244c19a7501b8b38ea314,91c4fea8558b4139a52e513319813ad2,10*
G04 Gerber Generator version 0.2*
G04 Scale: 100 percent, Rotated: No, Reflected: No *
G04 Dimensions in millimeters *
G04 leading zeros omitted , absolute positions ,3 integer and 3 decimal *
%FSLAX33Y33*%
%MOMM*%
G90*
G71D02*

%ADD38C,1.727200*%
%ADD39C,1.203198*%
%ADD44C,1.703197*%
%ADD46C,1.803197*%
%ADD48C,2.003196*%
%ADD49C,2.203196*%

%LPD*%
G36*
G01X113766Y7030D02*
G01X113766Y9532D01*
G01X114469Y9532D01*
G01X114469Y7030D01*
G01X113766Y7030D01*
G37*
G36*
G01X114566Y7030D02*
G01X114566Y9532D01*
G01X115267Y9532D01*
G01X115267Y7030D01*
G01X114566Y7030D01*
G37*
G36*
G01X115366Y7030D02*
G01X115366Y9532D01*
G01X116067Y9532D01*
G01X116067Y7030D01*
G01X115366Y7030D01*
G37*
G36*
G01X116166Y7030D02*
G01X116166Y9532D01*
G01X116867Y9532D01*
G01X116867Y7030D01*
G01X116166Y7030D01*
G37*
G36*
G01X116964Y7030D02*
G01X116964Y9532D01*
G01X117667Y9532D01*
G01X117667Y7030D01*
G01X116964Y7030D01*
G37*
G36*
G01X119064Y6829D02*
G01X119064Y9532D01*
G01X121269Y9532D01*
G01X121269Y6829D01*
G01X119064Y6829D01*
G37*
G36*
G01X119064Y1328D02*
G01X119064Y4033D01*
G01X121269Y4033D01*
G01X121269Y1328D01*
G01X119064Y1328D01*
G37*
G36*
G01X110164Y6829D02*
G01X110164Y9532D01*
G01X112369Y9532D01*
G01X112369Y6829D01*
G01X110164Y6829D01*
G37*
G36*
G01X110164Y1328D02*
G01X110164Y4033D01*
G01X112369Y4033D01*
G01X112369Y1328D01*
G01X110164Y1328D01*
G37*
G54D38*
G01X64790Y10179D03*
G01X67330Y10179D03*
G01X69870Y10179D03*
G01X72410Y10179D03*
G01X74950Y10179D03*
G01X77490Y10179D03*
G01X77490Y25419D03*
G01X74950Y25419D03*
G01X72410Y25419D03*
G01X69870Y25419D03*
G01X67330Y25419D03*
G01X64790Y25419D03*
G01X127020Y25419D03*
G01X129560Y25419D03*
G01X132100Y25419D03*
G01X134640Y25419D03*
G01X137180Y25419D03*
G01X137180Y40659D03*
G01X134640Y40659D03*
G01X132100Y40659D03*
G01X129560Y40659D03*
G01X127020Y40659D03*
G54D39*
G01X98826Y9937D03*
G01X98826Y11438D03*
G01X106700Y4349D03*
G01X106700Y5850D03*
G01X111780Y11969D03*
G01X111780Y13470D03*
G36*
G01X118498Y12148D02*
G01X118498Y14053D01*
G01X120301Y14053D01*
G01X120301Y12148D01*
G01X118498Y12148D01*
G37*
G36*
G01X121292Y12148D02*
G01X121292Y14053D01*
G01X123095Y14053D01*
G01X123095Y12148D01*
G01X121292Y12148D01*
G37*
G36*
G01X24645Y11513D02*
G01X24645Y13418D01*
G01X26448Y13418D01*
G01X26448Y11513D01*
G01X24645Y11513D01*
G37*
G36*
G01X21851Y11513D02*
G01X21851Y13418D01*
G01X23654Y13418D01*
G01X23654Y11513D01*
G01X21851Y11513D01*
G37*
G36*
G01X21851Y6941D02*
G01X21851Y8846D01*
G01X23654Y8846D01*
G01X23654Y6941D01*
G01X21851Y6941D01*
G37*
G36*
G01X24645Y6941D02*
G01X24645Y8846D01*
G01X26448Y8846D01*
G01X26448Y6941D01*
G01X24645Y6941D01*
G37*
G36*
G01X24975Y9077D02*
G01X24975Y11282D01*
G01X26778Y11282D01*
G01X26778Y9077D01*
G01X24975Y9077D01*
G37*
G36*
G01X21775Y9077D02*
G01X21775Y11282D01*
G01X23578Y11282D01*
G01X23578Y9077D01*
G01X21775Y9077D01*
G37*
G36*
G01X105597Y9202D02*
G01X105597Y11005D01*
G01X107802Y11005D01*
G01X107802Y9202D01*
G01X105597Y9202D01*
G37*
G36*
G01X105597Y12402D02*
G01X105597Y14205D01*
G01X107802Y14205D01*
G01X107802Y12402D01*
G01X105597Y12402D01*
G37*
G36*
G01X15679Y45968D02*
G01X15679Y47670D01*
G01X17380Y47670D01*
G01X17380Y45968D01*
G01X15679Y45968D01*
G37*
G54D44*
G01X19070Y46820D03*
G01X21610Y46820D03*
G01X24150Y46820D03*
G01X26690Y46820D03*
G01X29230Y46820D03*
G01X31770Y46820D03*
G01X34310Y46820D03*
G01X36850Y46820D03*
G01X39390Y46820D03*
G01X41930Y46820D03*
G01X44470Y46820D03*
G01X47010Y46820D03*
G01X49550Y46820D03*
G01X16530Y54819D03*
G01X19070Y54819D03*
G01X21610Y54819D03*
G01X24150Y54819D03*
G01X26690Y54819D03*
G01X29230Y54819D03*
G01X31770Y54819D03*
G01X34310Y54819D03*
G01X36850Y54819D03*
G01X39390Y54819D03*
G01X41930Y54819D03*
G01X44470Y54819D03*
G01X47010Y54819D03*
G01X49550Y54819D03*
G36*
G01X122105Y10383D02*
G01X122105Y11678D01*
G01X123298Y11678D01*
G01X123298Y10383D01*
G01X122105Y10383D01*
G37*
G36*
G01X122105Y8681D02*
G01X122105Y9976D01*
G01X123298Y9976D01*
G01X123298Y8681D01*
G01X122105Y8681D01*
G37*
G54D46*
G01X62250Y33741D03*
G01X64790Y33741D03*
G01X67330Y33741D03*
G01X69870Y33741D03*
G01X72410Y33741D03*
G01X74950Y33741D03*
G01X77490Y33741D03*
G01X80030Y33741D03*
G01X80030Y57738D03*
G01X77490Y57738D03*
G01X74950Y57738D03*
G01X72410Y57738D03*
G01X69870Y57738D03*
G01X67330Y57738D03*
G01X64790Y57738D03*
G01X62250Y57738D03*
G36*
G01X9227Y20581D02*
G01X9227Y22384D01*
G01X11132Y22384D01*
G01X11132Y20581D01*
G01X9227Y20581D01*
G37*
G36*
G01X9227Y23375D02*
G01X9227Y25178D01*
G01X11132Y25178D01*
G01X11132Y23375D01*
G01X9227Y23375D01*
G37*
G36*
G01X4147Y20581D02*
G01X4147Y22384D01*
G01X6052Y22384D01*
G01X6052Y20581D01*
G01X4147Y20581D01*
G37*
G36*
G01X4147Y23375D02*
G01X4147Y25178D01*
G01X6052Y25178D01*
G01X6052Y23375D01*
G01X4147Y23375D01*
G37*
G54D48*
G01X92730Y47009D03*
G01X95270Y47009D03*
G01X107970Y47009D03*
G01X110510Y47009D03*
G01X97810Y47009D03*
G01X100350Y47009D03*
G01X105430Y47009D03*
G01X102890Y47009D03*
G01X113050Y47009D03*
G01X115590Y47009D03*
G01X118130Y47009D03*
G01X120670Y47009D03*
G01X120670Y54629D03*
G01X118130Y54629D03*
G01X115590Y54629D03*
G01X113050Y54629D03*
G01X110510Y54629D03*
G01X107970Y54629D03*
G01X105430Y54629D03*
G01X102890Y54629D03*
G01X100350Y54629D03*
G01X97810Y54629D03*
G01X95270Y54629D03*
G01X92730Y54629D03*
G54D49*
G01X27758Y12429D03*
G01X34257Y12429D03*
G01X34257Y7930D03*
G01X27758Y7930D03*
G01X27504Y40369D03*
G01X34003Y40369D03*
G01X34003Y35870D03*
G01X27504Y35870D03*
G01X20011Y32749D03*
G01X26510Y32749D03*
G01X26510Y28250D03*
G01X20011Y28250D03*
G01X27758Y25637D03*
G01X34257Y25637D03*
G01X34257Y21138D03*
G01X27758Y21138D03*
G01X35251Y32749D03*
G01X41750Y32749D03*
G01X41750Y28250D03*
G01X35251Y28250D03*
G36*
G01X4350Y29649D02*
G01X4350Y31350D01*
G01X6052Y31350D01*
G01X6052Y29649D01*
G01X4350Y29649D01*
G37*
G54D44*
G01X10078Y30499D03*
M00*
M02*
