G04 Layer: BottomSolderMaskLayer*
G04 EasyEDA v6.3.22, 2020-04-19T15:25:33+02:00*
G04 9585e20cbaa244c19a7501b8b38ea314,91c4fea8558b4139a52e513319813ad2,10*
G04 Gerber Generator version 0.2*
G04 Scale: 100 percent, Rotated: No, Reflected: No *
G04 Dimensions in millimeters *
G04 leading zeros omitted , absolute positions ,3 integer and 3 decimal *
%FSLAX33Y33*%
%MOMM*%
G90*
G71D02*

%ADD38C,1.727200*%
%ADD39C,1.203198*%
%ADD44C,1.703197*%
%ADD46C,1.803197*%
%ADD47R,1.905000X1.803400*%
%ADD48C,2.003196*%
%ADD49C,2.203196*%

%LPD*%
G54D47*
G01X55900Y16402D03*
G01X55900Y19196D03*
G36*
G01X60027Y18295D02*
G01X60027Y20098D01*
G01X61932Y20098D01*
G01X61932Y18295D01*
G01X60027Y18295D01*
G37*
G36*
G01X60027Y15501D02*
G01X60027Y17304D01*
G01X61932Y17304D01*
G01X61932Y15501D01*
G01X60027Y15501D01*
G37*
G36*
G01X65107Y18295D02*
G01X65107Y20098D01*
G01X67012Y20098D01*
G01X67012Y18295D01*
G01X65107Y18295D01*
G37*
G36*
G01X65107Y15501D02*
G01X65107Y17304D01*
G01X67012Y17304D01*
G01X67012Y15501D01*
G01X65107Y15501D01*
G37*
G01X71140Y16402D03*
G01X71140Y19196D03*
G01X76220Y16402D03*
G01X76220Y19196D03*
G01X81300Y16402D03*
G01X81300Y19196D03*
G01X86380Y16402D03*
G01X86380Y19196D03*
G36*
G01X131647Y21625D02*
G01X131647Y23078D01*
G01X132552Y23078D01*
G01X132552Y21625D01*
G01X131647Y21625D01*
G37*
G36*
G01X130697Y19125D02*
G01X130697Y20578D01*
G01X131602Y20578D01*
G01X131602Y19125D01*
G01X130697Y19125D01*
G37*
G36*
G01X132597Y19125D02*
G01X132597Y20578D01*
G01X133502Y20578D01*
G01X133502Y19125D01*
G01X132597Y19125D01*
G37*
G36*
G01X50708Y22300D02*
G01X50708Y23205D01*
G01X52161Y23205D01*
G01X52161Y22300D01*
G01X50708Y22300D01*
G37*
G36*
G01X48208Y23250D02*
G01X48208Y24155D01*
G01X49661Y24155D01*
G01X49661Y23250D01*
G01X48208Y23250D01*
G37*
G36*
G01X48208Y21350D02*
G01X48208Y22255D01*
G01X49661Y22255D01*
G01X49661Y21350D01*
G01X48208Y21350D01*
G37*
G36*
G01X50708Y17220D02*
G01X50708Y18125D01*
G01X52161Y18125D01*
G01X52161Y17220D01*
G01X50708Y17220D01*
G37*
G36*
G01X48208Y18170D02*
G01X48208Y19075D01*
G01X49661Y19075D01*
G01X49661Y18170D01*
G01X48208Y18170D01*
G37*
G36*
G01X48208Y16270D02*
G01X48208Y17175D01*
G01X49661Y17175D01*
G01X49661Y16270D01*
G01X48208Y16270D01*
G37*
G36*
G01X50708Y12140D02*
G01X50708Y13045D01*
G01X52161Y13045D01*
G01X52161Y12140D01*
G01X50708Y12140D01*
G37*
G36*
G01X48208Y13090D02*
G01X48208Y13995D01*
G01X49661Y13995D01*
G01X49661Y13090D01*
G01X48208Y13090D01*
G37*
G36*
G01X48208Y11190D02*
G01X48208Y12095D01*
G01X49661Y12095D01*
G01X49661Y11190D01*
G01X48208Y11190D01*
G37*
G36*
G01X46362Y20784D02*
G01X46362Y22689D01*
G01X48165Y22689D01*
G01X48165Y20784D01*
G01X46362Y20784D01*
G37*
G36*
G01X43568Y20784D02*
G01X43568Y22689D01*
G01X45371Y22689D01*
G01X45371Y20784D01*
G01X43568Y20784D01*
G37*
G36*
G01X46362Y15704D02*
G01X46362Y17609D01*
G01X48165Y17609D01*
G01X48165Y15704D01*
G01X46362Y15704D01*
G37*
G36*
G01X43568Y15704D02*
G01X43568Y17609D01*
G01X45371Y17609D01*
G01X45371Y15704D01*
G01X43568Y15704D01*
G37*
G36*
G01X46362Y10624D02*
G01X46362Y12529D01*
G01X48165Y12529D01*
G01X48165Y10624D01*
G01X46362Y10624D01*
G37*
G36*
G01X43568Y10624D02*
G01X43568Y12529D01*
G01X45371Y12529D01*
G01X45371Y10624D01*
G01X43568Y10624D01*
G37*
G36*
G01X132036Y16390D02*
G01X132036Y18193D01*
G01X133941Y18193D01*
G01X133941Y16390D01*
G01X132036Y16390D01*
G37*
G36*
G01X132036Y13596D02*
G01X132036Y15399D01*
G01X133941Y15399D01*
G01X133941Y13596D01*
G01X132036Y13596D01*
G37*
G36*
G01X21724Y39453D02*
G01X21724Y41358D01*
G01X23527Y41358D01*
G01X23527Y39453D01*
G01X21724Y39453D01*
G37*
G36*
G01X24518Y39453D02*
G01X24518Y41358D01*
G01X26321Y41358D01*
G01X26321Y39453D01*
G01X24518Y39453D01*
G37*
G36*
G01X14231Y31833D02*
G01X14231Y33738D01*
G01X16034Y33738D01*
G01X16034Y31833D01*
G01X14231Y31833D01*
G37*
G36*
G01X17025Y31833D02*
G01X17025Y33738D01*
G01X18828Y33738D01*
G01X18828Y31833D01*
G01X17025Y31833D01*
G37*
G36*
G01X21851Y24594D02*
G01X21851Y26499D01*
G01X23654Y26499D01*
G01X23654Y24594D01*
G01X21851Y24594D01*
G37*
G36*
G01X24645Y24594D02*
G01X24645Y26499D01*
G01X26448Y26499D01*
G01X26448Y24594D01*
G01X24645Y24594D01*
G37*
G36*
G01X29471Y31833D02*
G01X29471Y33738D01*
G01X31274Y33738D01*
G01X31274Y31833D01*
G01X29471Y31833D01*
G37*
G36*
G01X32265Y31833D02*
G01X32265Y33738D01*
G01X34068Y33738D01*
G01X34068Y31833D01*
G01X32265Y31833D01*
G37*
G36*
G01X107195Y51264D02*
G01X107195Y53169D01*
G01X108998Y53169D01*
G01X108998Y51264D01*
G01X107195Y51264D01*
G37*
G36*
G01X104401Y51264D02*
G01X104401Y53169D01*
G01X106204Y53169D01*
G01X106204Y51264D01*
G01X104401Y51264D01*
G37*
G36*
G01X29141Y29397D02*
G01X29141Y31602D01*
G01X30944Y31602D01*
G01X30944Y29397D01*
G01X29141Y29397D01*
G37*
G36*
G01X32341Y29397D02*
G01X32341Y31602D01*
G01X34144Y31602D01*
G01X34144Y29397D01*
G01X32341Y29397D01*
G37*
G36*
G01X21521Y22158D02*
G01X21521Y24363D01*
G01X23324Y24363D01*
G01X23324Y22158D01*
G01X21521Y22158D01*
G37*
G36*
G01X24721Y22158D02*
G01X24721Y24363D01*
G01X26524Y24363D01*
G01X26524Y22158D01*
G01X24721Y22158D01*
G37*
G36*
G01X13901Y29397D02*
G01X13901Y31602D01*
G01X15704Y31602D01*
G01X15704Y29397D01*
G01X13901Y29397D01*
G37*
G36*
G01X17101Y29397D02*
G01X17101Y31602D01*
G01X18904Y31602D01*
G01X18904Y29397D01*
G01X17101Y29397D01*
G37*
G36*
G01X21394Y37017D02*
G01X21394Y39222D01*
G01X23197Y39222D01*
G01X23197Y37017D01*
G01X21394Y37017D01*
G37*
G36*
G01X24594Y37017D02*
G01X24594Y39222D01*
G01X26397Y39222D01*
G01X26397Y37017D01*
G01X24594Y37017D01*
G37*
G54D38*
G01X64790Y10179D03*
G01X67330Y10179D03*
G01X69870Y10179D03*
G01X72410Y10179D03*
G01X74950Y10179D03*
G01X77490Y10179D03*
G01X77490Y25419D03*
G01X74950Y25419D03*
G01X72410Y25419D03*
G01X69870Y25419D03*
G01X67330Y25419D03*
G01X64790Y25419D03*
G01X127020Y25419D03*
G01X129560Y25419D03*
G01X132100Y25419D03*
G01X134640Y25419D03*
G01X137180Y25419D03*
G01X137180Y40659D03*
G01X134640Y40659D03*
G01X132100Y40659D03*
G01X129560Y40659D03*
G01X127020Y40659D03*
G54D39*
G01X98826Y9937D03*
G01X98826Y11438D03*
G01X106700Y4349D03*
G01X106700Y5850D03*
G01X111780Y11969D03*
G01X111780Y13470D03*
G36*
G01X15679Y45968D02*
G01X15679Y47670D01*
G01X17380Y47670D01*
G01X17380Y45968D01*
G01X15679Y45968D01*
G37*
G54D44*
G01X19070Y46820D03*
G01X21610Y46820D03*
G01X24150Y46820D03*
G01X26690Y46820D03*
G01X29230Y46820D03*
G01X31770Y46820D03*
G01X34310Y46820D03*
G01X36850Y46820D03*
G01X39390Y46820D03*
G01X41930Y46820D03*
G01X44470Y46820D03*
G01X47010Y46820D03*
G01X49550Y46820D03*
G01X16530Y54819D03*
G01X19070Y54819D03*
G01X21610Y54819D03*
G01X24150Y54819D03*
G01X26690Y54819D03*
G01X29230Y54819D03*
G01X31770Y54819D03*
G01X34310Y54819D03*
G01X36850Y54819D03*
G01X39390Y54819D03*
G01X41930Y54819D03*
G01X44470Y54819D03*
G01X47010Y54819D03*
G01X49550Y54819D03*
G54D46*
G01X62250Y33741D03*
G01X64790Y33741D03*
G01X67330Y33741D03*
G01X69870Y33741D03*
G01X72410Y33741D03*
G01X74950Y33741D03*
G01X77490Y33741D03*
G01X80030Y33741D03*
G01X80030Y57738D03*
G01X77490Y57738D03*
G01X74950Y57738D03*
G01X72410Y57738D03*
G01X69870Y57738D03*
G01X67330Y57738D03*
G01X64790Y57738D03*
G01X62250Y57738D03*
G54D48*
G01X92730Y47009D03*
G01X95270Y47009D03*
G01X107970Y47009D03*
G01X110510Y47009D03*
G01X97810Y47009D03*
G01X100350Y47009D03*
G01X105430Y47009D03*
G01X102890Y47009D03*
G01X113050Y47009D03*
G01X115590Y47009D03*
G01X118130Y47009D03*
G01X120670Y47009D03*
G01X120670Y54629D03*
G01X118130Y54629D03*
G01X115590Y54629D03*
G01X113050Y54629D03*
G01X110510Y54629D03*
G01X107970Y54629D03*
G01X105430Y54629D03*
G01X102890Y54629D03*
G01X100350Y54629D03*
G01X97810Y54629D03*
G01X95270Y54629D03*
G01X92730Y54629D03*
G54D49*
G01X27758Y12429D03*
G01X34257Y12429D03*
G01X34257Y7930D03*
G01X27758Y7930D03*
G01X27504Y40369D03*
G01X34003Y40369D03*
G01X34003Y35870D03*
G01X27504Y35870D03*
G01X20011Y32749D03*
G01X26510Y32749D03*
G01X26510Y28250D03*
G01X20011Y28250D03*
G01X27758Y25637D03*
G01X34257Y25637D03*
G01X34257Y21138D03*
G01X27758Y21138D03*
G01X35251Y32749D03*
G01X41750Y32749D03*
G01X41750Y28250D03*
G01X35251Y28250D03*
G36*
G01X4350Y29649D02*
G01X4350Y31350D01*
G01X6052Y31350D01*
G01X6052Y29649D01*
G01X4350Y29649D01*
G37*
G54D44*
G01X10078Y30499D03*
M00*
M02*
